<svg xmlns="http://www.w3.org/2000/svg" xmlns:xlink="http://www.w3.org/1999/xlink" width="151.125" height="77" viewBox="0 0 151.125 77">
  <defs>
    <clipPath id="clip-path">
      <rect id="Rectangle_18871" data-name="Rectangle 18871" width="151.125" height="77" fill="#0a1458"/>
    </clipPath>
  </defs>
  <g id="Group_40840" data-name="Group 40840" transform="translate(0 0)">
    <rect id="Rectangle_18869" data-name="Rectangle 18869" width="41.085" height="2.255" transform="translate(0 74.745)" fill="#0a1458"/>
    <rect id="Rectangle_18870" data-name="Rectangle 18870" width="67.05" height="2.255" transform="translate(55.926 74.745)" fill="#0a1458"/>
    <path id="Path_240" data-name="Path 240" d="M11.678,65.768h2.255V2.471L11.678,3.642Z" transform="translate(4.183 0.885)" fill="#0a1458"/>
    <path id="Path_241" data-name="Path 241" d="M17.256,65.695h2.255V3.849L17.256,2.677Z" transform="translate(6.181 0.959)" fill="#0a1458"/>
    <path id="Path_242" data-name="Path 242" d="M8.889,55.888h2.255V30.055L8.889,31.226Z" transform="translate(3.184 10.766)" fill="#0a1458"/>
    <path id="Path_243" data-name="Path 243" d="M20.045,55.888H22.3V31.226l-2.255-1.171Z" transform="translate(7.18 10.766)" fill="#0a1458"/>
    <path id="Path_244" data-name="Path 244" d="M6.1,53.844H8.355V35.762L6.1,36.933Z" transform="translate(2.185 12.81)" fill="#0a1458"/>
    <path id="Path_245" data-name="Path 245" d="M22.834,53.844h2.255V36.933l-2.255-1.171Z" transform="translate(8.179 12.81)" fill="#0a1458"/>
    <path id="Path_246" data-name="Path 246" d="M15.595,0,14.467.585V66.652h2.255V.585Z" transform="translate(5.182 0)" fill="#0a1458"/>
    <g id="Group_40839" data-name="Group 40839" transform="translate(0 0)">
      <g id="Group_40838" data-name="Group 40838" clip-path="url(#clip-path)">
        <path id="Path_247" data-name="Path 247" d="M51.43,52.221h2.848L49.034,40.492H46.353L41.124,52.221h2.782l1.039-2.513h5.446Zm-5.613-4.574,1.861-4.49,1.859,4.49ZM58.24,52.422a4.25,4.25,0,0,0,3.15-1.08A4.425,4.425,0,0,0,62.463,48.1V40.492H55.642v2.177h4.122V48.25q0,1.944-1.658,1.944A2.709,2.709,0,0,1,55.927,48.9l-1.508,1.809a4.169,4.169,0,0,0,1.634,1.264,5.307,5.307,0,0,0,2.187.444m15.167-.2h2.849L71.011,40.492H68.33L63.1,52.221h2.782l1.039-2.513h5.446Zm-5.613-4.574,1.861-4.49,1.859,4.49Zm17.764-7.155v7.121l-5.831-7.121H77.481V52.221h2.681V45.1l5.848,7.121H88.24V40.492Zm9.372,11.93a6.849,6.849,0,0,0,2.73-.486,3.771,3.771,0,0,0,1.684-1.315,3.2,3.2,0,0,0,.561-1.835,2.709,2.709,0,0,0-.61-1.861,3.661,3.661,0,0,0-1.467-1.005,19.505,19.505,0,0,0-2.195-.637,9.765,9.765,0,0,1-1.919-.577.95.95,0,0,1-.629-.9,1.126,1.126,0,0,1,.545-.972,3.051,3.051,0,0,1,1.684-.368,6.538,6.538,0,0,1,3.25.921l.839-2.062a6.548,6.548,0,0,0-1.878-.77,9.051,9.051,0,0,0-2.195-.268,6.813,6.813,0,0,0-2.722.486,3.706,3.706,0,0,0-1.668,1.315,3.259,3.259,0,0,0-.553,1.851A2.761,2.761,0,0,0,91,45.82a3.565,3.565,0,0,0,1.467,1.023,19.059,19.059,0,0,0,2.195.637q.872.2,1.383.368a2.475,2.475,0,0,1,.837.444.871.871,0,0,1,.327.7,1.037,1.037,0,0,1-.553.914,3.326,3.326,0,0,1-1.709.344,6.712,6.712,0,0,1-2.078-.337,6.213,6.213,0,0,1-1.793-.888l-.922,2.045a6.293,6.293,0,0,0,2.086.979,9.554,9.554,0,0,0,2.691.378m6.881-.2h2.714V40.492h-2.714Z" transform="translate(14.73 14.432)" fill="#0a1458"/>
        <path id="Path_248" data-name="Path 248" d="M128.376,26.452l-5.228,11.731h2.782l1.039-2.515h5.445l1.04,2.515H136.3l-5.245-11.731Zm1.324,2.665,1.859,4.492h-3.719Zm-10.056-2.665-4.323,7.289-4.39-7.289h-2.246V38.183h2.548V31.3l3.435,5.646h1.224l3.451-5.8.018,7.038h2.547l-.033-11.731Zm-16.349,0v7.121l-5.829-7.121H95.221V38.183H97.9V31.06l5.848,7.122h2.229V26.452ZM89.8,38.183h2.714V26.453H89.8ZM85.277,26.452l-5.194,5.479V26.452h-2.7V38.183h2.7V35.216l1.576-1.643,3.754,4.61h3.165l-5.143-6.5,4.86-5.228Zm-17.862,0V38.183h8.6V35.969H70.129V26.452Zm-9.15,0L53.036,38.183h2.782l1.039-2.515H62.3l1.039,2.515H66.19L60.945,26.452Zm1.323,2.665,1.859,4.492h-3.72ZM49.272,26.452l-5.2,5.479V26.452h-2.7V38.183h2.7V35.216l1.576-1.643,3.754,4.61h3.166l-5.143-6.5,4.86-5.228Z" transform="translate(14.822 9.475)" fill="#0a1458"/>
        <path id="Path_249" data-name="Path 249" d="M41.173,25.216h2.714V13.486H41.173Zm1.357-12.77a1.362,1.362,0,0,0,1.015-.4,1.411,1.411,0,0,0,.394-1.023,1.385,1.385,0,0,0-.394-1.005,1.476,1.476,0,0,0-2.028,0,1.374,1.374,0,0,0-.394,1.005,1.4,1.4,0,0,0,.394,1.023,1.355,1.355,0,0,0,1.013.4M49.393,23l6.419-7.758v-1.76h-9.87V15.7h6.3l-6.435,7.758v1.76H56.062V23Zm21.717,2.212-.033-11.731H68.849l-4.323,7.291-4.391-7.291H57.89V25.216h2.548V18.328l3.435,5.647H65.1l3.451-5.8.016,7.038Zm2.712,0h2.714V13.486H73.823Zm1.357-12.77a1.362,1.362,0,0,0,1.015-.4,1.4,1.4,0,0,0,.393-1.023,1.379,1.379,0,0,0-.393-1.005,1.478,1.478,0,0,0-2.029,0,1.384,1.384,0,0,0-.393,1.005,1.41,1.41,0,0,0,.393,1.023,1.362,1.362,0,0,0,1.015.4m14.458,12.77-2.631-3.77a3.822,3.822,0,0,0,2.414-3.7A4.06,4.06,0,0,0,88.8,15.48a4.015,4.015,0,0,0-1.768-1.475,6.51,6.51,0,0,0-2.706-.52H79.249V25.216h2.714V21.948h2.5l2.263,3.268Zm-2.966-7.474a1.858,1.858,0,0,1-.637,1.508,2.811,2.811,0,0,1-1.859.536H81.962V15.7h2.212a2.849,2.849,0,0,1,1.859.527,1.86,1.86,0,0,1,.637,1.517" transform="translate(14.73 3.444)" fill="#0a1458"/>
      </g>
    </g>
  </g>
</svg>
