<?xml version="1.0" encoding="UTF-8"?>
<!DOCTYPE svg PUBLIC "-//W3C//DTD SVG 1.1//EN" "http://www.w3.org/Graphics/SVG/1.1/DTD/svg11.dtd">
<svg xmlns="http://www.w3.org/2000/svg" version="1.1" width="512px" height="512px" style="shape-rendering:geometricPrecision; text-rendering:geometricPrecision; image-rendering:optimizeQuality; fill-rule:evenodd; clip-rule:evenodd" xmlns:xlink="http://www.w3.org/1999/xlink">
<g><path style="opacity:0.458" fill="#000000" d="M 430.5,45.5 C 397.165,45.3333 363.832,45.5 330.5,46C 326.574,47.0266 322.907,48.5266 319.5,50.5C 322.06,47.4625 325.393,45.6292 329.5,45C 363.336,44.1691 397.002,44.3358 430.5,45.5 Z"/></g>
<g><path style="opacity:1" fill="#0a1358" d="M 430.5,45.5 C 432.214,46.7384 434.214,47.405 436.5,47.5C 442.776,51.7646 447.11,57.4313 449.5,64.5C 449.5,69.5 449.5,74.5 449.5,79.5C 403.5,79.5 357.5,79.5 311.5,79.5C 310.278,70.1638 311.945,61.4971 316.5,53.5C 317.833,52.8333 318.833,51.8333 319.5,50.5C 322.907,48.5266 326.574,47.0266 330.5,46C 363.832,45.5 397.165,45.3333 430.5,45.5 Z"/></g>
<g><path style="opacity:0.552" fill="#000000" d="M 430.5,45.5 C 432.898,45.2594 434.898,45.9261 436.5,47.5C 434.214,47.405 432.214,46.7384 430.5,45.5 Z"/></g>
<g><path style="opacity:0.568" fill="#000000" d="M 436.5,47.5 C 444.238,50.57 448.571,56.2367 449.5,64.5C 447.11,57.4313 442.776,51.7646 436.5,47.5 Z"/></g>
<g><path style="opacity:0.338" fill="#000000" d="M 319.5,50.5 C 318.833,51.8333 317.833,52.8333 316.5,53.5C 316.5,51.5 317.5,50.5 319.5,50.5 Z"/></g>
<g><path style="opacity:0.811" fill="#000000" d="M 316.5,53.5 C 311.945,61.4971 310.278,70.1638 311.5,79.5C 357.5,79.5 403.5,79.5 449.5,79.5C 449.5,74.5 449.5,69.5 449.5,64.5C 450.488,69.6405 450.821,74.9738 450.5,80.5C 403.833,80.5 357.167,80.5 310.5,80.5C 310.334,74.4908 310.501,68.4908 311,62.5C 311.843,58.7996 313.676,55.7996 316.5,53.5 Z"/></g>
<g><path style="opacity:0.537" fill="#000000" d="M 146.5,67.5 C 142.757,66.0111 139.09,66.1777 135.5,68C 127.681,75.6427 121.681,84.476 117.5,94.5C 120.495,83.6746 126.162,74.5079 134.5,67C 138.039,65.4961 141.705,65.1628 145.5,66C 146.056,66.3826 146.389,66.8826 146.5,67.5 Z"/></g>
<g><path style="opacity:1" fill="#0a1357" d="M 146.5,67.5 C 147.026,69.2303 148.026,70.5637 149.5,71.5C 149.721,74.0673 150.388,76.4006 151.5,78.5C 151.666,86.1739 151.5,93.8406 151,101.5C 149.831,109.179 148.665,116.845 147.5,124.5C 145.407,129.878 144.073,135.545 143.5,141.5C 141.676,146.936 140.342,152.603 139.5,158.5C 137.447,158.402 135.78,159.069 134.5,160.5C 131.318,160.584 128.985,161.917 127.5,164.5C 126.883,164.611 126.383,164.944 126,165.5C 125.199,168.367 125.366,171.034 126.5,173.5C 127.451,174.919 127.784,176.585 127.5,178.5C 127.631,179.239 127.464,179.906 127,180.5C 120.556,177.186 113.723,175.186 106.5,174.5C 104.735,173.539 102.735,173.205 100.5,173.5C 101.863,155.628 104.529,137.962 108.5,120.5C 110.277,117.495 111.277,114.162 111.5,110.5C 114.071,105.463 116.071,100.129 117.5,94.5C 121.681,84.476 127.681,75.6427 135.5,68C 139.09,66.1777 142.757,66.0111 146.5,67.5 Z"/></g>
<g><path style="opacity:0.512" fill="#000000" d="M 146.5,67.5 C 148.446,68.0347 149.446,69.368 149.5,71.5C 148.026,70.5637 147.026,69.2303 146.5,67.5 Z"/></g>
<g><path style="opacity:0.532" fill="#000000" d="M 149.5,71.5 C 151.163,73.4385 151.829,75.7718 151.5,78.5C 150.388,76.4006 149.721,74.0673 149.5,71.5 Z"/></g>
<g><path style="opacity:0.53" fill="#000000" d="M 151.5,78.5 C 153.543,94.0986 152.21,109.432 147.5,124.5C 148.665,116.845 149.831,109.179 151,101.5C 151.5,93.8406 151.666,86.1739 151.5,78.5 Z"/></g>
<g><path style="opacity:0.534" fill="#000000" d="M 117.5,94.5 C 116.071,100.129 114.071,105.463 111.5,110.5C 112.536,104.715 114.536,99.3817 117.5,94.5 Z"/></g>
<g><path style="opacity:0.446" fill="#000000" d="M 315.5,99.5 C 312.842,96.3497 309.509,95.6831 305.5,97.5C 306.514,96.2353 308.014,95.5687 310,95.5C 313.594,94.717 315.427,96.0504 315.5,99.5 Z"/></g>
<g><path style="opacity:0.484" fill="#000000" d="M 461.5,110.5 C 458.941,106.388 456.608,102.054 454.5,97.5C 413.833,96.1667 373.167,96.1667 332.5,97.5C 338.397,108.624 343.73,119.958 348.5,131.5C 342.274,120.051 336.274,108.384 330.5,96.5C 372.167,95.1667 413.833,95.1667 455.5,96.5C 458.069,100.967 460.069,105.633 461.5,110.5 Z"/></g>
<g><path style="opacity:1" fill="#0a1357" d="M 315.5,99.5 C 316.338,99.8417 316.672,100.508 316.5,101.5C 321.047,112.925 326.38,123.925 332.5,134.5C 334.008,136.181 335.008,138.181 335.5,140.5C 337.934,147.371 340.934,154.038 344.5,160.5C 321.5,161.833 298.5,161.833 275.5,160.5C 280.065,152.04 284.065,143.374 287.5,134.5C 287.66,132.847 288.326,131.514 289.5,130.5C 295.62,119.925 300.953,108.925 305.5,97.5C 309.509,95.6831 312.842,96.3497 315.5,99.5 Z"/></g>
<g><path style="opacity:1" fill="#0a1357" d="M 461.5,110.5 C 463.008,112.181 464.008,114.181 464.5,116.5C 469.047,127.925 474.38,138.925 480.5,149.5C 481.338,149.842 481.672,150.508 481.5,151.5C 482.134,154.937 483.467,158.104 485.5,161C 444.829,161.833 404.163,161.667 363.5,160.5C 359.392,151.948 355.059,143.615 350.5,135.5C 349.326,134.486 348.66,133.153 348.5,131.5C 343.73,119.958 338.397,108.624 332.5,97.5C 373.167,96.1667 413.833,96.1667 454.5,97.5C 456.608,102.054 458.941,106.388 461.5,110.5 Z M 380.5,109.5 C 383.167,109.5 385.833,109.5 388.5,109.5C 391.974,110.525 395.64,111.192 399.5,111.5C 401.181,113.008 403.181,114.008 405.5,114.5C 407.945,116.93 409.945,119.596 411.5,122.5C 411.5,122.833 411.5,123.167 411.5,123.5C 409.388,129.223 405.388,131.223 399.5,129.5C 398.809,127.978 397.642,126.978 396,126.5C 385.344,122.922 375.51,124.256 366.5,130.5C 364.5,130.167 362.5,129.833 360.5,129.5C 360.167,128.5 359.5,127.833 358.5,127.5C 356.708,122.792 357.708,118.792 361.5,115.5C 363.027,115.573 364.027,114.906 364.5,113.5C 369.856,111.828 375.19,110.494 380.5,109.5 Z"/></g>
<g><path style="opacity:0.499" fill="#000000" d="M 305.5,97.5 C 300.953,108.925 295.62,119.925 289.5,130.5C 294.047,119.075 299.38,108.075 305.5,97.5 Z"/></g>
<g><path style="opacity:0.498" fill="#000000" d="M 78.5,100.5 C 77.1667,102.5 75.5,104.167 73.5,105.5C 74.1667,102.833 75.8333,101.167 78.5,100.5 Z"/></g>
<g><path style="opacity:1" fill="#0a1356" d="M 87.5,101.5 C 88.5,103.167 89.8333,104.5 91.5,105.5C 93.0916,108.966 93.7583,112.633 93.5,116.5C 90.114,125.422 88.114,134.756 87.5,144.5C 85.9431,150.261 85.2764,156.261 85.5,162.5C 85.8128,166.042 85.4794,169.375 84.5,172.5C 78.0426,172.743 71.7093,173.743 65.5,175.5C 64.914,175.291 64.414,174.957 64,174.5C 63.5001,163.172 63.3335,151.838 63.5,140.5C 64.8589,135.025 65.8589,129.358 66.5,123.5C 67.9238,121.485 68.5905,119.152 68.5,116.5C 70.4031,113.021 72.0698,109.354 73.5,105.5C 75.5,104.167 77.1667,102.5 78.5,100.5C 79.4486,99.8476 80.6153,99.5143 82,99.5C 84.2206,99.3932 86.0539,100.06 87.5,101.5 Z"/></g>
<g><path style="opacity:0.42" fill="#000000" d="M 87.5,101.5 C 89.8333,101.833 91.1667,103.167 91.5,105.5C 89.8333,104.5 88.5,103.167 87.5,101.5 Z"/></g>
<g><path style="opacity:0.503" fill="#000000" d="M 316.5,101.5 C 322.62,112.075 327.953,123.075 332.5,134.5C 326.38,123.925 321.047,112.925 316.5,101.5 Z"/></g>
<g><path style="opacity:0.497" fill="#000000" d="M 73.5,105.5 C 72.0698,109.354 70.4031,113.021 68.5,116.5C 68.8457,112.148 70.5124,108.481 73.5,105.5 Z"/></g>
<g><path style="opacity:0.458" fill="#000000" d="M 91.5,105.5 C 95.1784,108.804 95.8451,112.471 93.5,116.5C 93.7583,112.633 93.0916,108.966 91.5,105.5 Z"/></g>
<g><path style="opacity:0.426" fill="#000000" d="M 380.5,109.5 C 375.19,110.494 369.856,111.828 364.5,113.5C 369.251,110.312 374.584,108.979 380.5,109.5 Z"/></g>
<g><path style="opacity:0.449" fill="#000000" d="M 388.5,109.5 C 392.489,109.116 396.155,109.783 399.5,111.5C 395.64,111.192 391.974,110.525 388.5,109.5 Z"/></g>
<g><path style="opacity:0.517" fill="#000000" d="M 111.5,110.5 C 111.277,114.162 110.277,117.495 108.5,120.5C 108.723,116.838 109.723,113.505 111.5,110.5 Z"/></g>
<g><path style="opacity:0.491" fill="#000000" d="M 399.5,111.5 C 402.089,111.461 404.089,112.461 405.5,114.5C 403.181,114.008 401.181,113.008 399.5,111.5 Z"/></g>
<g><path style="opacity:0.499" fill="#000000" d="M 364.5,113.5 C 364.027,114.906 363.027,115.573 361.5,115.5C 361.973,114.094 362.973,113.427 364.5,113.5 Z"/></g>
<g><path style="opacity:0.423" fill="#000000" d="M 405.5,114.5 C 409.412,115.744 411.412,118.411 411.5,122.5C 409.945,119.596 407.945,116.93 405.5,114.5 Z"/></g>
<g><path style="opacity:0.648" fill="#000000" d="M 361.5,115.5 C 357.708,118.792 356.708,122.792 358.5,127.5C 357.883,127.389 357.383,127.056 357,126.5C 356.333,124.167 356.333,121.833 357,119.5C 357.748,117.249 359.248,115.916 361.5,115.5 Z"/></g>
<g><path style="opacity:0.51" fill="#000000" d="M 68.5,116.5 C 68.5905,119.152 67.9238,121.485 66.5,123.5C 66.4095,120.848 67.0762,118.515 68.5,116.5 Z"/></g>
<g><path style="opacity:0.508" fill="#000000" d="M 93.5,116.5 C 91.6064,125.976 89.6064,135.309 87.5,144.5C 88.114,134.756 90.114,125.422 93.5,116.5 Z"/></g>
<g><path style="opacity:0.489" fill="#000000" d="M 464.5,116.5 C 470.62,127.075 475.953,138.075 480.5,149.5C 474.38,138.925 469.047,127.925 464.5,116.5 Z"/></g>
<g><path style="opacity:0.488" fill="#000000" d="M 108.5,120.5 C 104.529,137.962 101.863,155.628 100.5,173.5C 102.735,173.205 104.735,173.539 106.5,174.5C 104.167,174.5 101.833,174.5 99.5,174.5C 100.337,163.804 101.503,153.137 103,142.5C 103.922,134.814 105.755,127.48 108.5,120.5 Z"/></g>
<g><path style="opacity:0.525" fill="#000000" d="M 66.5,123.5 C 65.8589,129.358 64.8589,135.025 63.5,140.5C 63.3671,134.511 64.3671,128.844 66.5,123.5 Z"/></g>
<g><path style="opacity:0.508" fill="#000000" d="M 180.5,131.5 C 177.795,124.988 173.128,123.155 166.5,126C 164.667,126.5 163.5,127.667 163,129.5C 162.119,133.709 160.953,137.709 159.5,141.5C 159.853,137.087 160.686,132.754 162,128.5C 162.5,126.667 163.667,125.5 165.5,125C 170.998,122.403 175.832,123.236 180,127.5C 180.49,128.793 180.657,130.127 180.5,131.5 Z"/></g>
<g><path style="opacity:0.527" fill="#000000" d="M 411.5,123.5 C 411.289,128.214 408.789,130.88 404,131.5C 402.124,131.475 400.624,130.809 399.5,129.5C 405.388,131.223 409.388,129.223 411.5,123.5 Z"/></g>
<g><path style="opacity:0.476" fill="#000000" d="M 147.5,124.5 C 146.927,130.455 145.593,136.122 143.5,141.5C 144.073,135.545 145.407,129.878 147.5,124.5 Z"/></g>
<g><path style="opacity:1" fill="#0a1358" d="M 180.5,131.5 C 181.13,139.243 180.463,146.576 178.5,153.5C 171.649,152.306 164.649,152.306 157.5,153.5C 157.5,152.5 157.5,151.5 157.5,150.5C 158.913,147.781 159.58,144.781 159.5,141.5C 160.953,137.709 162.119,133.709 163,129.5C 163.5,127.667 164.667,126.5 166.5,126C 173.128,123.155 177.795,124.988 180.5,131.5 Z"/></g>
<g><path style="opacity:0.47" fill="#000000" d="M 399.5,129.5 C 394.853,127.087 389.853,125.754 384.5,125.5C 378.095,125.972 372.095,127.639 366.5,130.5C 375.51,124.256 385.344,122.922 396,126.5C 397.642,126.978 398.809,127.978 399.5,129.5 Z"/></g>
<g><path style="opacity:0.607" fill="#000000" d="M 358.5,127.5 C 359.5,127.833 360.167,128.5 360.5,129.5C 359.167,129.5 358.5,128.833 358.5,127.5 Z"/></g>
<g><path style="opacity:0.656" fill="#000000" d="M 360.5,129.5 C 362.5,129.833 364.5,130.167 366.5,130.5C 364.32,131.794 362.32,131.461 360.5,129.5 Z"/></g>
<g><path style="opacity:0.479" fill="#000000" d="M 180.5,131.5 C 181.492,138.982 181.825,146.648 181.5,154.5C 180.209,154.737 179.209,154.404 178.5,153.5C 180.463,146.576 181.13,139.243 180.5,131.5 Z"/></g>
<g><path style="opacity:0.484" fill="#000000" d="M 287.5,134.5 C 284.065,143.374 280.065,152.04 275.5,160.5C 298.5,161.833 321.5,161.833 344.5,160.5C 340.934,154.038 337.934,147.371 335.5,140.5C 339.392,147.281 343.059,154.281 346.5,161.5C 322.167,162.833 297.833,162.833 273.5,161.5C 277.941,152.282 282.608,143.282 287.5,134.5 Z"/></g>
<g><path style="opacity:0.472" fill="#000000" d="M 350.5,135.5 C 355.059,143.615 359.392,151.948 363.5,160.5C 404.163,161.667 444.829,161.833 485.5,161C 483.467,158.104 482.134,154.937 481.5,151.5C 483.599,154.856 485.599,158.356 487.5,162C 445.829,162.833 404.163,162.667 362.5,161.5C 357.935,153.04 353.935,144.374 350.5,135.5 Z"/></g>
<g><path style="opacity:0.571" fill="#000000" d="M 63.5,140.5 C 63.3335,151.838 63.5001,163.172 64,174.5C 64.414,174.957 64.914,175.291 65.5,175.5C 71.7093,173.743 78.0426,172.743 84.5,172.5C 77.6718,173.784 70.8384,175.451 64,177.5C 62.8717,171.103 62.3717,164.603 62.5,158C 62.5005,151.99 62.8338,146.157 63.5,140.5 Z"/></g>
<g><path style="opacity:0.513" fill="#000000" d="M 143.5,141.5 C 142.757,147.546 141.757,153.546 140.5,159.5C 138.5,159.833 136.5,160.167 134.5,160.5C 135.78,159.069 137.447,158.402 139.5,158.5C 140.342,152.603 141.676,146.936 143.5,141.5 Z"/></g>
<g><path style="opacity:0.515" fill="#000000" d="M 159.5,141.5 C 159.58,144.781 158.913,147.781 157.5,150.5C 157.42,147.219 158.087,144.219 159.5,141.5 Z"/></g>
<g><path style="opacity:0.494" fill="#000000" d="M 87.5,144.5 C 87.3484,150.699 86.6818,156.699 85.5,162.5C 85.2764,156.261 85.9431,150.261 87.5,144.5 Z"/></g>
<g><path style="opacity:0.561" fill="#000000" d="M 157.5,150.5 C 157.5,151.5 157.5,152.5 157.5,153.5C 164.649,152.306 171.649,152.306 178.5,153.5C 171.142,153.418 163.809,153.752 156.5,154.5C 156.232,152.901 156.566,151.568 157.5,150.5 Z"/></g>
<g><path style="opacity:0.543" fill="#000000" d="M 236.5,150.5 C 233.526,153.138 230.526,155.805 227.5,158.5C 229.266,154.398 232.266,151.731 236.5,150.5 Z"/></g>
<g><path style="opacity:1" fill="#0a1357" d="M 239.5,150.5 C 242.726,151.905 244.726,154.405 245.5,158C 244.06,161.911 242.06,165.411 239.5,168.5C 237.1,170.296 235.433,172.63 234.5,175.5C 233.094,175.973 232.427,176.973 232.5,178.5C 229.058,181.385 227.224,185.051 227,189.5C 233.016,185.239 239.516,182.239 246.5,180.5C 253.899,180.511 261.233,181.178 268.5,182.5C 269.718,183.161 271.051,183.828 272.5,184.5C 271.652,186.409 271.318,188.409 271.5,190.5C 269.463,195.617 267.796,200.95 266.5,206.5C 265.326,207.514 264.66,208.847 264.5,210.5C 262.734,212.771 260.734,214.937 258.5,217C 253.167,217.333 247.833,217.667 242.5,218C 238.57,218.242 234.903,219.075 231.5,220.5C 228.848,220.41 226.515,221.076 224.5,222.5C 221.421,222.804 218.587,223.804 216,225.5C 215.329,224.748 214.496,224.414 213.5,224.5C 212.198,222.178 210.198,220.845 207.5,220.5C 204.971,218.735 202.638,216.735 200.5,214.5C 201.524,209.738 202.857,205.071 204.5,200.5C 203.06,199.048 201.394,198.048 199.5,197.5C 198.198,195.178 196.198,193.845 193.5,193.5C 192.341,191.75 190.674,190.75 188.5,190.5C 183.887,187.188 178.887,184.354 173.5,182C 164.333,180.5 160.5,184.333 162,193.5C 162.383,194.056 162.883,194.389 163.5,194.5C 164.167,194.5 164.5,194.833 164.5,195.5C 169.684,199.26 175.35,202.26 181.5,204.5C 182.659,206.25 184.326,207.25 186.5,207.5C 186.973,208.906 187.973,209.573 189.5,209.5C 190.716,211.451 192.382,212.951 194.5,214C 193.906,214.464 193.239,214.631 192.5,214.5C 190.585,214.784 188.919,214.451 187.5,213.5C 178.918,212.649 170.252,212.316 161.5,212.5C 160.5,210.833 159.167,209.5 157.5,208.5C 155.163,204.492 152.83,200.492 150.5,196.5C 150.072,193.215 149.072,190.215 147.5,187.5C 146.704,182.853 146.037,178.186 145.5,173.5C 150.049,172.537 154.383,171.204 158.5,169.5C 169.772,168.148 180.438,169.982 190.5,175C 193.397,177.41 196.397,179.577 199.5,181.5C 200.419,184.089 202.086,186.089 204.5,187.5C 204.712,189.384 205.712,190.717 207.5,191.5C 210.372,187.09 212.705,182.423 214.5,177.5C 216.95,175.371 218.617,172.704 219.5,169.5C 220.906,169.027 221.573,168.027 221.5,166.5C 223.262,165.738 224.262,164.404 224.5,162.5C 226.262,161.738 227.262,160.404 227.5,158.5C 230.526,155.805 233.526,153.138 236.5,150.5C 237.5,149.167 238.5,149.167 239.5,150.5 Z"/></g>
<g><path style="opacity:0.523" fill="#000000" d="M 239.5,150.5 C 246.791,153.032 248.291,157.699 244,164.5C 242.629,166.041 241.129,167.375 239.5,168.5C 242.06,165.411 244.06,161.911 245.5,158C 244.726,154.405 242.726,151.905 239.5,150.5 Z"/></g>
<g><path style="opacity:0.513" fill="#000000" d="M 227.5,158.5 C 227.262,160.404 226.262,161.738 224.5,162.5C 224.738,160.596 225.738,159.262 227.5,158.5 Z"/></g>
<g><path style="opacity:0.49" fill="#000000" d="M 134.5,160.5 C 132.365,162.071 130.032,163.404 127.5,164.5C 128.985,161.917 131.318,160.584 134.5,160.5 Z"/></g>
<g><path style="opacity:0.507" fill="#000000" d="M 224.5,162.5 C 224.262,164.404 223.262,165.738 221.5,166.5C 221.738,164.596 222.738,163.262 224.5,162.5 Z"/></g>
<g><path style="opacity:0.626" fill="#000000" d="M 127.5,164.5 C 126.701,167.43 126.368,170.43 126.5,173.5C 125.366,171.034 125.199,168.367 126,165.5C 126.383,164.944 126.883,164.611 127.5,164.5 Z"/></g>
<g><path style="opacity:0.479" fill="#000000" d="M 221.5,166.5 C 221.573,168.027 220.906,169.027 219.5,169.5C 219.427,167.973 220.094,166.973 221.5,166.5 Z"/></g>
<g><path style="opacity:0.578" fill="#000000" d="M 158.5,169.5 C 171.328,166.585 183.328,168.752 194.5,176C 196.373,177.704 198.04,179.537 199.5,181.5C 196.397,179.577 193.397,177.41 190.5,175C 180.438,169.982 169.772,168.148 158.5,169.5 Z"/></g>
<g><path style="opacity:0.485" fill="#000000" d="M 239.5,168.5 C 238.567,171.37 236.9,173.704 234.5,175.5C 235.433,172.63 237.1,170.296 239.5,168.5 Z"/></g>
<g><path style="opacity:0.529" fill="#000000" d="M 158.5,169.5 C 154.383,171.204 150.049,172.537 145.5,173.5C 149.378,170.987 153.711,169.654 158.5,169.5 Z"/></g>
<g><path style="opacity:0.542" fill="#000000" d="M 219.5,169.5 C 218.617,172.704 216.95,175.371 214.5,177.5C 215.383,174.296 217.05,171.629 219.5,169.5 Z"/></g>
<g><path style="opacity:0.489" fill="#000000" d="M 145.5,173.5 C 146.037,178.186 146.704,182.853 147.5,187.5C 145.862,183.182 144.528,178.682 143.5,174C 144.094,173.536 144.761,173.369 145.5,173.5 Z"/></g>
<g><path style="opacity:0.455" fill="#000000" d="M 106.5,174.5 C 113.723,175.186 120.556,177.186 127,180.5C 127.464,179.906 127.631,179.239 127.5,178.5C 128.598,179.601 128.765,180.934 128,182.5C 120.999,179.114 113.833,176.448 106.5,174.5 Z"/></g>
<g><path style="opacity:0.498" fill="#000000" d="M 234.5,175.5 C 234.573,177.027 233.906,178.027 232.5,178.5C 232.427,176.973 233.094,175.973 234.5,175.5 Z"/></g>
<g><path style="opacity:0.521" fill="#000000" d="M 214.5,177.5 C 212.705,182.423 210.372,187.09 207.5,191.5C 205.712,190.717 204.712,189.384 204.5,187.5C 205.458,187.953 206.292,188.619 207,189.5C 209.275,185.268 211.775,181.268 214.5,177.5 Z"/></g>
<g><path style="opacity:0.243" fill="#000000" d="M 276.5,465.5 C 301.167,465.5 325.833,465.5 350.5,465.5C 350.5,369.833 350.5,274.167 350.5,178.5C 331.155,178.167 311.822,178.5 292.5,179.5C 291.933,181.982 291.266,184.316 290.5,186.5C 290.274,183.751 290.607,181.084 291.5,178.5C 311.489,177.5 331.489,177.167 351.5,177.5C 351.5,273.833 351.5,370.167 351.5,466.5C 326.328,466.831 301.328,466.498 276.5,465.5 Z"/></g>
<g><path style="opacity:0.613" fill="#000000" d="M 489.5,178.5 C 448.5,178.5 407.5,178.5 366.5,178.5C 366.5,230.833 366.5,283.167 366.5,335.5C 367.833,335.5 369.167,335.5 370.5,335.5C 369.359,336.339 368.026,337.006 366.5,337.5C 365.5,284.171 365.167,230.837 365.5,177.5C 407.003,177.168 448.337,177.501 489.5,178.5 Z"/></g>
<g><path style="opacity:0.534" fill="#000000" d="M 232.5,178.5 C 232.038,180.757 231.038,182.757 229.5,184.5C 229.833,184.833 230.167,185.167 230.5,185.5C 235.474,182.619 240.807,180.953 246.5,180.5C 239.516,182.239 233.016,185.239 227,189.5C 227.224,185.051 229.058,181.385 232.5,178.5 Z"/></g>
<g><path style="opacity:1" fill="#0a1357" d="M 276.5,465.5 C 275.508,465.672 274.842,465.338 274.5,464.5C 274.167,463.5 273.5,462.833 272.5,462.5C 271.658,457.213 271.324,451.88 271.5,446.5C 271.842,445.662 272.508,445.328 273.5,445.5C 275.38,445.771 276.713,445.104 277.5,443.5C 286.58,439.755 294.246,434.088 300.5,426.5C 306.671,422.003 311.338,416.336 314.5,409.5C 315.906,409.027 316.573,408.027 316.5,406.5C 318.588,404.664 319.921,402.331 320.5,399.5C 323.207,396.753 324.873,393.42 325.5,389.5C 326.931,388.22 327.598,386.553 327.5,384.5C 331.367,377.048 333.7,369.048 334.5,360.5C 336.092,348.225 336.758,335.892 336.5,323.5C 336.324,314.425 334.657,305.758 331.5,297.5C 330.197,289.585 327.531,282.251 323.5,275.5C 322.662,275.158 322.328,274.492 322.5,273.5C 322.206,270.246 320.873,267.579 318.5,265.5C 315.669,258.679 311.669,252.679 306.5,247.5C 302.5,241.5 297.5,236.5 291.5,232.5C 289.049,229.723 286.049,227.723 282.5,226.5C 281.089,224.461 279.089,223.461 276.5,223.5C 277.6,222.395 278.267,221.062 278.5,219.5C 279.906,219.027 280.573,218.027 280.5,216.5C 283.207,213.753 284.873,210.42 285.5,206.5C 287.074,204.898 287.741,202.898 287.5,200.5C 289.502,196.167 290.502,191.5 290.5,186.5C 291.266,184.316 291.933,181.982 292.5,179.5C 311.822,178.5 331.155,178.167 350.5,178.5C 350.5,274.167 350.5,369.833 350.5,465.5C 325.833,465.5 301.167,465.5 276.5,465.5 Z"/></g>
<g><path style="opacity:1" fill="#0a1357" d="M 489.5,178.5 C 489.5,183.167 489.5,187.833 489.5,192.5C 472.497,192.333 455.497,192.5 438.5,193C 437.584,193.278 436.918,193.778 436.5,194.5C 435.167,194.5 434.5,195.167 434.5,196.5C 434.672,197.492 434.338,198.158 433.5,198.5C 431.993,201.618 432.66,204.285 435.5,206.5C 436.058,207.79 437.058,208.623 438.5,209C 455.497,209.5 472.497,209.667 489.5,209.5C 489.5,232.167 489.5,254.833 489.5,277.5C 488.833,277.5 488.167,277.5 487.5,277.5C 484.6,274.214 480.933,272.214 476.5,271.5C 473.193,270.949 469.86,270.616 466.5,270.5C 463.772,270.171 461.438,270.837 459.5,272.5C 456.531,273.329 453.531,273.495 450.5,273C 446.481,271.328 442.814,269.161 439.5,266.5C 432.886,257.519 424.219,253.519 413.5,254.5C 404.685,255.668 398.018,260.002 393.5,267.5C 390.55,269.728 388.884,272.728 388.5,276.5C 388.737,277.791 388.404,278.791 387.5,279.5C 384.419,290.611 387.086,300.277 395.5,308.5C 398.287,312.411 400.287,316.745 401.5,321.5C 400.159,326.174 397.159,329.174 392.5,330.5C 384.822,331.166 377.489,332.833 370.5,335.5C 369.167,335.5 367.833,335.5 366.5,335.5C 366.5,283.167 366.5,230.833 366.5,178.5C 407.5,178.5 448.5,178.5 489.5,178.5 Z"/></g>
<g><path style="opacity:0.387" fill="#000000" d="M 246.5,180.5 C 253.985,179.068 261.318,179.735 268.5,182.5C 261.233,181.178 253.899,180.511 246.5,180.5 Z"/></g>
<g><path style="opacity:0.498" fill="#000000" d="M 188.5,190.5 C 182.283,187.558 175.949,184.891 169.5,182.5C 162.783,184.025 160.783,188.025 163.5,194.5C 162.883,194.389 162.383,194.056 162,193.5C 160.5,184.333 164.333,180.5 173.5,182C 178.887,184.354 183.887,187.188 188.5,190.5 Z"/></g>
<g><path style="opacity:0.578" fill="#000000" d="M 199.5,181.5 C 201.914,182.911 203.581,184.911 204.5,187.5C 202.086,186.089 200.419,184.089 199.5,181.5 Z"/></g>
<g><path style="opacity:0.448" fill="#000000" d="M 268.5,182.5 C 270.167,182.5 271.833,182.5 273.5,182.5C 273.435,185.428 272.768,188.095 271.5,190.5C 271.318,188.409 271.652,186.409 272.5,184.5C 271.051,183.828 269.718,183.161 268.5,182.5 Z"/></g>
<g><path style="opacity:0.498" fill="#000000" d="M 290.5,186.5 C 290.502,191.5 289.502,196.167 287.5,200.5C 288.01,195.609 289.01,190.942 290.5,186.5 Z"/></g>
<g><path style="opacity:0.477" fill="#000000" d="M 147.5,187.5 C 149.072,190.215 150.072,193.215 150.5,196.5C 148.528,193.916 147.528,190.916 147.5,187.5 Z"/></g>
<g><path style="opacity:1" fill="#0a1357" d="M 99.5,189.5 C 104.947,191.277 110.614,192.61 116.5,193.5C 121.5,195.943 126.834,197.61 132.5,198.5C 134.684,202.881 137.35,206.881 140.5,210.5C 140.738,212.404 141.738,213.738 143.5,214.5C 144.048,216.394 145.048,218.06 146.5,219.5C 138.284,223.73 130.951,229.063 124.5,235.5C 124.5,236.167 124.167,236.5 123.5,236.5C 120.167,237.833 117.833,240.167 116.5,243.5C 116.5,244.167 116.167,244.5 115.5,244.5C 113.086,245.911 111.419,247.911 110.5,250.5C 105.331,255.679 101.331,261.679 98.5,268.5C 98.6716,269.492 98.3382,270.158 97.5,270.5C 95.461,271.911 94.461,273.911 94.5,276.5C 92.7073,278.426 91.7073,280.759 91.5,283.5C 88.3241,289.365 86.3241,295.699 85.5,302.5C 82.7193,312.504 81.3859,322.837 81.5,333.5C 81.3247,346.975 83.3247,359.975 87.5,372.5C 87.5405,375.881 87.2071,379.214 86.5,382.5C 84.7329,384.792 83.7329,387.458 83.5,390.5C 81.7329,392.792 80.7329,395.458 80.5,398.5C 77.929,403.537 75.929,408.871 74.5,414.5C 73.0687,415.78 72.4021,417.447 72.5,419.5C 70.5968,422.53 69.2635,425.863 68.5,429.5C 66.1749,434.123 63.8416,438.789 61.5,443.5C 59.0905,444.701 57.0905,446.367 55.5,448.5C 55.1583,449.338 54.4916,449.672 53.5,449.5C 45.9156,451.257 38.5823,450.59 31.5,447.5C 27.6989,444.042 24.6989,440.042 22.5,435.5C 22.2264,428.77 22.7264,422.103 24,415.5C 24.8159,416.823 25.9826,417.489 27.5,417.5C 33.6312,423.913 40.9645,426.913 49.5,426.5C 52.2919,426.548 54.1253,425.215 55,422.5C 55.6667,420.167 55.6667,417.833 55,415.5C 54.5776,413.574 53.4109,412.574 51.5,412.5C 44.3921,409.776 38.0588,405.776 32.5,400.5C 29.9644,395.768 28.2977,390.768 27.5,385.5C 27.1936,382.615 27.5269,379.948 28.5,377.5C 29.29,376.391 29.79,375.058 30,373.5C 30.6708,374.252 31.5041,374.586 32.5,374.5C 33.9923,377.323 36.3257,378.99 39.5,379.5C 40.287,381.104 41.6203,381.771 43.5,381.5C 44.7804,382.931 46.4471,383.598 48.5,383.5C 50.4021,385.151 52.4021,385.484 54.5,384.5C 57.0336,384.741 58.7002,383.741 59.5,381.5C 61.9784,378.47 62.1451,375.137 60,371.5C 58.005,369.253 55.505,368.253 52.5,368.5C 49.669,366.583 46.669,364.917 43.5,363.5C 38.5745,358.31 35.2412,352.31 33.5,345.5C 32.1667,344.5 32.1667,343.5 33.5,342.5C 34.3741,337.038 35.7075,331.704 37.5,326.5C 39.3129,329.647 41.9796,331.647 45.5,332.5C 48.5464,335.357 52.2131,337.19 56.5,338C 58.7116,338.789 60.7116,338.622 62.5,337.5C 64.0269,337.573 65.0269,336.906 65.5,335.5C 69.4824,331.182 69.1491,327.015 64.5,323C 60.3692,321.765 56.3692,320.265 52.5,318.5C 51.7377,316.738 50.4044,315.738 48.5,315.5C 47.8333,315.5 47.5,315.167 47.5,314.5C 46.2141,311.883 44.5475,309.55 42.5,307.5C 40.9592,302.636 40.2925,297.636 40.5,292.5C 41.5522,288.348 42.3855,284.015 43,279.5C 45.2787,282.381 48.112,284.381 51.5,285.5C 54.4809,288.488 58.1476,290.154 62.5,290.5C 64.9664,291.634 67.633,291.801 70.5,291C 71.056,290.617 71.3893,290.117 71.5,289.5C 72.4584,289.047 73.2917,288.381 74,287.5C 75.4432,282.788 74.2765,278.955 70.5,276C 66.3692,274.765 62.3692,273.265 58.5,271.5C 54.7602,267.767 51.4268,263.767 48.5,259.5C 47.9893,256.367 47.656,253.2 47.5,250C 48.3087,242.841 48.9754,235.674 49.5,228.5C 49.5319,223.609 50.1985,218.943 51.5,214.5C 52.4916,208.867 54.4916,203.533 57.5,198.5C 57.5,197.833 57.8333,197.5 58.5,197.5C 61.8413,195.497 65.1747,193.497 68.5,191.5C 78.6489,187.416 88.9822,186.749 99.5,189.5 Z"/></g>
<g><path style="opacity:0.507" fill="#000000" d="M 99.5,189.5 C 105.528,189.758 111.194,191.092 116.5,193.5C 110.614,192.61 104.947,191.277 99.5,189.5 Z"/></g>
<g><path style="opacity:0.504" fill="#000000" d="M 188.5,190.5 C 190.674,190.75 192.341,191.75 193.5,193.5C 191.326,193.25 189.659,192.25 188.5,190.5 Z"/></g>
<g><path style="opacity:0.54" fill="#000000" d="M 271.5,190.5 C 271.013,196.291 269.346,201.624 266.5,206.5C 267.796,200.95 269.463,195.617 271.5,190.5 Z"/></g>
<g><path style="opacity:0.539" fill="#000000" d="M 68.5,191.5 C 65.1747,193.497 61.8413,195.497 58.5,197.5C 60.8733,193.977 64.2066,191.977 68.5,191.5 Z"/></g>
<g><path style="opacity:0.653" fill="#000000" d="M 489.5,192.5 C 471.974,193.206 454.307,193.873 436.5,194.5C 436.918,193.778 437.584,193.278 438.5,193C 455.497,192.5 472.497,192.333 489.5,192.5 Z"/></g>
<g><path style="opacity:0.532" fill="#000000" d="M 116.5,193.5 C 122.166,194.39 127.5,196.057 132.5,198.5C 126.834,197.61 121.5,195.943 116.5,193.5 Z"/></g>
<g><path style="opacity:0.535" fill="#000000" d="M 193.5,193.5 C 196.198,193.845 198.198,195.178 199.5,197.5C 197.147,196.66 195.147,195.326 193.5,193.5 Z"/></g>
<g><path style="opacity:0.603" fill="#000000" d="M 436.5,194.5 C 436.167,195.5 435.5,196.167 434.5,196.5C 434.5,195.167 435.167,194.5 436.5,194.5 Z"/></g>
<g><path style="opacity:0.523" fill="#000000" d="M 164.5,195.5 C 170.65,197.74 176.316,200.74 181.5,204.5C 175.35,202.26 169.684,199.26 164.5,195.5 Z"/></g>
<g><path style="opacity:0.495" fill="#000000" d="M 150.5,196.5 C 152.83,200.492 155.163,204.492 157.5,208.5C 153.638,205.45 151.305,201.45 150.5,196.5 Z"/></g>
<g><path style="opacity:0.546" fill="#000000" d="M 199.5,197.5 C 201.394,198.048 203.06,199.048 204.5,200.5C 202.857,205.071 201.524,209.738 200.5,214.5C 202.638,216.735 204.971,218.735 207.5,220.5C 203.625,219.916 200.958,217.916 199.5,214.5C 200.264,210.277 201.264,206.111 202.5,202C 201.685,200.357 200.685,198.857 199.5,197.5 Z"/></g>
<g><path style="opacity:0.524" fill="#000000" d="M 57.5,198.5 C 54.4916,203.533 52.4916,208.867 51.5,214.5C 50.9617,208.103 52.9617,202.77 57.5,198.5 Z"/></g>
<g><path style="opacity:0.546" fill="#000000" d="M 132.5,198.5 C 133.496,198.414 134.329,198.748 135,199.5C 136.86,203.22 138.693,206.886 140.5,210.5C 137.35,206.881 134.684,202.881 132.5,198.5 Z"/></g>
<g><path style="opacity:0.538" fill="#000000" d="M 433.5,198.5 C 433.584,201.327 434.25,203.994 435.5,206.5C 432.66,204.285 431.993,201.618 433.5,198.5 Z"/></g>
<g><path style="opacity:0.534" fill="#000000" d="M 287.5,200.5 C 287.741,202.898 287.074,204.898 285.5,206.5C 285.595,204.214 286.262,202.214 287.5,200.5 Z"/></g>
<g><path style="opacity:0.517" fill="#000000" d="M 181.5,204.5 C 183.674,204.75 185.341,205.75 186.5,207.5C 184.326,207.25 182.659,206.25 181.5,204.5 Z"/></g>
<g><path style="opacity:0.472" fill="#000000" d="M 266.5,206.5 C 266.771,208.38 266.104,209.713 264.5,210.5C 264.66,208.847 265.326,207.514 266.5,206.5 Z"/></g>
<g><path style="opacity:0.472" fill="#000000" d="M 285.5,206.5 C 284.873,210.42 283.207,213.753 280.5,216.5C 281.659,212.849 283.326,209.515 285.5,206.5 Z"/></g>
<g><path style="opacity:0.707" fill="#000000" d="M 435.5,206.5 C 436.922,206.709 438.255,207.209 439.5,208C 456.338,208.168 473.005,208.668 489.5,209.5C 472.497,209.667 455.497,209.5 438.5,209C 437.058,208.623 436.058,207.79 435.5,206.5 Z"/></g>
<g><path style="opacity:0.481" fill="#000000" d="M 186.5,207.5 C 188.027,207.427 189.027,208.094 189.5,209.5C 187.973,209.573 186.973,208.906 186.5,207.5 Z"/></g>
<g><path style="opacity:0.346" fill="#000000" d="M 157.5,208.5 C 159.167,209.5 160.5,210.833 161.5,212.5C 159.167,212.167 157.833,210.833 157.5,208.5 Z"/></g>
<g><path style="opacity:0.425" fill="#000000" d="M 189.5,209.5 C 192.958,210.735 195.958,212.735 198.5,215.5C 196.308,216.439 194.308,216.105 192.5,214.5C 193.239,214.631 193.906,214.464 194.5,214C 192.382,212.951 190.716,211.451 189.5,209.5 Z"/></g>
<g><path style="opacity:0.507" fill="#000000" d="M 140.5,210.5 C 142.262,211.262 143.262,212.596 143.5,214.5C 141.738,213.738 140.738,212.404 140.5,210.5 Z"/></g>
<g><path style="opacity:0.558" fill="#000000" d="M 264.5,210.5 C 263.866,213.643 262.2,216.143 259.5,218C 250.112,218.336 240.779,219.17 231.5,220.5C 234.903,219.075 238.57,218.242 242.5,218C 247.833,217.667 253.167,217.333 258.5,217C 260.734,214.937 262.734,212.771 264.5,210.5 Z"/></g>
<g><path style="opacity:0.403" fill="#000000" d="M 161.5,212.5 C 170.252,212.316 178.918,212.649 187.5,213.5C 179.967,213.252 172.467,213.585 165,214.5C 163.301,214.613 162.134,213.947 161.5,212.5 Z"/></g>
<g><path style="opacity:0.488" fill="#000000" d="M 143.5,214.5 C 146.073,215.879 147.573,217.879 148,220.5C 139.73,224.961 131.896,229.961 124.5,235.5C 130.951,229.063 138.284,223.73 146.5,219.5C 145.048,218.06 144.048,216.394 143.5,214.5 Z"/></g>
<g><path style="opacity:0.46" fill="#000000" d="M 280.5,216.5 C 280.573,218.027 279.906,219.027 278.5,219.5C 278.427,217.973 279.094,216.973 280.5,216.5 Z"/></g>
<g><path style="opacity:0.475" fill="#000000" d="M 278.5,219.5 C 278.267,221.062 277.6,222.395 276.5,223.5C 275.527,221.708 276.194,220.375 278.5,219.5 Z"/></g>
<g><path style="opacity:0.505" fill="#000000" d="M 207.5,220.5 C 210.198,220.845 212.198,222.178 213.5,224.5C 211.147,223.66 209.147,222.326 207.5,220.5 Z"/></g>
<g><path style="opacity:0.451" fill="#000000" d="M 231.5,220.5 C 229.485,221.924 227.152,222.59 224.5,222.5C 226.515,221.076 228.848,220.41 231.5,220.5 Z"/></g>
<g><path style="opacity:0.521" fill="#000000" d="M 224.5,222.5 C 221.898,224.101 219.064,225.435 216,226.5C 214.699,226.361 213.866,225.695 213.5,224.5C 214.496,224.414 215.329,224.748 216,225.5C 218.587,223.804 221.421,222.804 224.5,222.5 Z"/></g>
<g><path style="opacity:0.587" fill="#000000" d="M 276.5,223.5 C 279.089,223.461 281.089,224.461 282.5,226.5C 280.181,226.008 278.181,225.008 276.5,223.5 Z"/></g>
<g><path style="opacity:0.494" fill="#000000" d="M 282.5,226.5 C 286.049,227.723 289.049,229.723 291.5,232.5C 287.975,231.241 284.975,229.241 282.5,226.5 Z"/></g>
<g><path style="opacity:0.376" fill="#000000" d="M 183.5,228.5 C 176.761,228.512 170.095,229.179 163.5,230.5C 169.993,227.728 176.66,227.062 183.5,228.5 Z"/></g>
<g><path style="opacity:0.53" fill="#000000" d="M 49.5,228.5 C 48.9754,235.674 48.3087,242.841 47.5,250C 47.656,253.2 47.9893,256.367 48.5,259.5C 47.7784,259.082 47.2784,258.416 47,257.5C 46.1382,247.556 46.9715,237.889 49.5,228.5 Z"/></g>
<g><path style="opacity:1" fill="#0a1357" d="M 183.5,228.5 C 186.273,229.657 189.273,230.324 192.5,230.5C 195.999,232.75 199.665,234.75 203.5,236.5C 210.343,245.144 218.01,245.811 226.5,238.5C 231.049,237.537 235.383,236.204 239.5,234.5C 241.607,233.532 243.941,233.198 246.5,233.5C 251.152,233.998 255.819,234.331 260.5,234.5C 265.424,236.48 270.424,238.48 275.5,240.5C 277.147,242.326 279.147,243.66 281.5,244.5C 285.5,249.167 289.833,253.5 294.5,257.5C 294.738,259.404 295.738,260.738 297.5,261.5C 298.34,263.853 299.674,265.853 301.5,267.5C 302.41,270.992 304.076,273.992 306.5,276.5C 307.338,276.842 307.672,277.508 307.5,278.5C 308.648,282.787 310.315,286.787 312.5,290.5C 313.796,296.05 315.463,301.383 317.5,306.5C 317.42,309.781 318.087,312.781 319.5,315.5C 321.493,333.355 320.493,351.021 316.5,368.5C 314.459,372.952 312.792,377.618 311.5,382.5C 308.992,386.182 306.992,390.182 305.5,394.5C 302.197,398.651 299.03,402.985 296,407.5C 291.297,412.035 286.797,416.702 282.5,421.5C 280.596,421.738 279.262,422.738 278.5,424.5C 276.973,424.427 275.973,425.094 275.5,426.5C 273.326,426.75 271.659,427.75 270.5,429.5C 269.486,430.674 268.153,431.34 266.5,431.5C 259.805,433.735 253.138,435.735 246.5,437.5C 240.167,438.833 233.833,438.833 227.5,437.5C 224.411,436.215 221.078,435.549 217.5,435.5C 210.326,431.379 203.326,431.712 196.5,436.5C 180.535,439.06 165.202,437.06 150.5,430.5C 148.664,428.412 146.331,427.079 143.5,426.5C 143.027,425.094 142.027,424.427 140.5,424.5C 139.738,422.738 138.404,421.738 136.5,421.5C 132.167,416.5 127.5,411.833 122.5,407.5C 119.883,402.886 116.883,398.553 113.5,394.5C 112.008,390.182 110.008,386.182 107.5,382.5C 107.598,380.447 106.931,378.78 105.5,377.5C 105.072,374.215 104.072,371.215 102.5,368.5C 102.435,365.572 101.768,362.905 100.5,360.5C 99.5489,359.081 99.2155,357.415 99.5,355.5C 98.6563,343.187 98.3229,330.854 98.5,318.5C 100.067,312.337 101.401,306.004 102.5,299.5C 105.02,294.443 107.02,289.109 108.5,283.5C 110.008,281.819 111.008,279.819 111.5,277.5C 111.328,276.508 111.662,275.842 112.5,275.5C 114.25,274.341 115.25,272.674 115.5,270.5C 117.326,268.853 118.66,266.853 119.5,264.5C 121.262,263.738 122.262,262.404 122.5,260.5C 124.914,259.089 126.581,257.089 127.5,254.5C 127.5,253.833 127.833,253.5 128.5,253.5C 130.5,252.167 132.167,250.5 133.5,248.5C 133.5,247.833 133.833,247.5 134.5,247.5C 137.089,246.581 139.089,244.914 140.5,242.5C 144.439,240.554 148.106,238.221 151.5,235.5C 153.153,235.34 154.486,234.674 155.5,233.5C 157.553,233.598 159.22,232.931 160.5,231.5C 161.209,230.596 162.209,230.263 163.5,230.5C 170.095,229.179 176.761,228.512 183.5,228.5 Z M 152.5,286.5 C 148.468,286.814 145.135,285.481 142.5,282.5C 142.365,273.15 146.532,270.483 155,274.5C 157.489,279.243 156.655,283.243 152.5,286.5 Z M 132.5,304.5 C 129.833,305.833 127.167,305.833 124.5,304.5C 119.48,297.922 120.813,293.256 128.5,290.5C 136.008,293.368 137.342,298.034 132.5,304.5 Z M 165.5,302.5 C 166.146,310.861 162.48,314.195 154.5,312.5C 149.658,306.034 150.992,301.368 158.5,298.5C 161.313,299.071 163.646,300.404 165.5,302.5 Z"/></g>
<g><path style="opacity:0.563" fill="#000000" d="M 183.5,228.5 C 186.829,228.215 189.829,228.882 192.5,230.5C 189.273,230.324 186.273,229.657 183.5,228.5 Z"/></g>
<g><path style="opacity:0.519" fill="#000000" d="M 192.5,230.5 C 196.933,231.214 200.6,233.214 203.5,236.5C 199.665,234.75 195.999,232.75 192.5,230.5 Z"/></g>
<g><path style="opacity:0.527" fill="#000000" d="M 160.5,231.5 C 159.22,232.931 157.553,233.598 155.5,233.5C 156.78,232.069 158.447,231.402 160.5,231.5 Z"/></g>
<g><path style="opacity:0.348" fill="#000000" d="M 246.5,233.5 C 251.213,232.503 255.88,232.837 260.5,234.5C 255.819,234.331 251.152,233.998 246.5,233.5 Z"/></g>
<g><path style="opacity:0.447" fill="#000000" d="M 291.5,232.5 C 297.5,236.5 302.5,241.5 306.5,247.5C 301.167,242.833 296.167,237.833 291.5,232.5 Z"/></g>
<g><path style="opacity:0.43" fill="#000000" d="M 155.5,233.5 C 154.486,234.674 153.153,235.34 151.5,235.5C 152.287,233.896 153.62,233.229 155.5,233.5 Z"/></g>
<g><path style="opacity:0.525" fill="#000000" d="M 239.5,234.5 C 235.383,236.204 231.049,237.537 226.5,238.5C 230.378,235.987 234.711,234.654 239.5,234.5 Z"/></g>
<g><path style="opacity:0.508" fill="#000000" d="M 260.5,234.5 C 266.22,234.956 271.22,236.956 275.5,240.5C 270.424,238.48 265.424,236.48 260.5,234.5 Z"/></g>
<g><path style="opacity:0.512" fill="#000000" d="M 151.5,235.5 C 148.106,238.221 144.439,240.554 140.5,242.5C 143.358,238.99 147.024,236.657 151.5,235.5 Z"/></g>
<g><path style="opacity:0.659" fill="#000000" d="M 123.5,236.5 C 121.5,239.167 119.167,241.5 116.5,243.5C 117.833,240.167 120.167,237.833 123.5,236.5 Z"/></g>
<g><path style="opacity:0.536" fill="#000000" d="M 203.5,236.5 C 205.886,237.373 207.886,238.873 209.5,241C 211.034,241.923 212.701,242.423 214.5,242.5C 218.511,241.159 222.511,239.826 226.5,238.5C 218.01,245.811 210.343,245.144 203.5,236.5 Z"/></g>
<g><path style="opacity:0.511" fill="#000000" d="M 275.5,240.5 C 278.198,240.845 280.198,242.178 281.5,244.5C 279.147,243.66 277.147,242.326 275.5,240.5 Z"/></g>
<g><path style="opacity:0.518" fill="#000000" d="M 140.5,242.5 C 139.089,244.914 137.089,246.581 134.5,247.5C 135.911,245.086 137.911,243.419 140.5,242.5 Z"/></g>
<g><path style="opacity:0.467" fill="#000000" d="M 115.5,244.5 C 114.581,247.089 112.914,249.089 110.5,250.5C 111.419,247.911 113.086,245.911 115.5,244.5 Z"/></g>
<g><path style="opacity:0.538" fill="#000000" d="M 281.5,244.5 C 286.833,247.833 291.167,252.167 294.5,257.5C 289.833,253.5 285.5,249.167 281.5,244.5 Z"/></g>
<g><path style="opacity:0.493" fill="#000000" d="M 306.5,247.5 C 311.669,252.679 315.669,258.679 318.5,265.5C 314.115,259.777 310.115,253.777 306.5,247.5 Z"/></g>
<g><path style="opacity:0.332" fill="#000000" d="M 133.5,248.5 C 132.167,250.5 130.5,252.167 128.5,253.5C 129.167,250.833 130.833,249.167 133.5,248.5 Z"/></g>
<g><path style="opacity:0.498" fill="#000000" d="M 110.5,250.5 C 106.885,256.777 102.885,262.777 98.5,268.5C 101.331,261.679 105.331,255.679 110.5,250.5 Z"/></g>
<g><path style="opacity:0.503" fill="#000000" d="M 413.5,254.5 C 424.219,253.519 432.886,257.519 439.5,266.5C 434.737,262.275 429.404,258.775 423.5,256C 420.274,254.801 416.941,254.301 413.5,254.5 Z"/></g>
<g><path style="opacity:0.532" fill="#000000" d="M 127.5,254.5 C 126.581,257.089 124.914,259.089 122.5,260.5C 123.419,257.911 125.086,255.911 127.5,254.5 Z"/></g>
<g><path style="opacity:0.53" fill="#000000" d="M 413.5,254.5 C 405.82,257.163 399.153,261.496 393.5,267.5C 398.018,260.002 404.685,255.668 413.5,254.5 Z"/></g>
<g><path style="opacity:0.538" fill="#000000" d="M 294.5,257.5 C 296.262,258.262 297.262,259.596 297.5,261.5C 295.738,260.738 294.738,259.404 294.5,257.5 Z"/></g>
<g><path style="opacity:0.507" fill="#000000" d="M 48.5,259.5 C 51.4268,263.767 54.7602,267.767 58.5,271.5C 53.3352,269.004 50.0019,265.004 48.5,259.5 Z"/></g>
<g><path style="opacity:0.518" fill="#000000" d="M 122.5,260.5 C 122.262,262.404 121.262,263.738 119.5,264.5C 119.738,262.596 120.738,261.262 122.5,260.5 Z"/></g>
<g><path style="opacity:0.482" fill="#000000" d="M 297.5,261.5 C 299.822,262.802 301.155,264.802 301.5,267.5C 299.674,265.853 298.34,263.853 297.5,261.5 Z"/></g>
<g><path style="opacity:0.479" fill="#000000" d="M 119.5,264.5 C 118.66,266.853 117.326,268.853 115.5,270.5C 115.845,267.802 117.178,265.802 119.5,264.5 Z"/></g>
<g><path style="opacity:0.585" fill="#000000" d="M 318.5,265.5 C 320.873,267.579 322.206,270.246 322.5,273.5C 320.659,271.151 319.326,268.485 318.5,265.5 Z"/></g>
<g><path style="opacity:0.513" fill="#000000" d="M 439.5,266.5 C 442.814,269.161 446.481,271.328 450.5,273C 453.531,273.495 456.531,273.329 459.5,272.5C 451.346,276.009 444.68,274.009 439.5,266.5 Z"/></g>
<g><path style="opacity:0.542" fill="#000000" d="M 301.5,267.5 C 303.924,270.008 305.59,273.008 306.5,276.5C 304.076,273.992 302.41,270.992 301.5,267.5 Z"/></g>
<g><path style="opacity:0.515" fill="#000000" d="M 393.5,267.5 C 392.083,270.669 390.417,273.669 388.5,276.5C 388.884,272.728 390.55,269.728 393.5,267.5 Z"/></g>
<g><path style="opacity:0.499" fill="#000000" d="M 432.5,281.5 C 428.43,278.94 424.764,275.773 421.5,272C 415.122,269.92 409.956,271.754 406,277.5C 403.715,281.187 402.548,285.187 402.5,289.5C 401.253,280.513 404.92,274.013 413.5,270C 416.634,269.21 419.634,269.543 422.5,271C 426.037,274.369 429.371,277.869 432.5,281.5 Z"/></g>
<g><path style="opacity:0.579" fill="#000000" d="M 97.5,270.5 C 97.0075,272.819 96.0075,274.819 94.5,276.5C 94.461,273.911 95.461,271.911 97.5,270.5 Z"/></g>
<g><path style="opacity:0.501" fill="#000000" d="M 115.5,270.5 C 115.25,272.674 114.25,274.341 112.5,275.5C 112.75,273.326 113.75,271.659 115.5,270.5 Z"/></g>
<g><path style="opacity:1" fill="#0a1357" d="M 432.5,281.5 C 434.53,284.182 437.197,285.849 440.5,286.5C 444.018,288.966 448.018,289.966 452.5,289.5C 452.833,289.5 453.167,289.5 453.5,289.5C 458.312,290.035 462.645,289.035 466.5,286.5C 470.131,286.16 473.464,286.994 476.5,289C 480.379,292.425 484.379,295.591 488.5,298.5C 489.499,346.664 489.832,394.997 489.5,443.5C 488.197,451.095 484.53,457.429 478.5,462.5C 475.821,463.226 473.154,464.059 470.5,465C 435.835,465.5 401.168,465.667 366.5,465.5C 366.5,455.5 366.5,445.5 366.5,435.5C 378.171,435.667 389.838,435.5 401.5,435C 402.416,434.722 403.082,434.222 403.5,433.5C 404.833,433.5 405.5,432.833 405.5,431.5C 405.328,430.508 405.662,429.842 406.5,429.5C 407.622,427.712 407.789,425.712 407,423.5C 406.578,421.574 405.411,420.574 403.5,420.5C 403.082,419.778 402.416,419.278 401.5,419C 389.838,418.5 378.171,418.333 366.5,418.5C 366.5,413.833 366.5,409.167 366.5,404.5C 377.838,404.667 389.172,404.5 400.5,404C 402.32,403.8 403.653,402.966 404.5,401.5C 405.906,401.027 406.573,400.027 406.5,398.5C 408.461,393.899 407.128,390.399 402.5,388C 390.505,387.5 378.505,387.333 366.5,387.5C 366.5,377.5 366.5,367.5 366.5,357.5C 367.596,355.897 368.93,354.397 370.5,353C 381.679,349.96 392.679,346.794 403.5,343.5C 403.842,342.662 404.508,342.328 405.5,342.5C 411.167,340.167 415.167,336.167 417.5,330.5C 418.222,330.082 418.722,329.416 419,328.5C 419.667,324.167 419.667,319.833 419,315.5C 418.8,313.68 417.966,312.347 416.5,311.5C 416.25,309.326 415.25,307.659 413.5,306.5C 413.262,304.596 412.262,303.262 410.5,302.5C 410.262,300.596 409.262,299.262 407.5,298.5C 406.083,295.331 404.417,292.331 402.5,289.5C 402.548,285.187 403.715,281.187 406,277.5C 409.956,271.754 415.122,269.92 421.5,272C 424.764,275.773 428.43,278.94 432.5,281.5 Z"/></g>
<g><path style="opacity:0.474" fill="#000000" d="M 466.5,270.5 C 464.401,271.612 462.067,272.279 459.5,272.5C 461.438,270.837 463.772,270.171 466.5,270.5 Z"/></g>
<g><path style="opacity:0.486" fill="#000000" d="M 58.5,271.5 C 62.3692,273.265 66.3692,274.765 70.5,276C 74.2765,278.955 75.4432,282.788 74,287.5C 73.2917,288.381 72.4584,289.047 71.5,289.5C 74.6769,284.728 74.0103,280.561 69.5,277C 65.2131,276.19 61.5464,274.357 58.5,271.5 Z"/></g>
<g><path style="opacity:0.465" fill="#000000" d="M 152.5,286.5 C 156.655,283.243 157.489,279.243 155,274.5C 146.532,270.483 142.365,273.15 142.5,282.5C 140.188,273.315 143.854,269.815 153.5,272C 156.516,273.529 157.849,276.029 157.5,279.5C 157.75,283.244 156.083,285.578 152.5,286.5 Z"/></g>
<g><path style="opacity:0.461" fill="#000000" d="M 476.5,271.5 C 480.933,272.214 484.6,274.214 487.5,277.5C 483.665,275.75 479.999,273.75 476.5,271.5 Z"/></g>
<g><path style="opacity:0.509" fill="#000000" d="M 323.5,275.5 C 327.531,282.251 330.197,289.585 331.5,297.5C 328.656,290.306 325.989,282.973 323.5,275.5 Z"/></g>
<g><path style="opacity:0.452" fill="#000000" d="M 94.5,276.5 C 94.2927,279.241 93.2927,281.574 91.5,283.5C 91.7073,280.759 92.7073,278.426 94.5,276.5 Z"/></g>
<g><path style="opacity:0.458" fill="#000000" d="M 51.5,285.5 C 48.112,284.381 45.2787,282.381 43,279.5C 42.3855,284.015 41.5522,288.348 40.5,292.5C 40.4291,287.4 41.0958,282.4 42.5,277.5C 45.5454,280.218 48.5454,282.884 51.5,285.5 Z"/></g>
<g><path style="opacity:0.407" fill="#000000" d="M 111.5,277.5 C 111.008,279.819 110.008,281.819 108.5,283.5C 108.461,280.911 109.461,278.911 111.5,277.5 Z"/></g>
<g><path style="opacity:0.473" fill="#000000" d="M 487.5,277.5 C 488.167,277.5 488.833,277.5 489.5,277.5C 489.214,279.933 488.548,279.933 487.5,277.5 Z"/></g>
<g><path style="opacity:0.512" fill="#000000" d="M 307.5,278.5 C 310.237,281.983 311.903,285.983 312.5,290.5C 310.315,286.787 308.648,282.787 307.5,278.5 Z"/></g>
<g><path style="opacity:0.51" fill="#000000" d="M 387.5,279.5 C 387.656,282.066 387.322,284.566 386.5,287C 388.016,294.857 391.016,302.023 395.5,308.5C 387.086,300.277 384.419,290.611 387.5,279.5 Z"/></g>
<g><path style="opacity:0.52" fill="#000000" d="M 432.5,281.5 C 435.511,282.669 438.178,284.336 440.5,286.5C 437.197,285.849 434.53,284.182 432.5,281.5 Z"/></g>
<g><path style="opacity:0.487" fill="#000000" d="M 142.5,282.5 C 145.135,285.481 148.468,286.814 152.5,286.5C 147.878,288.501 144.545,287.168 142.5,282.5 Z"/></g>
<g><path style="opacity:0.461" fill="#000000" d="M 91.5,283.5 C 89.8704,290.051 87.8704,296.384 85.5,302.5C 86.3241,295.699 88.3241,289.365 91.5,283.5 Z"/></g>
<g><path style="opacity:0.502" fill="#000000" d="M 108.5,283.5 C 107.02,289.109 105.02,294.443 102.5,299.5C 103.415,293.686 105.415,288.353 108.5,283.5 Z"/></g>
<g><path style="opacity:0.497" fill="#000000" d="M 51.5,285.5 C 55.3544,286.93 59.0211,288.597 62.5,290.5C 58.1476,290.154 54.4809,288.488 51.5,285.5 Z"/></g>
<g><path style="opacity:0.511" fill="#000000" d="M 466.5,286.5 C 470.265,285.06 473.932,285.56 477.5,288C 481.624,291.055 485.291,294.555 488.5,298.5C 484.379,295.591 480.379,292.425 476.5,289C 473.464,286.994 470.131,286.16 466.5,286.5 Z"/></g>
<g><path style="opacity:0.392" fill="#000000" d="M 440.5,286.5 C 444.614,287.51 448.614,288.51 452.5,289.5C 448.018,289.966 444.018,288.966 440.5,286.5 Z"/></g>
<g><path style="opacity:0.441" fill="#000000" d="M 466.5,286.5 C 462.645,289.035 458.312,290.035 453.5,289.5C 457.737,288.599 462.07,287.599 466.5,286.5 Z"/></g>
<g><path style="opacity:0.474" fill="#000000" d="M 71.5,289.5 C 71.3893,290.117 71.056,290.617 70.5,291C 67.633,291.801 64.9664,291.634 62.5,290.5C 65.5701,290.632 68.5701,290.299 71.5,289.5 Z"/></g>
<g><path style="opacity:0.495" fill="#000000" d="M 132.5,304.5 C 137.342,298.034 136.008,293.368 128.5,290.5C 120.813,293.256 119.48,297.922 124.5,304.5C 122.589,304.426 121.422,303.426 121,301.5C 119.68,291.488 123.846,287.988 133.5,291C 136.265,293.995 137.098,297.495 136,301.5C 135.578,303.426 134.411,304.426 132.5,304.5 Z"/></g>
<g><path style="opacity:0.535" fill="#000000" d="M 402.5,289.5 C 404.417,292.331 406.083,295.331 407.5,298.5C 404.55,296.272 402.884,293.272 402.5,289.5 Z"/></g>
<g><path style="opacity:0.497" fill="#000000" d="M 312.5,290.5 C 315.343,295.367 317.009,300.7 317.5,306.5C 315.463,301.383 313.796,296.05 312.5,290.5 Z"/></g>
<g><path style="opacity:0.422" fill="#000000" d="M 40.5,292.5 C 40.2925,297.636 40.9592,302.636 42.5,307.5C 41.207,306.158 40.3736,304.491 40,302.5C 39.1925,298.973 39.3592,295.64 40.5,292.5 Z"/></g>
<g><path style="opacity:0.535" fill="#000000" d="M 165.5,302.5 C 163.646,300.404 161.313,299.071 158.5,298.5C 150.992,301.368 149.658,306.034 154.5,312.5C 151.564,311.485 150.231,309.318 150.5,306C 151.107,299.192 154.773,296.526 161.5,298C 163.751,298.748 165.084,300.248 165.5,302.5 Z"/></g>
<g><path style="opacity:0.505" fill="#000000" d="M 331.5,297.5 C 334.657,305.758 336.324,314.425 336.5,323.5C 334.851,314.956 333.184,306.289 331.5,297.5 Z"/></g>
<g><path style="opacity:0.525" fill="#000000" d="M 407.5,298.5 C 409.262,299.262 410.262,300.596 410.5,302.5C 408.738,301.738 407.738,300.404 407.5,298.5 Z"/></g>
<g><path style="opacity:0.505" fill="#000000" d="M 102.5,299.5 C 101.401,306.004 100.067,312.337 98.5,318.5C 98.575,311.786 99.9083,305.452 102.5,299.5 Z"/></g>
<g><path style="opacity:0.538" fill="#000000" d="M 85.5,302.5 C 81.0825,325.981 81.7492,349.315 87.5,372.5C 83.3247,359.975 81.3247,346.975 81.5,333.5C 81.3859,322.837 82.7193,312.504 85.5,302.5 Z"/></g>
<g><path style="opacity:0.514" fill="#000000" d="M 165.5,302.5 C 167.864,309.096 165.53,313.096 158.5,314.5C 156.829,314.332 155.496,313.665 154.5,312.5C 162.48,314.195 166.146,310.861 165.5,302.5 Z"/></g>
<g><path style="opacity:0.535" fill="#000000" d="M 410.5,302.5 C 412.262,303.262 413.262,304.596 413.5,306.5C 411.738,305.738 410.738,304.404 410.5,302.5 Z"/></g>
<g><path style="opacity:0.601" fill="#000000" d="M 124.5,304.5 C 127.167,305.833 129.833,305.833 132.5,304.5C 129.833,307.167 127.167,307.167 124.5,304.5 Z"/></g>
<g><path style="opacity:0.542" fill="#000000" d="M 317.5,306.5 C 318.913,309.219 319.58,312.219 319.5,315.5C 318.087,312.781 317.42,309.781 317.5,306.5 Z"/></g>
<g><path style="opacity:0.448" fill="#000000" d="M 413.5,306.5 C 415.25,307.659 416.25,309.326 416.5,311.5C 414.75,310.341 413.75,308.674 413.5,306.5 Z"/></g>
<g><path style="opacity:0.587" fill="#000000" d="M 42.5,307.5 C 44.5475,309.55 46.2141,311.883 47.5,314.5C 44.6769,313.008 43.0102,310.674 42.5,307.5 Z"/></g>
<g><path style="opacity:0.572" fill="#000000" d="M 395.5,308.5 C 399.407,311.964 402.074,316.298 403.5,321.5C 401.907,327.097 398.24,330.097 392.5,330.5C 397.159,329.174 400.159,326.174 401.5,321.5C 400.287,316.745 398.287,312.411 395.5,308.5 Z"/></g>
<g><path style="opacity:0.417" fill="#000000" d="M 416.5,311.5 C 417.966,312.347 418.8,313.68 419,315.5C 419.667,319.833 419.667,324.167 419,328.5C 418.722,329.416 418.222,330.082 417.5,330.5C 419.035,324.054 418.701,317.72 416.5,311.5 Z"/></g>
<g><path style="opacity:0.549" fill="#000000" d="M 48.5,315.5 C 50.4044,315.738 51.7377,316.738 52.5,318.5C 50.5956,318.262 49.2623,317.262 48.5,315.5 Z"/></g>
<g><path style="opacity:0.549" fill="#000000" d="M 319.5,315.5 C 320.309,317.292 320.809,319.292 321,321.5C 321.667,330.833 321.667,340.167 321,349.5C 320.435,356.182 318.935,362.515 316.5,368.5C 320.493,351.021 321.493,333.355 319.5,315.5 Z"/></g>
<g><path style="opacity:0.489" fill="#000000" d="M 52.5,318.5 C 56.3692,320.265 60.3692,321.765 64.5,323C 69.1491,327.015 69.4824,331.182 65.5,335.5C 67.1778,332.422 67.3445,329.422 66,326.5C 61.3997,323.92 56.8997,321.254 52.5,318.5 Z"/></g>
<g><path style="opacity:0.581" fill="#000000" d="M 98.5,318.5 C 98.3229,330.854 98.6563,343.187 99.5,355.5C 97.9607,348.568 97.294,341.402 97.5,334C 97.5006,328.656 97.834,323.489 98.5,318.5 Z"/></g>
<g><path style="opacity:0.545" fill="#000000" d="M 37.5,326.5 C 35.7075,331.704 34.3741,337.038 33.5,342.5C 33.5403,336.385 34.3736,330.385 36,324.5C 36.7172,325.044 37.2172,325.711 37.5,326.5 Z"/></g>
<g><path style="opacity:0.475" fill="#000000" d="M 37.5,326.5 C 40.4549,328.122 43.1215,330.122 45.5,332.5C 41.9796,331.647 39.3129,329.647 37.5,326.5 Z"/></g>
<g><path style="opacity:0.482" fill="#000000" d="M 392.5,330.5 C 385.395,332.657 378.061,334.324 370.5,335.5C 377.489,332.833 384.822,331.166 392.5,330.5 Z"/></g>
<g><path style="opacity:0.407" fill="#000000" d="M 417.5,330.5 C 415.167,336.167 411.167,340.167 405.5,342.5C 409.833,338.833 413.833,334.833 417.5,330.5 Z"/></g>
<g><path style="opacity:0.556" fill="#000000" d="M 45.5,332.5 C 50.864,335.177 56.5307,336.843 62.5,337.5C 60.7116,338.622 58.7116,338.789 56.5,338C 52.2131,337.19 48.5464,335.357 45.5,332.5 Z"/></g>
<g><path style="opacity:0.355" fill="#000000" d="M 65.5,335.5 C 65.0269,336.906 64.0269,337.573 62.5,337.5C 62.9731,336.094 63.9731,335.427 65.5,335.5 Z"/></g>
<g><path style="opacity:0.514" fill="#000000" d="M 403.5,343.5 C 392.679,346.794 381.679,349.96 370.5,353C 368.93,354.397 367.596,355.897 366.5,357.5C 366.393,355.097 367.393,353.264 369.5,352C 380.688,348.536 392.022,345.703 403.5,343.5 Z"/></g>
<g><path style="opacity:0.493" fill="#000000" d="M 33.5,345.5 C 35.2412,352.31 38.5745,358.31 43.5,363.5C 40.5722,362.409 38.4055,360.409 37,357.5C 34.3694,353.911 33.2028,349.911 33.5,345.5 Z"/></g>
<g><path style="opacity:0.486" fill="#000000" d="M 366.5,357.5 C 366.5,367.5 366.5,377.5 366.5,387.5C 378.505,387.333 390.505,387.5 402.5,388C 407.128,390.399 408.461,393.899 406.5,398.5C 407.057,394.112 405.39,390.945 401.5,389C 389.505,388.5 377.505,388.333 365.5,388.5C 365.172,377.986 365.506,367.653 366.5,357.5 Z"/></g>
<g><path style="opacity:0.501" fill="#000000" d="M 100.5,360.5 C 101.768,362.905 102.435,365.572 102.5,368.5C 100.96,366.162 100.294,363.495 100.5,360.5 Z"/></g>
<g><path style="opacity:0.49" fill="#000000" d="M 334.5,360.5 C 333.7,369.048 331.367,377.048 327.5,384.5C 329.854,376.401 332.187,368.401 334.5,360.5 Z"/></g>
<g><path style="opacity:0.449" fill="#000000" d="M 43.5,363.5 C 46.669,364.917 49.669,366.583 52.5,368.5C 48.7275,368.116 45.7275,366.45 43.5,363.5 Z"/></g>
<g><path style="opacity:0.582" fill="#000000" d="M 52.5,368.5 C 55.505,368.253 58.005,369.253 60,371.5C 62.1451,375.137 61.9784,378.47 59.5,381.5C 61.6097,374.717 59.2764,370.384 52.5,368.5 Z"/></g>
<g><path style="opacity:0.475" fill="#000000" d="M 102.5,368.5 C 104.072,371.215 105.072,374.215 105.5,377.5C 103.528,374.916 102.528,371.916 102.5,368.5 Z"/></g>
<g><path style="opacity:0.489" fill="#000000" d="M 316.5,368.5 C 316.001,373.669 314.334,378.336 311.5,382.5C 312.792,377.618 314.459,372.952 316.5,368.5 Z"/></g>
<g><path style="opacity:0.604" fill="#000000" d="M 32.5,374.5 C 31.5041,374.586 30.6708,374.252 30,373.5C 29.79,375.058 29.29,376.391 28.5,377.5C 28.2011,375.396 28.5344,373.396 29.5,371.5C 30.8549,372.188 31.8549,373.188 32.5,374.5 Z"/></g>
<g><path style="opacity:0.451" fill="#000000" d="M 87.5,372.5 C 89.8227,375.947 89.4894,379.281 86.5,382.5C 87.2071,379.214 87.5405,375.881 87.5,372.5 Z"/></g>
<g><path style="opacity:0.514" fill="#000000" d="M 32.5,374.5 C 35.117,375.786 37.4504,377.453 39.5,379.5C 36.3257,378.99 33.9923,377.323 32.5,374.5 Z"/></g>
<g><path style="opacity:0.531" fill="#000000" d="M 105.5,377.5 C 106.931,378.78 107.598,380.447 107.5,382.5C 106.069,381.22 105.402,379.553 105.5,377.5 Z"/></g>
<g><path style="opacity:0.575" fill="#000000" d="M 39.5,379.5 C 41.153,379.66 42.4863,380.326 43.5,381.5C 41.6203,381.771 40.287,381.104 39.5,379.5 Z"/></g>
<g><path style="opacity:0.434" fill="#000000" d="M 43.5,381.5 C 45.5529,381.402 47.2196,382.069 48.5,383.5C 46.4471,383.598 44.7804,382.931 43.5,381.5 Z"/></g>
<g><path style="opacity:0.468" fill="#000000" d="M 59.5,381.5 C 58.7002,383.741 57.0336,384.741 54.5,384.5C 55.9649,383.263 57.6316,382.263 59.5,381.5 Z"/></g>
<g><path style="opacity:0.49" fill="#000000" d="M 86.5,382.5 C 86.2671,385.542 85.2671,388.208 83.5,390.5C 83.7329,387.458 84.7329,384.792 86.5,382.5 Z"/></g>
<g><path style="opacity:0.451" fill="#000000" d="M 107.5,382.5 C 110.008,386.182 112.008,390.182 113.5,394.5C 110.46,391.086 108.46,387.086 107.5,382.5 Z"/></g>
<g><path style="opacity:0.469" fill="#000000" d="M 311.5,382.5 C 310.54,387.086 308.54,391.086 305.5,394.5C 306.992,390.182 308.992,386.182 311.5,382.5 Z"/></g>
<g><path style="opacity:0.632" fill="#000000" d="M 48.5,383.5 C 50.5648,383.517 52.5648,383.85 54.5,384.5C 52.4021,385.484 50.4021,385.151 48.5,383.5 Z"/></g>
<g><path style="opacity:0.465" fill="#000000" d="M 327.5,384.5 C 327.598,386.553 326.931,388.22 325.5,389.5C 325.402,387.447 326.069,385.78 327.5,384.5 Z"/></g>
<g><path style="opacity:0.536" fill="#000000" d="M 27.5,385.5 C 28.2977,390.768 29.9644,395.768 32.5,400.5C 28.195,396.189 26.5283,391.189 27.5,385.5 Z"/></g>
<g><path style="opacity:0.559" fill="#000000" d="M 325.5,389.5 C 324.873,393.42 323.207,396.753 320.5,399.5C 321.659,395.849 323.326,392.515 325.5,389.5 Z"/></g>
<g><path style="opacity:0.513" fill="#000000" d="M 83.5,390.5 C 83.2671,393.542 82.2671,396.208 80.5,398.5C 80.7329,395.458 81.7329,392.792 83.5,390.5 Z"/></g>
<g><path style="opacity:0.499" fill="#000000" d="M 113.5,394.5 C 116.883,398.553 119.883,402.886 122.5,407.5C 118.338,403.999 115.338,399.665 113.5,394.5 Z"/></g>
<g><path style="opacity:0.519" fill="#000000" d="M 305.5,394.5 C 300.37,405.633 292.703,414.633 282.5,421.5C 286.797,416.702 291.297,412.035 296,407.5C 299.03,402.985 302.197,398.651 305.5,394.5 Z"/></g>
<g><path style="opacity:0.501" fill="#000000" d="M 80.5,398.5 C 79.4639,404.285 77.4639,409.618 74.5,414.5C 75.929,408.871 77.929,403.537 80.5,398.5 Z"/></g>
<g><path style="opacity:0.39" fill="#000000" d="M 406.5,398.5 C 406.573,400.027 405.906,401.027 404.5,401.5C 404.427,399.973 405.094,398.973 406.5,398.5 Z"/></g>
<g><path style="opacity:0.449" fill="#000000" d="M 320.5,399.5 C 319.921,402.331 318.588,404.664 316.5,406.5C 317.079,403.669 318.412,401.336 320.5,399.5 Z"/></g>
<g><path style="opacity:0.452" fill="#000000" d="M 32.5,400.5 C 38.0588,405.776 44.3921,409.776 51.5,412.5C 43.2733,411.234 36.94,407.234 32.5,400.5 Z"/></g>
<g><path style="opacity:0.685" fill="#000000" d="M 404.5,401.5 C 403.653,402.966 402.32,403.8 400.5,404C 389.172,404.5 377.838,404.667 366.5,404.5C 366.5,409.167 366.5,413.833 366.5,418.5C 378.171,418.333 389.838,418.5 401.5,419C 402.416,419.278 403.082,419.778 403.5,420.5C 390.87,419.558 378.204,419.225 365.5,419.5C 365.5,414.167 365.5,408.833 365.5,403.5C 376.838,403.667 388.172,403.5 399.5,403C 401.154,402.392 402.821,401.892 404.5,401.5 Z"/></g>
<g><path style="opacity:0.501" fill="#000000" d="M 316.5,406.5 C 316.573,408.027 315.906,409.027 314.5,409.5C 314.427,407.973 315.094,406.973 316.5,406.5 Z"/></g>
<g><path style="opacity:0.512" fill="#000000" d="M 122.5,407.5 C 127.5,411.833 132.167,416.5 136.5,421.5C 130.833,417.833 126.167,413.167 122.5,407.5 Z"/></g>
<g><path style="opacity:0.453" fill="#000000" d="M 314.5,409.5 C 311.338,416.336 306.671,422.003 300.5,426.5C 305.173,420.828 309.84,415.161 314.5,409.5 Z"/></g>
<g><path style="opacity:0.59" fill="#000000" d="M 51.5,412.5 C 53.4109,412.574 54.5776,413.574 55,415.5C 55.6667,417.833 55.6667,420.167 55,422.5C 54.1253,425.215 52.2919,426.548 49.5,426.5C 55.2118,422.6 55.8784,417.933 51.5,412.5 Z"/></g>
<g><path style="opacity:0.581" fill="#000000" d="M 27.5,417.5 C 25.9826,417.489 24.8159,416.823 24,415.5C 22.7264,422.103 22.2264,428.77 22.5,435.5C 21.0767,428.231 21.4101,420.898 23.5,413.5C 25.188,414.521 26.5213,415.855 27.5,417.5 Z"/></g>
<g><path style="opacity:0.503" fill="#000000" d="M 74.5,414.5 C 74.5979,416.553 73.9313,418.22 72.5,419.5C 72.4021,417.447 73.0687,415.78 74.5,414.5 Z"/></g>
<g><path style="opacity:0.515" fill="#000000" d="M 27.5,417.5 C 34.1162,422.138 41.4496,425.138 49.5,426.5C 40.9645,426.913 33.6312,423.913 27.5,417.5 Z"/></g>
<g><path style="opacity:0.49" fill="#000000" d="M 72.5,419.5 C 72.1277,423.297 70.7943,426.63 68.5,429.5C 69.2635,425.863 70.5968,422.53 72.5,419.5 Z"/></g>
<g><path style="opacity:0.654" fill="#000000" d="M 403.5,420.5 C 405.411,420.574 406.578,421.574 407,423.5C 407.789,425.712 407.622,427.712 406.5,429.5C 406.871,425.997 405.871,422.997 403.5,420.5 Z"/></g>
<g><path style="opacity:0.497" fill="#000000" d="M 136.5,421.5 C 138.404,421.738 139.738,422.738 140.5,424.5C 138.596,424.262 137.262,423.262 136.5,421.5 Z"/></g>
<g><path style="opacity:0.522" fill="#000000" d="M 282.5,421.5 C 281.738,423.262 280.404,424.262 278.5,424.5C 279.262,422.738 280.596,421.738 282.5,421.5 Z"/></g>
<g><path style="opacity:0.498" fill="#000000" d="M 140.5,424.5 C 142.027,424.427 143.027,425.094 143.5,426.5C 141.973,426.573 140.973,425.906 140.5,424.5 Z"/></g>
<g><path style="opacity:0.524" fill="#000000" d="M 278.5,424.5 C 278.027,425.906 277.027,426.573 275.5,426.5C 275.973,425.094 276.973,424.427 278.5,424.5 Z"/></g>
<g><path style="opacity:0.545" fill="#000000" d="M 143.5,426.5 C 146.331,427.079 148.664,428.412 150.5,430.5C 147.669,429.921 145.336,428.588 143.5,426.5 Z"/></g>
<g><path style="opacity:0.524" fill="#000000" d="M 275.5,426.5 C 274.341,428.25 272.674,429.25 270.5,429.5C 271.659,427.75 273.326,426.75 275.5,426.5 Z"/></g>
<g><path style="opacity:0.456" fill="#000000" d="M 300.5,426.5 C 294.246,434.088 286.58,439.755 277.5,443.5C 285.443,438.226 293.11,432.559 300.5,426.5 Z"/></g>
<g><path style="opacity:0.508" fill="#000000" d="M 68.5,429.5 C 67.6755,435.006 65.3421,439.673 61.5,443.5C 63.8416,438.789 66.1749,434.123 68.5,429.5 Z"/></g>
<g><path style="opacity:0.484" fill="#000000" d="M 150.5,430.5 C 165.202,437.06 180.535,439.06 196.5,436.5C 183.075,439.608 169.742,438.775 156.5,434C 154.273,433.059 152.273,431.892 150.5,430.5 Z"/></g>
<g><path style="opacity:0.491" fill="#000000" d="M 266.5,431.5 C 260.465,435.287 253.798,437.287 246.5,437.5C 253.138,435.735 259.805,433.735 266.5,431.5 Z"/></g>
<g><path style="opacity:0.603" fill="#000000" d="M 405.5,431.5 C 405.5,432.833 404.833,433.5 403.5,433.5C 403.833,432.5 404.5,431.833 405.5,431.5 Z"/></g>
<g><path style="opacity:0.533" fill="#000000" d="M 217.5,435.5 C 214.278,435.15 211.112,434.483 208,433.5C 204.296,435.013 200.462,436.013 196.5,436.5C 203.326,431.712 210.326,431.379 217.5,435.5 Z"/></g>
<g><path style="opacity:0.496" fill="#000000" d="M 403.5,433.5 C 403.082,434.222 402.416,434.722 401.5,435C 389.838,435.5 378.171,435.667 366.5,435.5C 366.5,445.5 366.5,455.5 366.5,465.5C 401.168,465.667 435.835,465.5 470.5,465C 473.154,464.059 475.821,463.226 478.5,462.5C 476.615,464.311 474.281,465.478 471.5,466C 436.168,466.5 400.835,466.667 365.5,466.5C 365.5,455.833 365.5,445.167 365.5,434.5C 378.204,434.775 390.87,434.442 403.5,433.5 Z"/></g>
<g><path style="opacity:0.497" fill="#000000" d="M 22.5,435.5 C 24.6989,440.042 27.6989,444.042 31.5,447.5C 26.249,445.242 23.249,441.242 22.5,435.5 Z"/></g>
<g><path style="opacity:0.553" fill="#000000" d="M 217.5,435.5 C 221.078,435.549 224.411,436.215 227.5,437.5C 223.878,437.678 220.544,437.011 217.5,435.5 Z"/></g>
<g><path style="opacity:0.467" fill="#000000" d="M 61.5,443.5 C 60.3615,446.086 58.3615,447.753 55.5,448.5C 57.0905,446.367 59.0905,444.701 61.5,443.5 Z"/></g>
<g><path style="opacity:0.558" fill="#000000" d="M 277.5,443.5 C 276.713,445.104 275.38,445.771 273.5,445.5C 274.514,444.326 275.847,443.66 277.5,443.5 Z"/></g>
<g><path style="opacity:0.584" fill="#000000" d="M 489.5,443.5 C 489.68,452.15 486.013,458.483 478.5,462.5C 484.53,457.429 488.197,451.095 489.5,443.5 Z"/></g>
<g><path style="opacity:0.307" fill="#000000" d="M 271.5,446.5 C 271.324,451.88 271.658,457.213 272.5,462.5C 271.778,462.082 271.278,461.416 271,460.5C 270.185,455.648 270.352,450.981 271.5,446.5 Z"/></g>
<g><path style="opacity:0.558" fill="#000000" d="M 31.5,447.5 C 38.5823,450.59 45.9156,451.257 53.5,449.5C 53.0825,450.222 52.4158,450.722 51.5,451C 46.8333,451.667 42.1667,451.667 37.5,451C 34.9746,450.576 32.9746,449.41 31.5,447.5 Z"/></g>
<g><path style="opacity:0.384" fill="#000000" d="M 272.5,462.5 C 273.5,462.833 274.167,463.5 274.5,464.5C 273.167,464.5 272.5,463.833 272.5,462.5 Z"/></g>
</svg>
