<?xml version="1.0" encoding="UTF-8"?>
<!DOCTYPE svg PUBLIC "-//W3C//DTD SVG 1.1//EN" "http://www.w3.org/Graphics/SVG/1.1/DTD/svg11.dtd">
<svg xmlns="http://www.w3.org/2000/svg" version="1.1" width="1060px" height="1060px" style="shape-rendering:geometricPrecision; text-rendering:geometricPrecision; image-rendering:optimizeQuality; fill-rule:evenodd; clip-rule:evenodd" xmlns:xlink="http://www.w3.org/1999/xlink">
<g><path style="opacity:0.539" fill="#000000" d="M 282.5,95.5 C 285.228,91.2628 288.561,87.4294 292.5,84C 272.167,63.6667 251.833,43.3333 231.5,23C 230.833,22.3333 230.167,22.3333 229.5,23C 226.297,26.3709 222.964,29.5375 219.5,32.5C 222.228,28.2628 225.561,24.4294 229.5,21C 230.167,20.3333 230.833,20.3333 231.5,21C 252,41.5 272.5,62 293,82.5C 293.667,83.5 293.667,84.5 293,85.5C 289.631,89.0374 286.131,92.3707 282.5,95.5 Z"/></g>
<g><path style="opacity:0.445" fill="#000000" d="M 842.5,36.5 C 837.702,32.2033 833.035,27.7033 828.5,23C 827.833,22.3333 827.167,22.3333 826.5,23C 811.299,38.3685 795.965,53.5352 780.5,68.5C 795.245,52.252 810.579,36.4187 826.5,21C 827.167,20.3333 827.833,20.3333 828.5,21C 833.766,25.7587 838.433,30.9254 842.5,36.5 Z"/></g>
<g><path style="opacity:1" fill="#0a1357" d="M 282.5,95.5 C 279.427,97.5691 277.094,100.236 275.5,103.5C 273.086,104.911 271.419,106.911 270.5,109.5C 268.413,110.585 267.08,112.251 266.5,114.5C 263.529,116.443 261.529,119.109 260.5,122.5C 258.738,123.262 257.738,124.596 257.5,126.5C 256.094,126.973 255.427,127.973 255.5,129.5C 251.844,132.803 249.178,136.803 247.5,141.5C 244.498,144.161 242.498,147.495 241.5,151.5C 239.412,153.336 238.079,155.669 237.5,158.5C 232.459,165.914 228.459,173.914 225.5,182.5C 221.01,190.291 217.676,198.624 215.5,207.5C 213.194,211.085 211.861,215.085 211.5,219.5C 203.297,243.032 198.631,267.365 197.5,292.5C 194.063,328.697 197.063,364.364 206.5,399.5C 206.742,403.479 207.742,407.146 209.5,410.5C 210.057,415.165 211.39,419.498 213.5,423.5C 214.869,430.282 217.202,436.615 220.5,442.5C 220.707,445.241 221.707,447.574 223.5,449.5C 224.042,452.912 225.375,455.912 227.5,458.5C 229.126,464.419 231.793,469.753 235.5,474.5C 236.41,477.992 238.076,480.992 240.5,483.5C 241.498,487.505 243.498,490.839 246.5,493.5C 249.511,500.197 253.511,506.197 258.5,511.5C 260.738,516.071 263.738,520.071 267.5,523.5C 268.08,525.749 269.413,527.415 271.5,528.5C 275.055,534.727 279.722,540.06 285.5,544.5C 286.167,544.5 286.5,544.833 286.5,545.5C 287.882,548.394 289.882,550.894 292.5,553C 272.167,573.333 251.833,593.667 231.5,614C 230.833,614.667 230.167,614.667 229.5,614C 228.295,612.624 226.962,611.458 225.5,610.5C 224.5,610.167 223.833,609.5 223.5,608.5C 220.899,604.229 217.566,600.563 213.5,597.5C 212.833,597.5 212.5,597.167 212.5,596.5C 211.243,593.573 209.243,591.239 206.5,589.5C 204.215,585.273 201.215,581.607 197.5,578.5C 197.262,576.596 196.262,575.262 194.5,574.5C 192.984,571.467 190.984,568.8 188.5,566.5C 188.262,564.596 187.262,563.262 185.5,562.5C 185.573,560.973 184.906,559.973 183.5,559.5C 179.993,553.148 175.993,547.148 171.5,541.5C 170,537.827 168,534.494 165.5,531.5C 165.25,529.326 164.25,527.659 162.5,526.5C 161.258,522.345 159.258,518.678 156.5,515.5C 155.662,515.158 155.328,514.492 155.5,513.5C 153.341,507.849 150.674,502.516 147.5,497.5C 146.624,493.418 144.957,489.751 142.5,486.5C 142.293,483.759 141.293,481.426 139.5,479.5C 139.598,477.447 138.931,475.78 137.5,474.5C 137.598,472.447 136.931,470.78 135.5,469.5C 135.267,466.458 134.267,463.792 132.5,461.5C 131.596,460.791 131.263,459.791 131.5,458.5C 129.204,449.948 126.537,441.615 123.5,433.5C 123.258,429.521 122.258,425.854 120.5,422.5C 116.755,404.453 113.422,386.453 110.5,368.5C 110.374,360.972 109.707,353.639 108.5,346.5C 108.322,323.489 108.655,300.489 109.5,277.5C 109.865,267.237 111.198,257.237 113.5,247.5C 114.903,244.091 115.57,240.425 115.5,236.5C 115.216,234.585 115.549,232.919 116.5,231.5C 117.913,228.781 118.58,225.781 118.5,222.5C 118.232,220.901 118.566,219.568 119.5,218.5C 120.768,216.095 121.435,213.428 121.5,210.5C 123.435,206.105 124.769,201.438 125.5,196.5C 128.739,188.784 131.405,180.784 133.5,172.5C 135.267,170.208 136.267,167.542 136.5,164.5C 138.931,160.889 140.597,156.889 141.5,152.5C 143.293,150.574 144.293,148.241 144.5,145.5C 144.328,144.508 144.662,143.842 145.5,143.5C 150.341,135.151 154.675,126.484 158.5,117.5C 160.924,114.992 162.59,111.992 163.5,108.5C 166,105.506 168,102.173 169.5,98.5C 171.95,96.3709 173.617,93.7043 174.5,90.5C 175.906,90.0269 176.573,89.0269 176.5,87.5C 178.326,85.8525 179.66,83.8525 180.5,81.5C 181.906,81.0269 182.573,80.0269 182.5,78.5C 184.9,76.7036 186.567,74.3702 187.5,71.5C 191.262,68.0711 194.262,64.0711 196.5,59.5C 198.587,58.4154 199.92,56.7488 200.5,54.5C 204.308,50.8784 207.641,46.8784 210.5,42.5C 214.234,39.7689 217.234,36.4356 219.5,32.5C 222.964,29.5375 226.297,26.3709 229.5,23C 230.167,22.3333 230.833,22.3333 231.5,23C 251.833,43.3333 272.167,63.6667 292.5,84C 288.561,87.4294 285.228,91.2628 282.5,95.5 Z"/></g>
<g><path style="opacity:1" fill="#0a1357" d="M 842.5,36.5 C 844.094,39.7642 846.427,42.4309 849.5,44.5C 850.757,47.4274 852.757,49.7607 855.5,51.5C 856.08,53.7488 857.413,55.4154 859.5,56.5C 860.08,58.7488 861.413,60.4154 863.5,61.5C 865.738,66.0711 868.738,70.0711 872.5,73.5C 874.062,77.3918 876.395,80.7251 879.5,83.5C 879.427,85.0269 880.094,86.0269 881.5,86.5C 881.427,88.0269 882.094,89.0269 883.5,89.5C 883.427,91.0269 884.094,92.0269 885.5,92.5C 886.383,95.7043 888.05,98.3709 890.5,100.5C 890.75,102.674 891.75,104.341 893.5,105.5C 894.079,108.331 895.412,110.664 897.5,112.5C 898.41,115.992 900.076,118.992 902.5,121.5C 903.338,121.842 903.672,122.508 903.5,123.5C 905.992,129.818 908.992,135.818 912.5,141.5C 915.071,149.562 918.404,157.229 922.5,164.5C 922.733,167.542 923.733,170.208 925.5,172.5C 927.928,181.784 930.928,190.784 934.5,199.5C 936.721,210.053 939.387,220.386 942.5,230.5C 942.549,234.078 943.215,237.411 944.5,240.5C 944.872,246.732 945.872,252.732 947.5,258.5C 948.468,260.607 948.802,262.941 948.5,265.5C 951.999,298.468 952.332,331.468 949.5,364.5C 949.624,370.069 948.957,375.402 947.5,380.5C 945.872,386.268 944.872,392.268 944.5,398.5C 944.784,400.415 944.451,402.081 943.5,403.5C 940.723,412.946 938.389,422.613 936.5,432.5C 935.076,434.515 934.41,436.848 934.5,439.5C 930.928,448.216 927.928,457.216 925.5,466.5C 922.734,471.117 920.734,476.117 919.5,481.5C 917.707,483.426 916.707,485.759 916.5,488.5C 914.043,491.751 912.376,495.418 911.5,499.5C 908.326,504.516 905.659,509.849 903.5,515.5C 900.742,518.678 898.742,522.345 897.5,526.5C 891.668,534.824 886.335,543.491 881.5,552.5C 880.094,552.973 879.427,553.973 879.5,555.5C 875.679,559.806 872.345,564.473 869.5,569.5C 867.738,570.262 866.738,571.596 866.5,573.5C 863.444,575.949 861.111,578.949 859.5,582.5C 855.692,586.122 852.359,590.122 849.5,594.5C 846.097,596.9 843.43,599.9 841.5,603.5C 841.5,604.167 841.167,604.5 840.5,604.5C 836.369,608.13 832.369,611.963 828.5,616C 827.833,616.667 827.167,616.667 826.5,616C 813.299,602.631 799.965,589.465 786.5,576.5C 783.167,573.833 780.167,570.833 777.5,567.5C 773.833,562.833 770.167,558.167 766.5,553.5C 767.167,552.167 768.167,551.167 769.5,550.5C 773.898,547.105 777.564,543.105 780.5,538.5C 782.797,536.706 784.963,534.706 787,532.5C 790.015,529.122 792.515,525.456 794.5,521.5C 797.471,519.557 799.471,516.891 800.5,513.5C 802.9,511.704 804.567,509.37 805.5,506.5C 806.906,506.027 807.573,505.027 807.5,503.5C 808.906,503.027 809.573,502.027 809.5,500.5C 811.95,498.371 813.617,495.704 814.5,492.5C 816.25,491.341 817.25,489.674 817.5,487.5C 819.588,485.664 820.921,483.331 821.5,480.5C 827.207,471.752 831.874,462.419 835.5,452.5C 839.128,446.296 841.795,439.629 843.5,432.5C 843.263,431.209 843.596,430.209 844.5,429.5C 846.806,425.915 848.139,421.915 848.5,417.5C 850.746,413.195 852.08,408.529 852.5,403.5C 852.565,400.572 853.232,397.905 854.5,395.5C 855.913,392.781 856.58,389.781 856.5,386.5C 857.903,383.091 858.57,379.425 858.5,375.5C 858.624,370.951 859.291,366.618 860.5,362.5C 862.075,355.73 862.741,348.73 862.5,341.5C 863.661,326.672 863.828,311.672 863,296.5C 862.71,289.62 861.877,282.954 860.5,276.5C 859.532,274.393 859.198,272.059 859.5,269.5C 859.375,263.556 858.375,257.89 856.5,252.5C 856.58,249.219 855.913,246.219 854.5,243.5C 853.232,241.095 852.565,238.428 852.5,235.5C 852.08,230.471 850.746,225.805 848.5,221.5C 847.806,216.085 846.14,211.085 843.5,206.5C 843.267,203.458 842.267,200.792 840.5,198.5C 840.598,196.447 839.931,194.78 838.5,193.5C 838.293,190.759 837.293,188.426 835.5,186.5C 834.624,182.418 832.957,178.751 830.5,175.5C 828.992,173.819 827.992,171.819 827.5,169.5C 825.926,164.68 823.593,160.347 820.5,156.5C 818.251,150.995 815.251,145.995 811.5,141.5C 811.573,139.973 810.906,138.973 809.5,138.5C 809.155,135.802 807.822,133.802 805.5,132.5C 804.277,129.726 802.777,127.059 801,124.5C 797.968,120.641 794.802,116.974 791.5,113.5C 790.92,111.251 789.587,109.585 787.5,108.5C 786.243,105.573 784.243,103.239 781.5,101.5C 778.899,97.2294 775.566,93.5628 771.5,90.5C 770.167,89.8333 769.167,88.8333 768.5,87.5C 768.489,85.9826 767.823,84.8159 766.5,84C 769.118,81.8943 771.118,79.3943 772.5,76.5C 774.833,73.5 777.5,70.8333 780.5,68.5C 795.965,53.5352 811.299,38.3685 826.5,23C 827.167,22.3333 827.833,22.3333 828.5,23C 833.035,27.7033 837.702,32.2033 842.5,36.5 Z"/></g>
<g><path style="opacity:0.52" fill="#000000" d="M 219.5,32.5 C 217.234,36.4356 214.234,39.7689 210.5,42.5C 212.766,38.5644 215.766,35.2311 219.5,32.5 Z"/></g>
<g><path style="opacity:0.527" fill="#000000" d="M 842.5,36.5 C 845.573,38.5691 847.906,41.2358 849.5,44.5C 846.427,42.4309 844.094,39.7642 842.5,36.5 Z"/></g>
<g><path style="opacity:0.507" fill="#000000" d="M 210.5,42.5 C 207.641,46.8784 204.308,50.8784 200.5,54.5C 202.882,49.7524 206.216,45.7524 210.5,42.5 Z"/></g>
<g><path style="opacity:0.524" fill="#000000" d="M 849.5,44.5 C 852.243,46.2393 854.243,48.5726 855.5,51.5C 852.757,49.7607 850.757,47.4274 849.5,44.5 Z"/></g>
<g><path style="opacity:0.516" fill="#000000" d="M 855.5,51.5 C 857.587,52.5846 858.92,54.2512 859.5,56.5C 857.413,55.4154 856.08,53.7488 855.5,51.5 Z"/></g>
<g><path style="opacity:0.505" fill="#000000" d="M 200.5,54.5 C 199.92,56.7488 198.587,58.4154 196.5,59.5C 197.08,57.2512 198.413,55.5846 200.5,54.5 Z"/></g>
<g><path style="opacity:0.528" fill="#000000" d="M 859.5,56.5 C 861.587,57.5846 862.92,59.2512 863.5,61.5C 861.413,60.4154 860.08,58.7488 859.5,56.5 Z"/></g>
<g><path style="opacity:0.477" fill="#000000" d="M 196.5,59.5 C 194.262,64.0711 191.262,68.0711 187.5,71.5C 189.738,66.9289 192.738,62.9289 196.5,59.5 Z"/></g>
<g><path style="opacity:0.482" fill="#000000" d="M 863.5,61.5 C 867.262,64.9289 870.262,68.9289 872.5,73.5C 868.738,70.0711 865.738,66.0711 863.5,61.5 Z"/></g>
<g><path style="opacity:0.508" fill="#000000" d="M 187.5,71.5 C 186.567,74.3702 184.9,76.7036 182.5,78.5C 183.433,75.6298 185.1,73.2964 187.5,71.5 Z"/></g>
<g><path style="opacity:0.527" fill="#000000" d="M 872.5,73.5 C 875.605,76.2749 877.938,79.6082 879.5,83.5C 876.395,80.7251 874.062,77.3918 872.5,73.5 Z"/></g>
<g><path style="opacity:0.654" fill="#000000" d="M 772.5,76.5 C 771.118,79.3943 769.118,81.8943 766.5,84C 767.823,84.8159 768.489,85.9826 768.5,87.5C 767.038,86.5423 765.705,85.3756 764.5,84C 767.036,81.295 769.703,78.795 772.5,76.5 Z"/></g>
<g><path style="opacity:0.495" fill="#000000" d="M 182.5,78.5 C 182.573,80.0269 181.906,81.0269 180.5,81.5C 180.427,79.9731 181.094,78.9731 182.5,78.5 Z"/></g>
<g><path style="opacity:0.487" fill="#000000" d="M 180.5,81.5 C 179.66,83.8525 178.326,85.8525 176.5,87.5C 176.845,84.8021 178.178,82.8021 180.5,81.5 Z"/></g>
<g><path style="opacity:0.517" fill="#000000" d="M 879.5,83.5 C 880.906,83.9731 881.573,84.9731 881.5,86.5C 880.094,86.0269 879.427,85.0269 879.5,83.5 Z"/></g>
<g><path style="opacity:0.504" fill="#000000" d="M 881.5,86.5 C 882.906,86.9731 883.573,87.9731 883.5,89.5C 882.094,89.0269 881.427,88.0269 881.5,86.5 Z"/></g>
<g><path style="opacity:0.526" fill="#000000" d="M 176.5,87.5 C 176.573,89.0269 175.906,90.0269 174.5,90.5C 174.427,88.9731 175.094,87.9731 176.5,87.5 Z"/></g>
<g><path style="opacity:0.495" fill="#000000" d="M 883.5,89.5 C 884.906,89.9731 885.573,90.9731 885.5,92.5C 884.094,92.0269 883.427,91.0269 883.5,89.5 Z"/></g>
<g><path style="opacity:0.536" fill="#000000" d="M 174.5,90.5 C 173.617,93.7043 171.95,96.3709 169.5,98.5C 170.383,95.2957 172.05,92.6291 174.5,90.5 Z"/></g>
<g><path style="opacity:0.46" fill="#000000" d="M 771.5,90.5 C 775.566,93.5628 778.899,97.2294 781.5,101.5C 777.434,98.4372 774.101,94.7706 771.5,90.5 Z"/></g>
<g><path style="opacity:0.484" fill="#000000" d="M 885.5,92.5 C 887.95,94.6291 889.617,97.2957 890.5,100.5C 888.05,98.3709 886.383,95.7043 885.5,92.5 Z"/></g>
<g><path style="opacity:0.461" fill="#000000" d="M 282.5,95.5 C 280.906,98.7642 278.573,101.431 275.5,103.5C 277.094,100.236 279.427,97.5691 282.5,95.5 Z"/></g>
<g><path style="opacity:0.507" fill="#000000" d="M 169.5,98.5 C 168,102.173 166,105.506 163.5,108.5C 164.498,104.495 166.498,101.161 169.5,98.5 Z"/></g>
<g><path style="opacity:0.482" fill="#000000" d="M 890.5,100.5 C 892.25,101.659 893.25,103.326 893.5,105.5C 891.75,104.341 890.75,102.674 890.5,100.5 Z"/></g>
<g><path style="opacity:0.485" fill="#000000" d="M 781.5,101.5 C 784.243,103.239 786.243,105.573 787.5,108.5C 784.757,106.761 782.757,104.427 781.5,101.5 Z"/></g>
<g><path style="opacity:0.466" fill="#000000" d="M 275.5,103.5 C 274.581,106.089 272.914,108.089 270.5,109.5C 271.419,106.911 273.086,104.911 275.5,103.5 Z"/></g>
<g><path style="opacity:0.514" fill="#000000" d="M 893.5,105.5 C 895.588,107.336 896.921,109.669 897.5,112.5C 895.412,110.664 894.079,108.331 893.5,105.5 Z"/></g>
<g><path style="opacity:0.532" fill="#000000" d="M 163.5,108.5 C 162.59,111.992 160.924,114.992 158.5,117.5C 159.41,114.008 161.076,111.008 163.5,108.5 Z"/></g>
<g><path style="opacity:0.5" fill="#000000" d="M 787.5,108.5 C 789.587,109.585 790.92,111.251 791.5,113.5C 789.413,112.415 788.08,110.749 787.5,108.5 Z"/></g>
<g><path style="opacity:0.482" fill="#000000" d="M 270.5,109.5 C 269.92,111.749 268.587,113.415 266.5,114.5C 267.08,112.251 268.413,110.585 270.5,109.5 Z"/></g>
<g><path style="opacity:0.519" fill="#000000" d="M 897.5,112.5 C 899.924,115.008 901.59,118.008 902.5,121.5C 900.076,118.992 898.41,115.992 897.5,112.5 Z"/></g>
<g><path style="opacity:0.477" fill="#000000" d="M 791.5,113.5 C 794.802,116.974 797.968,120.641 801,124.5C 802.777,127.059 804.277,129.726 805.5,132.5C 800.104,126.709 795.437,120.376 791.5,113.5 Z"/></g>
<g><path style="opacity:0.502" fill="#000000" d="M 266.5,114.5 C 264.984,117.533 262.984,120.2 260.5,122.5C 261.529,119.109 263.529,116.443 266.5,114.5 Z"/></g>
<g><path style="opacity:0.493" fill="#000000" d="M 158.5,117.5 C 154.675,126.484 150.341,135.151 145.5,143.5C 148.793,134.248 153.126,125.581 158.5,117.5 Z"/></g>
<g><path style="opacity:0.501" fill="#000000" d="M 260.5,122.5 C 260.262,124.404 259.262,125.738 257.5,126.5C 257.738,124.596 258.738,123.262 260.5,122.5 Z"/></g>
<g><path style="opacity:0.422" fill="#000000" d="M 903.5,123.5 C 907.54,128.914 910.54,134.914 912.5,141.5C 908.992,135.818 905.992,129.818 903.5,123.5 Z"/></g>
<g><path style="opacity:0.51" fill="#000000" d="M 257.5,126.5 C 257.573,128.027 256.906,129.027 255.5,129.5C 255.427,127.973 256.094,126.973 257.5,126.5 Z"/></g>
<g><path style="opacity:0.531" fill="#000000" d="M 255.5,129.5 C 253.327,133.852 250.66,137.852 247.5,141.5C 249.178,136.803 251.844,132.803 255.5,129.5 Z"/></g>
<g><path style="opacity:0.519" fill="#000000" d="M 805.5,132.5 C 807.822,133.802 809.155,135.802 809.5,138.5C 807.674,136.853 806.34,134.853 805.5,132.5 Z"/></g>
<g><path style="opacity:0.487" fill="#000000" d="M 809.5,138.5 C 810.906,138.973 811.573,139.973 811.5,141.5C 810.094,141.027 809.427,140.027 809.5,138.5 Z"/></g>
<g><path style="opacity:0.539" fill="#000000" d="M 397.5,187.5 C 381.252,172.755 365.419,157.421 350,141.5C 342.918,148.717 336.085,156.05 329.5,163.5C 335.132,154.633 341.966,146.633 350,139.5C 366.035,155.368 381.868,171.368 397.5,187.5 Z"/></g>
<g><path style="opacity:0.41" fill="#000000" d="M 711.5,143.5 C 710.399,142.2 709.066,141.7 707.5,142C 687.167,162.333 666.833,182.667 646.5,203C 648.464,204.451 649.797,206.284 650.5,208.5C 647.468,207.001 645.968,204.668 646,201.5C 666.5,181 687,160.5 707.5,140C 709.841,139.832 711.174,140.999 711.5,143.5 Z"/></g>
<g><path style="opacity:0.497" fill="#000000" d="M 247.5,141.5 C 246,145.173 244,148.506 241.5,151.5C 242.498,147.495 244.498,144.161 247.5,141.5 Z"/></g>
<g><path style="opacity:1" fill="#0a1357" d="M 397.5,187.5 C 400.5,189.833 403.167,192.5 405.5,195.5C 407.127,197.63 408.96,199.63 411,201.5C 411.483,202.448 411.649,203.448 411.5,204.5C 411.5,205.167 411.167,205.5 410.5,205.5C 407.427,207.569 405.094,210.236 403.5,213.5C 401.413,214.585 400.08,216.251 399.5,218.5C 397.738,219.262 396.738,220.596 396.5,222.5C 393.723,224.951 391.723,227.951 390.5,231.5C 388.75,232.659 387.75,234.326 387.5,236.5C 383.793,241.247 381.126,246.581 379.5,252.5C 374.189,262.101 370.856,272.434 369.5,283.5C 369.784,285.415 369.451,287.081 368.5,288.5C 366.896,292.9 366.229,297.566 366.5,302.5C 364.719,319.807 365.552,337.14 369,354.5C 369.724,358.427 370.891,362.094 372.5,365.5C 373.332,371.666 375.332,377.333 378.5,382.5C 380.46,389.086 383.46,395.086 387.5,400.5C 387.75,402.674 388.75,404.341 390.5,405.5C 391.723,409.049 393.723,412.049 396.5,414.5C 397.529,417.891 399.529,420.557 402.5,422.5C 403.757,425.427 405.757,427.761 408.5,429.5C 409.167,429.5 409.5,429.833 409.5,430.5C 410.366,432.144 410.866,433.811 411,435.5C 399.965,446.368 389.131,457.368 378.5,468.5C 372.833,474.833 366.833,480.833 360.5,486.5C 356.581,489.075 352.915,492.075 349.5,495.5C 347.147,493.477 344.814,491.477 342.5,489.5C 341.833,489.5 341.5,489.167 341.5,488.5C 340.243,485.573 338.243,483.239 335.5,481.5C 333.312,477.793 330.645,474.46 327.5,471.5C 326.567,468.63 324.9,466.296 322.5,464.5C 320.327,460.148 317.66,456.148 314.5,452.5C 314.25,450.326 313.25,448.659 311.5,447.5C 310.921,444.669 309.588,442.336 307.5,440.5C 303.737,431.976 299.737,423.642 295.5,415.5C 294.404,410.868 292.737,406.534 290.5,402.5C 289.262,400.786 288.595,398.786 288.5,396.5C 288.277,392.838 287.277,389.505 285.5,386.5C 285.102,382.239 284.102,378.239 282.5,374.5C 282.451,370.922 281.785,367.589 280.5,364.5C 278.089,346.587 276.755,328.587 276.5,310.5C 277.97,289.342 281.303,268.342 286.5,247.5C 289.541,240.046 292.208,232.38 294.5,224.5C 296.293,222.574 297.293,220.241 297.5,217.5C 299.625,214.912 300.958,211.912 301.5,208.5C 301.992,206.181 302.992,204.181 304.5,202.5C 306.924,199.992 308.59,196.992 309.5,193.5C 312,190.506 314,187.173 315.5,183.5C 318.241,181.025 320.241,178.025 321.5,174.5C 324.898,171.373 327.565,167.707 329.5,163.5C 336.085,156.05 342.918,148.717 350,141.5C 365.419,157.421 381.252,172.755 397.5,187.5 Z"/></g>
<g><path style="opacity:1" fill="#0a1357" d="M 711.5,143.5 C 712.5,143.833 713.167,144.5 713.5,145.5C 715.43,149.1 718.097,152.1 721.5,154.5C 722.419,157.089 724.086,159.089 726.5,160.5C 728.111,164.051 730.444,167.051 733.5,169.5C 737.007,175.852 741.007,181.852 745.5,187.5C 748.33,193.83 751.663,199.83 755.5,205.5C 756.674,206.514 757.34,207.847 757.5,209.5C 758.376,213.582 760.043,217.249 762.5,220.5C 762.402,222.553 763.069,224.22 764.5,225.5C 764.733,228.542 765.733,231.208 767.5,233.5C 768.261,237.784 769.595,241.784 771.5,245.5C 771.41,248.152 772.076,250.485 773.5,252.5C 773.898,256.761 774.898,260.761 776.5,264.5C 776.549,268.078 777.215,271.411 778.5,274.5C 779.461,276.265 779.795,278.265 779.5,280.5C 779.596,286.373 780.263,292.04 781.5,297.5C 782.833,312.167 782.833,326.833 781.5,341.5C 779.906,350.661 778.572,359.994 777.5,369.5C 775.676,374.936 774.342,380.603 773.5,386.5C 772.076,388.515 771.41,390.848 771.5,393.5C 769.595,397.216 768.261,401.216 767.5,405.5C 765.733,407.792 764.733,410.458 764.5,413.5C 759.263,423.642 754.263,433.975 749.5,444.5C 747.412,446.336 746.079,448.669 745.5,451.5C 744.094,451.973 743.427,452.973 743.5,454.5C 740.34,458.148 737.673,462.148 735.5,466.5C 731.738,469.929 728.738,473.929 726.5,478.5C 724.086,479.911 722.419,481.911 721.5,484.5C 717.434,487.563 714.101,491.229 711.5,495.5C 711.5,496.167 711.167,496.5 710.5,496.5C 709.577,497.303 708.577,497.47 707.5,497C 687.167,476.667 666.833,456.333 646.5,436C 648.141,434.871 649.141,433.371 649.5,431.5C 649.5,430.833 649.833,430.5 650.5,430.5C 653.243,428.761 655.243,426.427 656.5,423.5C 668.43,410.527 677.096,395.527 682.5,378.5C 685.14,373.915 686.806,368.915 687.5,363.5C 689.373,359.485 690.373,355.151 690.5,350.5C 691.895,346.409 692.728,342.076 693,337.5C 693.667,325.5 693.667,313.5 693,301.5C 692.728,296.924 691.895,292.591 690.5,288.5C 689.549,287.081 689.216,285.415 689.5,283.5C 689.706,280.505 689.04,277.838 687.5,275.5C 684.541,260.94 678.875,247.607 670.5,235.5C 666.994,227.998 662.327,221.332 656.5,215.5C 655.243,212.573 653.243,210.239 650.5,208.5C 649.797,206.284 648.464,204.451 646.5,203C 666.833,182.667 687.167,162.333 707.5,142C 709.066,141.7 710.399,142.2 711.5,143.5 Z"/></g>
<g><path style="opacity:0.496" fill="#000000" d="M 811.5,141.5 C 815.251,145.995 818.251,150.995 820.5,156.5C 816.749,152.005 813.749,147.005 811.5,141.5 Z"/></g>
<g><path style="opacity:0.509" fill="#000000" d="M 912.5,141.5 C 916.626,148.759 919.959,156.425 922.5,164.5C 918.404,157.229 915.071,149.562 912.5,141.5 Z"/></g>
<g><path style="opacity:0.488" fill="#000000" d="M 144.5,145.5 C 144.293,148.241 143.293,150.574 141.5,152.5C 141.707,149.759 142.707,147.426 144.5,145.5 Z"/></g>
<g><path style="opacity:0.549" fill="#000000" d="M 713.5,145.5 C 716.903,147.9 719.57,150.9 721.5,154.5C 718.097,152.1 715.43,149.1 713.5,145.5 Z"/></g>
<g><path style="opacity:0.461" fill="#000000" d="M 241.5,151.5 C 240.921,154.331 239.588,156.664 237.5,158.5C 238.079,155.669 239.412,153.336 241.5,151.5 Z"/></g>
<g><path style="opacity:0.515" fill="#000000" d="M 141.5,152.5 C 140.597,156.889 138.931,160.889 136.5,164.5C 137.403,160.111 139.069,156.111 141.5,152.5 Z"/></g>
<g><path style="opacity:0.552" fill="#000000" d="M 721.5,154.5 C 723.914,155.911 725.581,157.911 726.5,160.5C 724.086,159.089 722.419,157.089 721.5,154.5 Z"/></g>
<g><path style="opacity:0.475" fill="#000000" d="M 820.5,156.5 C 823.593,160.347 825.926,164.68 827.5,169.5C 824.407,165.653 822.074,161.32 820.5,156.5 Z"/></g>
<g><path style="opacity:0.515" fill="#000000" d="M 237.5,158.5 C 234.008,166.818 230.008,174.818 225.5,182.5C 228.459,173.914 232.459,165.914 237.5,158.5 Z"/></g>
<g><path style="opacity:0.522" fill="#000000" d="M 726.5,160.5 C 729.556,162.949 731.889,165.949 733.5,169.5C 730.444,167.051 728.111,164.051 726.5,160.5 Z"/></g>
<g><path style="opacity:0.505" fill="#000000" d="M 329.5,163.5 C 327.565,167.707 324.898,171.373 321.5,174.5C 323.4,170.268 326.067,166.601 329.5,163.5 Z"/></g>
<g><path style="opacity:0.488" fill="#000000" d="M 136.5,164.5 C 136.267,167.542 135.267,170.208 133.5,172.5C 133.733,169.458 134.733,166.792 136.5,164.5 Z"/></g>
<g><path style="opacity:0.485" fill="#000000" d="M 922.5,164.5 C 924.267,166.792 925.267,169.458 925.5,172.5C 923.733,170.208 922.733,167.542 922.5,164.5 Z"/></g>
<g><path style="opacity:0.5" fill="#000000" d="M 733.5,169.5 C 738.489,174.803 742.489,180.803 745.5,187.5C 741.007,181.852 737.007,175.852 733.5,169.5 Z"/></g>
<g><path style="opacity:0.509" fill="#000000" d="M 133.5,172.5 C 131.405,180.784 128.739,188.784 125.5,196.5C 127.194,188.085 129.86,180.085 133.5,172.5 Z"/></g>
<g><path style="opacity:0.537" fill="#000000" d="M 925.5,172.5 C 929.473,181.086 932.473,190.086 934.5,199.5C 930.928,190.784 927.928,181.784 925.5,172.5 Z"/></g>
<g><path style="opacity:0.486" fill="#000000" d="M 321.5,174.5 C 320.241,178.025 318.241,181.025 315.5,183.5C 316.723,179.951 318.723,176.951 321.5,174.5 Z"/></g>
<g><path style="opacity:0.496" fill="#000000" d="M 830.5,175.5 C 832.957,178.751 834.624,182.418 835.5,186.5C 833.043,183.249 831.376,179.582 830.5,175.5 Z"/></g>
<g><path style="opacity:0.497" fill="#000000" d="M 225.5,182.5 C 222.541,191.057 219.208,199.39 215.5,207.5C 217.676,198.624 221.01,190.291 225.5,182.5 Z"/></g>
<g><path style="opacity:0.519" fill="#000000" d="M 315.5,183.5 C 314,187.173 312,190.506 309.5,193.5C 310.498,189.495 312.498,186.161 315.5,183.5 Z"/></g>
<g><path style="opacity:0.497" fill="#000000" d="M 835.5,186.5 C 837.293,188.426 838.293,190.759 838.5,193.5C 836.707,191.574 835.707,189.241 835.5,186.5 Z"/></g>
<g><path style="opacity:0.534" fill="#000000" d="M 745.5,187.5 C 749.844,192.847 753.177,198.847 755.5,205.5C 751.663,199.83 748.33,193.83 745.5,187.5 Z"/></g>
<g><path style="opacity:0.519" fill="#000000" d="M 309.5,193.5 C 308.59,196.992 306.924,199.992 304.5,202.5C 305.41,199.008 307.076,196.008 309.5,193.5 Z"/></g>
<g><path style="opacity:0.512" fill="#000000" d="M 838.5,193.5 C 839.931,194.78 840.598,196.447 840.5,198.5C 839.069,197.22 838.402,195.553 838.5,193.5 Z"/></g>
<g><path style="opacity:0.351" fill="#000000" d="M 405.5,195.5 C 408.394,196.882 410.894,198.882 413,201.5C 413.585,202.998 413.085,203.998 411.5,204.5C 411.649,203.448 411.483,202.448 411,201.5C 408.96,199.63 407.127,197.63 405.5,195.5 Z"/></g>
<g><path style="opacity:0.528" fill="#000000" d="M 125.5,196.5 C 124.769,201.438 123.435,206.105 121.5,210.5C 121.92,205.471 123.254,200.805 125.5,196.5 Z"/></g>
<g><path style="opacity:0.494" fill="#000000" d="M 840.5,198.5 C 842.267,200.792 843.267,203.458 843.5,206.5C 841.733,204.208 840.733,201.542 840.5,198.5 Z"/></g>
<g><path style="opacity:0.523" fill="#000000" d="M 934.5,199.5 C 938.239,209.451 940.905,219.784 942.5,230.5C 939.387,220.386 936.721,210.053 934.5,199.5 Z"/></g>
<g><path style="opacity:0.45" fill="#000000" d="M 410.5,205.5 C 408.906,208.764 406.573,211.431 403.5,213.5C 405.094,210.236 407.427,207.569 410.5,205.5 Z"/></g>
<g><path style="opacity:0.542" fill="#000000" d="M 843.5,206.5 C 846.14,211.085 847.806,216.085 848.5,221.5C 846.261,216.784 844.595,211.784 843.5,206.5 Z"/></g>
<g><path style="opacity:0.551" fill="#000000" d="M 215.5,207.5 C 214.739,211.784 213.405,215.784 211.5,219.5C 211.861,215.085 213.194,211.085 215.5,207.5 Z"/></g>
<g><path style="opacity:0.513" fill="#000000" d="M 301.5,208.5 C 300.958,211.912 299.625,214.912 297.5,217.5C 298.042,214.088 299.375,211.088 301.5,208.5 Z"/></g>
<g><path style="opacity:0.465" fill="#000000" d="M 650.5,208.5 C 653.243,210.239 655.243,212.573 656.5,215.5C 653.757,213.761 651.757,211.427 650.5,208.5 Z"/></g>
<g><path style="opacity:0.511" fill="#000000" d="M 757.5,209.5 C 759.957,212.751 761.624,216.418 762.5,220.5C 760.043,217.249 758.376,213.582 757.5,209.5 Z"/></g>
<g><path style="opacity:0.477" fill="#000000" d="M 121.5,210.5 C 121.435,213.428 120.768,216.095 119.5,218.5C 119.294,215.505 119.96,212.838 121.5,210.5 Z"/></g>
<g><path style="opacity:0.467" fill="#000000" d="M 403.5,213.5 C 402.92,215.749 401.587,217.415 399.5,218.5C 400.08,216.251 401.413,214.585 403.5,213.5 Z"/></g>
<g><path style="opacity:0.478" fill="#000000" d="M 656.5,215.5 C 662.327,221.332 666.994,227.998 670.5,235.5C 665.451,229.115 660.785,222.448 656.5,215.5 Z"/></g>
<g><path style="opacity:0.55" fill="#000000" d="M 297.5,217.5 C 297.293,220.241 296.293,222.574 294.5,224.5C 294.707,221.759 295.707,219.426 297.5,217.5 Z"/></g>
<g><path style="opacity:0.484" fill="#000000" d="M 399.5,218.5 C 399.262,220.404 398.262,221.738 396.5,222.5C 396.738,220.596 397.738,219.262 399.5,218.5 Z"/></g>
<g><path style="opacity:0.488" fill="#000000" d="M 211.5,219.5 C 204.771,243.558 200.104,267.892 197.5,292.5C 198.631,267.365 203.297,243.032 211.5,219.5 Z"/></g>
<g><path style="opacity:0.49" fill="#000000" d="M 762.5,220.5 C 763.931,221.78 764.598,223.447 764.5,225.5C 763.069,224.22 762.402,222.553 762.5,220.5 Z"/></g>
<g><path style="opacity:0.468" fill="#000000" d="M 848.5,221.5 C 850.746,225.805 852.08,230.471 852.5,235.5C 850.565,231.105 849.231,226.438 848.5,221.5 Z"/></g>
<g><path style="opacity:0.5" fill="#000000" d="M 118.5,222.5 C 118.58,225.781 117.913,228.781 116.5,231.5C 116.42,228.219 117.087,225.219 118.5,222.5 Z"/></g>
<g><path style="opacity:0.543" fill="#000000" d="M 396.5,222.5 C 395.241,226.025 393.241,229.025 390.5,231.5C 391.723,227.951 393.723,224.951 396.5,222.5 Z"/></g>
<g><path style="opacity:0.493" fill="#000000" d="M 294.5,224.5 C 292.208,232.38 289.541,240.046 286.5,247.5C 287.998,239.337 290.664,231.67 294.5,224.5 Z"/></g>
<g><path style="opacity:0.534" fill="#000000" d="M 764.5,225.5 C 766.267,227.792 767.267,230.458 767.5,233.5C 765.733,231.208 764.733,228.542 764.5,225.5 Z"/></g>
<g><path style="opacity:0.468" fill="#000000" d="M 942.5,230.5 C 944.011,233.544 944.678,236.878 944.5,240.5C 943.215,237.411 942.549,234.078 942.5,230.5 Z"/></g>
<g><path style="opacity:0.496" fill="#000000" d="M 390.5,231.5 C 390.25,233.674 389.25,235.341 387.5,236.5C 387.75,234.326 388.75,232.659 390.5,231.5 Z"/></g>
<g><path style="opacity:0.495" fill="#000000" d="M 518.5,232.5 C 521.984,231.835 525.651,231.501 529.5,231.5C 535.409,231.349 541.075,232.016 546.5,233.5C 537.188,232.723 527.854,232.39 518.5,232.5 Z"/></g>
<g><path style="opacity:0.519" fill="#000000" d="M 518.5,232.5 C 510.133,234.345 501.799,236.678 493.5,239.5C 501.17,235.163 509.503,232.83 518.5,232.5 Z"/></g>
<g><path style="opacity:1" fill="#0a1357" d="M 518.5,232.5 C 527.854,232.39 537.188,232.723 546.5,233.5C 559.014,236.923 570.681,242.256 581.5,249.5C 582.911,251.914 584.911,253.581 587.5,254.5C 588.833,256.5 590.5,258.167 592.5,259.5C 593.167,259.5 593.5,259.833 593.5,260.5C 595.458,263.792 597.791,266.792 600.5,269.5C 600.427,271.027 601.094,272.027 602.5,272.5C 604.326,277.484 606.659,282.151 609.5,286.5C 609.928,289.785 610.928,292.785 612.5,295.5C 613.434,296.568 613.768,297.901 613.5,299.5C 613.816,305.349 614.482,311.016 615.5,316.5C 616.097,316.735 616.43,317.235 616.5,318C 615.913,322.648 615.246,327.148 614.5,331.5C 612.401,339.138 610.068,346.805 607.5,354.5C 607.34,356.153 606.674,357.486 605.5,358.5C 601.836,363.825 598.17,369.158 594.5,374.5C 593.12,374.962 592.453,375.962 592.5,377.5C 592.801,379.422 593.467,381.088 594.5,382.5C 595.724,389.167 597.724,395.501 600.5,401.5C 601.39,407.166 603.057,412.5 605.5,417.5C 606.404,418.209 606.737,419.209 606.5,420.5C 607.39,426.166 609.057,431.5 611.5,436.5C 612.724,443.167 614.724,449.501 617.5,455.5C 618.39,461.166 620.057,466.5 622.5,471.5C 623.404,472.209 623.737,473.209 623.5,474.5C 624.39,480.166 626.057,485.5 628.5,490.5C 629.404,491.209 629.737,492.209 629.5,493.5C 630.39,499.166 632.057,504.5 634.5,509.5C 635.724,516.167 637.724,522.501 640.5,528.5C 641.39,534.166 643.057,539.5 645.5,544.5C 646.404,545.209 646.737,546.209 646.5,547.5C 647.39,553.166 649.057,558.5 651.5,563.5C 652.404,564.209 652.737,565.209 652.5,566.5C 653.39,572.166 655.057,577.5 657.5,582.5C 658.724,589.167 660.724,595.501 663.5,601.5C 664.39,607.166 666.057,612.5 668.5,617.5C 669.404,618.209 669.737,619.209 669.5,620.5C 670.39,626.166 672.057,631.5 674.5,636.5C 675.724,643.167 677.724,649.501 680.5,655.5C 681.724,662.167 683.724,668.501 686.5,674.5C 687.39,680.166 689.057,685.5 691.5,690.5C 692.404,691.209 692.737,692.209 692.5,693.5C 693.39,699.166 695.057,704.5 697.5,709.5C 698.724,716.167 700.724,722.501 703.5,728.5C 704.39,734.166 706.057,739.5 708.5,744.5C 709.404,745.209 709.737,746.209 709.5,747.5C 710.39,753.166 712.057,758.5 714.5,763.5C 715.404,764.209 715.737,765.209 715.5,766.5C 716.39,772.166 718.057,777.5 720.5,782.5C 721.724,789.167 723.724,795.501 726.5,801.5C 727.39,807.166 729.057,812.5 731.5,817.5C 732.404,818.209 732.737,819.209 732.5,820.5C 733.39,826.166 735.057,831.5 737.5,836.5C 738.724,843.167 740.724,849.501 743.5,855.5C 744.724,862.167 746.724,868.501 749.5,874.5C 750.39,880.166 752.057,885.5 754.5,890.5C 755.404,891.209 755.737,892.209 755.5,893.5C 756.39,899.166 758.057,904.5 760.5,909.5C 761.724,916.167 763.724,922.501 766.5,928.5C 767.218,933.323 768.551,937.99 770.5,942.5C 787.487,943.499 804.487,943.833 821.5,943.5C 821.5,972.833 821.5,1002.17 821.5,1031.5C 626.833,1031.5 432.167,1031.5 237.5,1031.5C 237.5,1002.17 237.5,972.833 237.5,943.5C 254.17,943.667 270.837,943.5 287.5,943C 288.867,940.699 289.534,938.199 289.5,935.5C 292.276,929.501 294.276,923.167 295.5,916.5C 298.276,910.501 300.276,904.167 301.5,897.5C 304.276,891.501 306.276,885.167 307.5,878.5C 310.276,872.501 312.276,866.167 313.5,859.5C 316.276,853.501 318.276,847.167 319.5,840.5C 321.943,835.5 323.61,830.166 324.5,824.5C 324.263,823.209 324.596,822.209 325.5,821.5C 327.943,816.5 329.61,811.166 330.5,805.5C 330.263,804.209 330.596,803.209 331.5,802.5C 333.943,797.5 335.61,792.166 336.5,786.5C 336.263,785.209 336.596,784.209 337.5,783.5C 339.943,778.5 341.61,773.166 342.5,767.5C 342.263,766.209 342.596,765.209 343.5,764.5C 345.943,759.5 347.61,754.166 348.5,748.5C 351.276,742.501 353.276,736.167 354.5,729.5C 357.276,723.501 359.276,717.167 360.5,710.5C 363.276,704.501 365.276,698.167 366.5,691.5C 369.276,685.501 371.276,679.167 372.5,672.5C 375.276,666.501 377.276,660.167 378.5,653.5C 381.276,647.501 383.276,641.167 384.5,634.5C 386.943,629.5 388.61,624.166 389.5,618.5C 389.263,617.209 389.596,616.209 390.5,615.5C 392.943,610.5 394.61,605.166 395.5,599.5C 395.263,598.209 395.596,597.209 396.5,596.5C 398.943,591.5 400.61,586.166 401.5,580.5C 401.263,579.209 401.596,578.209 402.5,577.5C 404.943,572.5 406.61,567.166 407.5,561.5C 407.263,560.209 407.596,559.209 408.5,558.5C 410.943,553.5 412.61,548.166 413.5,542.5C 416.276,536.501 418.276,530.167 419.5,523.5C 422.276,517.501 424.276,511.167 425.5,504.5C 428.276,498.501 430.276,492.167 431.5,485.5C 434.276,479.501 436.276,473.167 437.5,466.5C 440.276,460.501 442.276,454.167 443.5,447.5C 445.943,442.5 447.61,437.166 448.5,431.5C 448.263,430.209 448.596,429.209 449.5,428.5C 451.943,423.5 453.61,418.166 454.5,412.5C 454.263,411.209 454.596,410.209 455.5,409.5C 457.943,404.5 459.61,399.166 460.5,393.5C 460.263,392.209 460.596,391.209 461.5,390.5C 463.335,386.344 465.001,382.011 466.5,377.5C 466.376,376.893 466.043,376.56 465.5,376.5C 464.581,373.911 462.914,371.911 460.5,370.5C 459.241,366.975 457.241,363.975 454.5,361.5C 453.341,357.849 451.674,354.515 449.5,351.5C 441.237,328.365 441.57,305.365 450.5,282.5C 451.674,281.486 452.34,280.153 452.5,278.5C 452.328,277.508 452.662,276.842 453.5,276.5C 455.25,275.341 456.25,273.674 456.5,271.5C 457.906,271.027 458.573,270.027 458.5,268.5C 460.262,267.738 461.262,266.404 461.5,264.5C 466.5,260.167 471.167,255.5 475.5,250.5C 477.404,250.262 478.738,249.262 479.5,247.5C 481.027,247.573 482.027,246.906 482.5,245.5C 484.674,245.25 486.341,244.25 487.5,242.5C 487.842,241.662 488.508,241.328 489.5,241.5C 491.153,241.34 492.486,240.674 493.5,239.5C 501.799,236.678 510.133,234.345 518.5,232.5 Z M 530.5,475.5 C 531.39,481.166 533.057,486.5 535.5,491.5C 535.263,492.791 535.596,493.791 536.5,494.5C 537.39,500.166 539.057,505.5 541.5,510.5C 541.263,511.791 541.596,512.791 542.5,513.5C 543.39,519.166 545.057,524.5 547.5,529.5C 547.263,530.791 547.596,531.791 548.5,532.5C 549.39,538.166 551.057,543.5 553.5,548.5C 553.263,549.791 553.596,550.791 554.5,551.5C 555.39,557.166 557.057,562.5 559.5,567.5C 559.263,568.791 559.596,569.791 560.5,570.5C 561.39,576.166 563.057,581.5 565.5,586.5C 565.263,587.791 565.596,588.791 566.5,589.5C 567.39,595.166 569.057,600.5 571.5,605.5C 572.724,612.167 574.724,618.501 577.5,624.5C 578.724,631.167 580.724,637.501 583.5,643.5C 584.724,650.167 586.724,656.501 589.5,662.5C 590.724,669.167 592.724,675.501 595.5,681.5C 595.959,684.877 596.626,688.211 597.5,691.5C 551.833,691.5 506.167,691.5 460.5,691.5C 461.578,688.598 462.244,685.598 462.5,682.5C 463.404,681.791 463.737,680.791 463.5,679.5C 465.943,674.5 467.61,669.166 468.5,663.5C 471.276,657.501 473.276,651.167 474.5,644.5C 476.943,639.5 478.61,634.166 479.5,628.5C 480.404,627.791 480.737,626.791 480.5,625.5C 482.943,620.5 484.61,615.166 485.5,609.5C 486.404,608.791 486.737,607.791 486.5,606.5C 488.943,601.5 490.61,596.166 491.5,590.5C 494.276,584.501 496.276,578.167 497.5,571.5C 499.943,566.5 501.61,561.166 502.5,555.5C 503.404,554.791 503.737,553.791 503.5,552.5C 505.943,547.5 507.61,542.166 508.5,536.5C 511.276,530.501 513.276,524.167 514.5,517.5C 516.943,512.5 518.61,507.166 519.5,501.5C 520.404,500.791 520.737,499.791 520.5,498.5C 522.943,493.5 524.61,488.166 525.5,482.5C 526.933,479.718 528.1,476.718 529,473.5C 529.278,474.416 529.778,475.082 530.5,475.5 Z M 630.5,792.5 C 630.263,793.791 630.596,794.791 631.5,795.5C 632.39,801.166 634.057,806.5 636.5,811.5C 637.724,818.167 639.724,824.501 642.5,830.5C 643.724,837.167 645.724,843.501 648.5,849.5C 649.724,856.167 651.724,862.501 654.5,868.5C 655.724,875.167 657.724,881.501 660.5,887.5C 661.724,894.167 663.724,900.501 666.5,906.5C 667.39,912.166 669.057,917.5 671.5,922.5C 671.263,923.791 671.596,924.791 672.5,925.5C 673.39,931.166 675.057,936.5 677.5,941.5C 578.999,942.832 480.332,942.832 381.5,941.5C 382.309,939.929 382.643,938.262 382.5,936.5C 383.404,935.791 383.737,934.791 383.5,933.5C 385.943,928.5 387.61,923.166 388.5,917.5C 391.276,911.501 393.276,905.167 394.5,898.5C 396.943,893.5 398.61,888.166 399.5,882.5C 400.404,881.791 400.737,880.791 400.5,879.5C 402.943,874.5 404.61,869.166 405.5,863.5C 406.404,862.791 406.737,861.791 406.5,860.5C 408.943,855.5 410.61,850.166 411.5,844.5C 414.276,838.501 416.276,832.167 417.5,825.5C 419.943,820.5 421.61,815.166 422.5,809.5C 423.404,808.791 423.737,807.791 423.5,806.5C 425.943,801.5 427.61,796.166 428.5,790.5C 430.072,787.785 431.072,784.785 431.5,781.5C 496.503,781.167 561.503,781.5 626.5,782.5C 627.664,786.013 628.998,789.346 630.5,792.5 Z"/></g>
<g><path style="opacity:0.507" fill="#000000" d="M 546.5,233.5 C 559.866,235.353 571.532,240.686 581.5,249.5C 570.681,242.256 559.014,236.923 546.5,233.5 Z"/></g>
<g><path style="opacity:0.457" fill="#000000" d="M 767.5,233.5 C 769.806,237.085 771.139,241.085 771.5,245.5C 769.595,241.784 768.261,237.784 767.5,233.5 Z"/></g>
<g><path style="opacity:0.476" fill="#000000" d="M 670.5,235.5 C 678.875,247.607 684.541,260.94 687.5,275.5C 682.975,261.772 677.309,248.439 670.5,235.5 Z"/></g>
<g><path style="opacity:0.526" fill="#000000" d="M 115.5,236.5 C 115.57,240.425 114.903,244.091 113.5,247.5C 113.43,243.575 114.097,239.909 115.5,236.5 Z"/></g>
<g><path style="opacity:0.529" fill="#000000" d="M 387.5,236.5 C 385.341,242.151 382.674,247.484 379.5,252.5C 381.126,246.581 383.793,241.247 387.5,236.5 Z"/></g>
<g><path style="opacity:0.438" fill="#000000" d="M 493.5,239.5 C 492.486,240.674 491.153,241.34 489.5,241.5C 490.287,239.896 491.62,239.229 493.5,239.5 Z"/></g>
<g><path style="opacity:0.521" fill="#000000" d="M 944.5,240.5 C 946.344,246.233 947.344,252.233 947.5,258.5C 945.872,252.732 944.872,246.732 944.5,240.5 Z"/></g>
<g><path style="opacity:0.516" fill="#000000" d="M 487.5,242.5 C 486.341,244.25 484.674,245.25 482.5,245.5C 483.659,243.75 485.326,242.75 487.5,242.5 Z"/></g>
<g><path style="opacity:0.49" fill="#000000" d="M 854.5,243.5 C 855.913,246.219 856.58,249.219 856.5,252.5C 855.087,249.781 854.42,246.781 854.5,243.5 Z"/></g>
<g><path style="opacity:0.494" fill="#000000" d="M 482.5,245.5 C 482.027,246.906 481.027,247.573 479.5,247.5C 479.973,246.094 480.973,245.427 482.5,245.5 Z"/></g>
<g><path style="opacity:0.525" fill="#000000" d="M 771.5,245.5 C 772.924,247.515 773.59,249.848 773.5,252.5C 772.076,250.485 771.41,248.152 771.5,245.5 Z"/></g>
<g><path style="opacity:0.539" fill="#000000" d="M 286.5,247.5 C 281.303,268.342 277.97,289.342 276.5,310.5C 276.499,288.844 279.833,267.844 286.5,247.5 Z"/></g>
<g><path style="opacity:0.508" fill="#000000" d="M 479.5,247.5 C 478.738,249.262 477.404,250.262 475.5,250.5C 476.262,248.738 477.596,247.738 479.5,247.5 Z"/></g>
<g><path style="opacity:0.571" fill="#000000" d="M 581.5,249.5 C 584.089,250.419 586.089,252.086 587.5,254.5C 584.911,253.581 582.911,251.914 581.5,249.5 Z"/></g>
<g><path style="opacity:0.522" fill="#000000" d="M 475.5,250.5 C 471.167,255.5 466.5,260.167 461.5,264.5C 465.167,258.833 469.833,254.167 475.5,250.5 Z"/></g>
<g><path style="opacity:0.513" fill="#000000" d="M 379.5,252.5 C 375.738,262.783 372.405,273.116 369.5,283.5C 370.856,272.434 374.189,262.101 379.5,252.5 Z"/></g>
<g><path style="opacity:0.472" fill="#000000" d="M 773.5,252.5 C 775.416,256.163 776.416,260.163 776.5,264.5C 774.898,260.761 773.898,256.761 773.5,252.5 Z"/></g>
<g><path style="opacity:0.493" fill="#000000" d="M 856.5,252.5 C 858.375,257.89 859.375,263.556 859.5,269.5C 857.883,264.067 856.883,258.4 856.5,252.5 Z"/></g>
<g><path style="opacity:0.338" fill="#000000" d="M 587.5,254.5 C 590.167,255.167 591.833,256.833 592.5,259.5C 590.5,258.167 588.833,256.5 587.5,254.5 Z"/></g>
<g><path style="opacity:0.527" fill="#000000" d="M 593.5,260.5 C 596.973,262.637 599.306,265.637 600.5,269.5C 597.791,266.792 595.458,263.792 593.5,260.5 Z"/></g>
<g><path style="opacity:0.505" fill="#000000" d="M 461.5,264.5 C 461.262,266.404 460.262,267.738 458.5,268.5C 458.738,266.596 459.738,265.262 461.5,264.5 Z"/></g>
<g><path style="opacity:0.466" fill="#000000" d="M 776.5,264.5 C 778.011,267.544 778.678,270.878 778.5,274.5C 777.215,271.411 776.549,268.078 776.5,264.5 Z"/></g>
<g><path style="opacity:0.443" fill="#000000" d="M 948.5,265.5 C 953.341,298.459 953.674,331.459 949.5,364.5C 952.332,331.468 951.999,298.468 948.5,265.5 Z"/></g>
<g><path style="opacity:0.5" fill="#000000" d="M 458.5,268.5 C 458.573,270.027 457.906,271.027 456.5,271.5C 456.427,269.973 457.094,268.973 458.5,268.5 Z"/></g>
<g><path style="opacity:0.512" fill="#000000" d="M 600.5,269.5 C 601.906,269.973 602.573,270.973 602.5,272.5C 601.094,272.027 600.427,271.027 600.5,269.5 Z"/></g>
<g><path style="opacity:0.518" fill="#000000" d="M 456.5,271.5 C 456.25,273.674 455.25,275.341 453.5,276.5C 453.75,274.326 454.75,272.659 456.5,271.5 Z"/></g>
<g><path style="opacity:0.545" fill="#000000" d="M 602.5,272.5 C 605.874,276.581 608.207,281.247 609.5,286.5C 606.659,282.151 604.326,277.484 602.5,272.5 Z"/></g>
<g><path style="opacity:0.528" fill="#000000" d="M 687.5,275.5 C 689.04,277.838 689.706,280.505 689.5,283.5C 688.232,281.095 687.565,278.428 687.5,275.5 Z"/></g>
<g><path style="opacity:0.498" fill="#000000" d="M 860.5,276.5 C 861.877,282.954 862.71,289.62 863,296.5C 863.828,311.672 863.661,326.672 862.5,341.5C 862.848,319.795 862.181,298.128 860.5,276.5 Z"/></g>
<g><path style="opacity:0.615" fill="#000000" d="M 109.5,277.5 C 108.655,300.489 108.322,323.489 108.5,346.5C 107.834,337.173 107.5,327.673 107.5,318C 107.305,304.298 107.972,290.798 109.5,277.5 Z"/></g>
<g><path style="opacity:0.438" fill="#000000" d="M 452.5,278.5 C 452.34,280.153 451.674,281.486 450.5,282.5C 450.229,280.62 450.896,279.287 452.5,278.5 Z"/></g>
<g><path style="opacity:0.524" fill="#000000" d="M 779.5,280.5 C 781.012,285.929 781.679,291.596 781.5,297.5C 780.263,292.04 779.596,286.373 779.5,280.5 Z"/></g>
<g><path style="opacity:0.503" fill="#000000" d="M 450.5,282.5 C 441.57,305.365 441.237,328.365 449.5,351.5C 444.445,341.033 442.111,329.866 442.5,318C 442.122,305.355 444.789,293.522 450.5,282.5 Z"/></g>
<g><path style="opacity:0.505" fill="#000000" d="M 609.5,286.5 C 611.472,289.084 612.472,292.084 612.5,295.5C 610.928,292.785 609.928,289.785 609.5,286.5 Z"/></g>
<g><path style="opacity:0.495" fill="#000000" d="M 368.5,288.5 C 368.31,293.37 367.644,298.036 366.5,302.5C 366.229,297.566 366.896,292.9 368.5,288.5 Z"/></g>
<g><path style="opacity:0.428" fill="#000000" d="M 690.5,288.5 C 691.895,292.591 692.728,296.924 693,301.5C 693.667,313.5 693.667,325.5 693,337.5C 692.728,342.076 691.895,346.409 690.5,350.5C 693.167,329.833 693.167,309.167 690.5,288.5 Z"/></g>
<g><path style="opacity:0.421" fill="#000000" d="M 197.5,292.5 C 195.51,328.611 198.51,364.278 206.5,399.5C 197.063,364.364 194.063,328.697 197.5,292.5 Z"/></g>
<g><path style="opacity:0.601" fill="#000000" d="M 613.5,299.5 C 615.205,304.903 615.872,310.57 615.5,316.5C 614.482,311.016 613.816,305.349 613.5,299.5 Z"/></g>
<g><path style="opacity:0.507" fill="#000000" d="M 366.5,302.5 C 365.155,323.841 367.155,344.841 372.5,365.5C 370.891,362.094 369.724,358.427 369,354.5C 365.552,337.14 364.719,319.807 366.5,302.5 Z"/></g>
<g><path style="opacity:0.4" fill="#000000" d="M 276.5,310.5 C 276.755,328.587 278.089,346.587 280.5,364.5C 278.652,357.752 277.485,350.752 277,343.5C 276.479,335.335 275.979,327.168 275.5,319C 275.502,315.979 275.836,313.146 276.5,310.5 Z"/></g>
<g><path style="opacity:0.508" fill="#000000" d="M 614.5,331.5 C 613.953,339.802 611.619,347.468 607.5,354.5C 610.068,346.805 612.401,339.138 614.5,331.5 Z"/></g>
<g><path style="opacity:0.531" fill="#000000" d="M 781.5,341.5 C 781.362,351.134 780.029,360.467 777.5,369.5C 778.572,359.994 779.906,350.661 781.5,341.5 Z"/></g>
<g><path style="opacity:0.488" fill="#000000" d="M 862.5,341.5 C 862.741,348.73 862.075,355.73 860.5,362.5C 860.681,355.309 861.348,348.309 862.5,341.5 Z"/></g>
<g><path style="opacity:0.53" fill="#000000" d="M 108.5,346.5 C 109.707,353.639 110.374,360.972 110.5,368.5C 108.977,361.389 108.31,354.056 108.5,346.5 Z"/></g>
<g><path style="opacity:0.484" fill="#000000" d="M 690.5,350.5 C 690.373,355.151 689.373,359.485 687.5,363.5C 687.882,358.908 688.882,354.575 690.5,350.5 Z"/></g>
<g><path style="opacity:0.462" fill="#000000" d="M 449.5,351.5 C 451.674,354.515 453.341,357.849 454.5,361.5C 451.793,358.753 450.127,355.42 449.5,351.5 Z"/></g>
<g><path style="opacity:0.517" fill="#000000" d="M 605.5,358.5 C 603.312,364.885 599.645,370.218 594.5,374.5C 598.17,369.158 601.836,363.825 605.5,358.5 Z"/></g>
<g><path style="opacity:0.521" fill="#000000" d="M 454.5,361.5 C 457.241,363.975 459.241,366.975 460.5,370.5C 457.723,368.049 455.723,365.049 454.5,361.5 Z"/></g>
<g><path style="opacity:0.488" fill="#000000" d="M 687.5,363.5 C 686.806,368.915 685.14,373.915 682.5,378.5C 683.595,373.216 685.261,368.216 687.5,363.5 Z"/></g>
<g><path style="opacity:0.487" fill="#000000" d="M 280.5,364.5 C 281.785,367.589 282.451,370.922 282.5,374.5C 280.989,371.456 280.322,368.122 280.5,364.5 Z"/></g>
<g><path style="opacity:0.525" fill="#000000" d="M 372.5,365.5 C 374.875,370.953 376.875,376.619 378.5,382.5C 375.332,377.333 373.332,371.666 372.5,365.5 Z"/></g>
<g><path style="opacity:0.517" fill="#000000" d="M 110.5,368.5 C 113.422,386.453 116.755,404.453 120.5,422.5C 115.263,404.972 111.929,386.972 110.5,368.5 Z"/></g>
<g><path style="opacity:0.49" fill="#000000" d="M 777.5,369.5 C 777.167,375.516 775.834,381.183 773.5,386.5C 774.342,380.603 775.676,374.936 777.5,369.5 Z"/></g>
<g><path style="opacity:0.532" fill="#000000" d="M 460.5,370.5 C 462.914,371.911 464.581,373.911 465.5,376.5C 463.086,375.089 461.419,373.089 460.5,370.5 Z"/></g>
<g><path style="opacity:0.464" fill="#000000" d="M 282.5,374.5 C 284.102,378.239 285.102,382.239 285.5,386.5C 283.584,382.837 282.584,378.837 282.5,374.5 Z"/></g>
<g><path style="opacity:0.466" fill="#000000" d="M 594.5,374.5 C 593.746,377.078 593.746,379.744 594.5,382.5C 593.467,381.088 592.801,379.422 592.5,377.5C 592.453,375.962 593.12,374.962 594.5,374.5 Z"/></g>
<g><path style="opacity:0.478" fill="#000000" d="M 858.5,375.5 C 858.57,379.425 857.903,383.091 856.5,386.5C 856.43,382.575 857.097,378.909 858.5,375.5 Z"/></g>
<g><path style="opacity:0.532" fill="#000000" d="M 465.5,376.5 C 466.043,376.56 466.376,376.893 466.5,377.5C 465.001,382.011 463.335,386.344 461.5,390.5C 462.229,385.649 463.562,380.982 465.5,376.5 Z"/></g>
<g><path style="opacity:0.482" fill="#000000" d="M 682.5,378.5 C 677.096,395.527 668.43,410.527 656.5,423.5C 666.805,409.509 675.471,394.509 682.5,378.5 Z"/></g>
<g><path style="opacity:0.505" fill="#000000" d="M 947.5,380.5 C 947.344,386.767 946.344,392.767 944.5,398.5C 944.872,392.268 945.872,386.268 947.5,380.5 Z"/></g>
<g><path style="opacity:0.506" fill="#000000" d="M 378.5,382.5 C 382.008,388.182 385.008,394.182 387.5,400.5C 383.46,395.086 380.46,389.086 378.5,382.5 Z"/></g>
<g><path style="opacity:0.491" fill="#000000" d="M 594.5,382.5 C 597.276,388.499 599.276,394.833 600.5,401.5C 597.724,395.501 595.724,389.167 594.5,382.5 Z"/></g>
<g><path style="opacity:0.527" fill="#000000" d="M 285.5,386.5 C 287.277,389.505 288.277,392.838 288.5,396.5C 286.723,393.495 285.723,390.162 285.5,386.5 Z"/></g>
<g><path style="opacity:0.501" fill="#000000" d="M 773.5,386.5 C 773.59,389.152 772.924,391.485 771.5,393.5C 771.41,390.848 772.076,388.515 773.5,386.5 Z"/></g>
<g><path style="opacity:0.508" fill="#000000" d="M 856.5,386.5 C 856.58,389.781 855.913,392.781 854.5,395.5C 854.42,392.219 855.087,389.219 856.5,386.5 Z"/></g>
<g><path style="opacity:0.501" fill="#000000" d="M 460.5,393.5 C 459.61,399.166 457.943,404.5 455.5,409.5C 456.39,403.834 458.057,398.5 460.5,393.5 Z"/></g>
<g><path style="opacity:0.431" fill="#000000" d="M 771.5,393.5 C 771.139,397.915 769.806,401.915 767.5,405.5C 768.261,401.216 769.595,397.216 771.5,393.5 Z"/></g>
<g><path style="opacity:0.467" fill="#000000" d="M 206.5,399.5 C 208.258,402.854 209.258,406.521 209.5,410.5C 207.742,407.146 206.742,403.479 206.5,399.5 Z"/></g>
<g><path style="opacity:0.447" fill="#000000" d="M 387.5,400.5 C 389.25,401.659 390.25,403.326 390.5,405.5C 388.75,404.341 387.75,402.674 387.5,400.5 Z"/></g>
<g><path style="opacity:0.502" fill="#000000" d="M 600.5,401.5 C 602.943,406.5 604.61,411.834 605.5,417.5C 603.057,412.5 601.39,407.166 600.5,401.5 Z"/></g>
<g><path style="opacity:0.504" fill="#000000" d="M 290.5,402.5 C 292.737,406.534 294.404,410.868 295.5,415.5C 292.871,411.623 291.204,407.29 290.5,402.5 Z"/></g>
<g><path style="opacity:0.491" fill="#000000" d="M 852.5,403.5 C 852.08,408.529 850.746,413.195 848.5,417.5C 849.231,412.562 850.565,407.895 852.5,403.5 Z"/></g>
<g><path style="opacity:0.522" fill="#000000" d="M 943.5,403.5 C 942.24,413.535 939.907,423.202 936.5,432.5C 938.389,422.613 940.723,412.946 943.5,403.5 Z"/></g>
<g><path style="opacity:0.49" fill="#000000" d="M 390.5,405.5 C 393.241,407.975 395.241,410.975 396.5,414.5C 393.723,412.049 391.723,409.049 390.5,405.5 Z"/></g>
<g><path style="opacity:0.505" fill="#000000" d="M 767.5,405.5 C 767.267,408.542 766.267,411.208 764.5,413.5C 764.733,410.458 765.733,407.792 767.5,405.5 Z"/></g>
<g><path style="opacity:0.466" fill="#000000" d="M 209.5,410.5 C 211.61,414.502 212.943,418.835 213.5,423.5C 211.39,419.498 210.057,415.165 209.5,410.5 Z"/></g>
<g><path style="opacity:0.498" fill="#000000" d="M 454.5,412.5 C 453.61,418.166 451.943,423.5 449.5,428.5C 450.39,422.834 452.057,417.5 454.5,412.5 Z"/></g>
<g><path style="opacity:0.533" fill="#000000" d="M 764.5,413.5 C 760.816,424.534 755.816,434.867 749.5,444.5C 754.263,433.975 759.263,423.642 764.5,413.5 Z"/></g>
<g><path style="opacity:0.49" fill="#000000" d="M 396.5,414.5 C 398.984,416.8 400.984,419.467 402.5,422.5C 399.529,420.557 397.529,417.891 396.5,414.5 Z"/></g>
<g><path style="opacity:0.483" fill="#000000" d="M 295.5,415.5 C 299.737,423.642 303.737,431.976 307.5,440.5C 302.184,432.865 298.184,424.532 295.5,415.5 Z"/></g>
<g><path style="opacity:0.552" fill="#000000" d="M 848.5,417.5 C 848.139,421.915 846.806,425.915 844.5,429.5C 845.261,425.216 846.595,421.216 848.5,417.5 Z"/></g>
<g><path style="opacity:0.49" fill="#000000" d="M 606.5,420.5 C 608.943,425.5 610.61,430.834 611.5,436.5C 609.057,431.5 607.39,426.166 606.5,420.5 Z"/></g>
<g><path style="opacity:0.506" fill="#000000" d="M 120.5,422.5 C 122.258,425.854 123.258,429.521 123.5,433.5C 121.742,430.146 120.742,426.479 120.5,422.5 Z"/></g>
<g><path style="opacity:0.486" fill="#000000" d="M 402.5,422.5 C 405.243,424.239 407.243,426.573 408.5,429.5C 405.757,427.761 403.757,425.427 402.5,422.5 Z"/></g>
<g><path style="opacity:0.475" fill="#000000" d="M 213.5,423.5 C 216.405,429.539 218.738,435.873 220.5,442.5C 217.202,436.615 214.869,430.282 213.5,423.5 Z"/></g>
<g><path style="opacity:0.489" fill="#000000" d="M 656.5,423.5 C 655.243,426.427 653.243,428.761 650.5,430.5C 651.757,427.573 653.757,425.239 656.5,423.5 Z"/></g>
<g><path style="opacity:0.367" fill="#000000" d="M 409.5,430.5 C 411.757,431.562 412.923,433.228 413,435.5C 401.914,447.09 390.414,458.09 378.5,468.5C 389.131,457.368 399.965,446.368 411,435.5C 410.866,433.811 410.366,432.144 409.5,430.5 Z"/></g>
<g><path style="opacity:0.493" fill="#000000" d="M 448.5,431.5 C 447.61,437.166 445.943,442.5 443.5,447.5C 444.39,441.834 446.057,436.5 448.5,431.5 Z"/></g>
<g><path style="opacity:0.377" fill="#000000" d="M 649.5,431.5 C 649.141,433.371 648.141,434.871 646.5,436C 666.833,456.333 687.167,476.667 707.5,497C 708.577,497.47 709.577,497.303 710.5,496.5C 710.489,498.686 709.489,499.519 707.5,499C 686.5,478 665.5,457 644.5,436C 646.037,434.293 647.704,432.793 649.5,431.5 Z"/></g>
<g><path style="opacity:0.49" fill="#000000" d="M 843.5,432.5 C 841.795,439.629 839.128,446.296 835.5,452.5C 837.597,445.53 840.263,438.864 843.5,432.5 Z"/></g>
<g><path style="opacity:0.53" fill="#000000" d="M 936.5,432.5 C 936.59,435.152 935.924,437.485 934.5,439.5C 934.41,436.848 935.076,434.515 936.5,432.5 Z"/></g>
<g><path style="opacity:0.474" fill="#000000" d="M 123.5,433.5 C 126.537,441.615 129.204,449.948 131.5,458.5C 127.658,450.637 124.991,442.303 123.5,433.5 Z"/></g>
<g><path style="opacity:0.5" fill="#000000" d="M 611.5,436.5 C 614.276,442.499 616.276,448.833 617.5,455.5C 614.724,449.501 612.724,443.167 611.5,436.5 Z"/></g>
<g><path style="opacity:0.513" fill="#000000" d="M 934.5,439.5 C 932.473,448.914 929.473,457.914 925.5,466.5C 927.928,457.216 930.928,448.216 934.5,439.5 Z"/></g>
<g><path style="opacity:0.527" fill="#000000" d="M 307.5,440.5 C 309.588,442.336 310.921,444.669 311.5,447.5C 309.412,445.664 308.079,443.331 307.5,440.5 Z"/></g>
<g><path style="opacity:0.48" fill="#000000" d="M 220.5,442.5 C 222.293,444.426 223.293,446.759 223.5,449.5C 221.707,447.574 220.707,445.241 220.5,442.5 Z"/></g>
<g><path style="opacity:0.504" fill="#000000" d="M 749.5,444.5 C 748.921,447.331 747.588,449.664 745.5,451.5C 746.079,448.669 747.412,446.336 749.5,444.5 Z"/></g>
<g><path style="opacity:0.541" fill="#000000" d="M 311.5,447.5 C 313.25,448.659 314.25,450.326 314.5,452.5C 312.75,451.341 311.75,449.674 311.5,447.5 Z"/></g>
<g><path style="opacity:0.511" fill="#000000" d="M 443.5,447.5 C 442.276,454.167 440.276,460.501 437.5,466.5C 438.724,459.833 440.724,453.499 443.5,447.5 Z"/></g>
<g><path style="opacity:0.464" fill="#000000" d="M 223.5,449.5 C 225.625,452.088 226.958,455.088 227.5,458.5C 225.375,455.912 224.042,452.912 223.5,449.5 Z"/></g>
<g><path style="opacity:0.497" fill="#000000" d="M 745.5,451.5 C 745.573,453.027 744.906,454.027 743.5,454.5C 743.427,452.973 744.094,451.973 745.5,451.5 Z"/></g>
<g><path style="opacity:0.496" fill="#000000" d="M 314.5,452.5 C 317.66,456.148 320.327,460.148 322.5,464.5C 318.844,461.197 316.178,457.197 314.5,452.5 Z"/></g>
<g><path style="opacity:0.469" fill="#000000" d="M 835.5,452.5 C 831.874,462.419 827.207,471.752 821.5,480.5C 825.659,470.849 830.325,461.516 835.5,452.5 Z"/></g>
<g><path style="opacity:0.501" fill="#000000" d="M 743.5,454.5 C 741.822,459.197 739.156,463.197 735.5,466.5C 737.673,462.148 740.34,458.148 743.5,454.5 Z"/></g>
<g><path style="opacity:0.511" fill="#000000" d="M 617.5,455.5 C 619.943,460.5 621.61,465.834 622.5,471.5C 620.057,466.5 618.39,461.166 617.5,455.5 Z"/></g>
<g><path style="opacity:0.582" fill="#000000" d="M 227.5,458.5 C 230.674,463.516 233.341,468.849 235.5,474.5C 231.793,469.753 229.126,464.419 227.5,458.5 Z"/></g>
<g><path style="opacity:0.498" fill="#000000" d="M 132.5,461.5 C 134.267,463.792 135.267,466.458 135.5,469.5C 133.733,467.208 132.733,464.542 132.5,461.5 Z"/></g>
<g><path style="opacity:0.535" fill="#000000" d="M 322.5,464.5 C 324.9,466.296 326.567,468.63 327.5,471.5C 325.1,469.704 323.433,467.37 322.5,464.5 Z"/></g>
<g><path style="opacity:0.507" fill="#000000" d="M 437.5,466.5 C 436.276,473.167 434.276,479.501 431.5,485.5C 432.724,478.833 434.724,472.499 437.5,466.5 Z"/></g>
<g><path style="opacity:0.5" fill="#000000" d="M 735.5,466.5 C 733.262,471.071 730.262,475.071 726.5,478.5C 728.738,473.929 731.738,469.929 735.5,466.5 Z"/></g>
<g><path style="opacity:0.495" fill="#000000" d="M 925.5,466.5 C 924.296,471.895 922.296,476.895 919.5,481.5C 920.734,476.117 922.734,471.117 925.5,466.5 Z"/></g>
<g><path style="opacity:0.52" fill="#000000" d="M 135.5,469.5 C 136.931,470.78 137.598,472.447 137.5,474.5C 136.069,473.22 135.402,471.553 135.5,469.5 Z"/></g>
<g><path style="opacity:0.566" fill="#000000" d="M 530.5,475.5 C 529.778,475.082 529.278,474.416 529,473.5C 528.1,476.718 526.933,479.718 525.5,482.5C 525.953,478.307 527.119,474.307 529,470.5C 530.269,471.905 530.769,473.571 530.5,475.5 Z"/></g>
<g><path style="opacity:0.501" fill="#000000" d="M 327.5,471.5 C 330.645,474.46 333.312,477.793 335.5,481.5C 331.874,478.905 329.208,475.572 327.5,471.5 Z"/></g>
<g><path style="opacity:0.506" fill="#000000" d="M 137.5,474.5 C 138.931,475.78 139.598,477.447 139.5,479.5C 138.069,478.22 137.402,476.553 137.5,474.5 Z"/></g>
<g><path style="opacity:0.467" fill="#000000" d="M 235.5,474.5 C 237.924,477.008 239.59,480.008 240.5,483.5C 238.076,480.992 236.41,477.992 235.5,474.5 Z"/></g>
<g><path style="opacity:0.498" fill="#000000" d="M 623.5,474.5 C 625.943,479.5 627.61,484.834 628.5,490.5C 626.057,485.5 624.39,480.166 623.5,474.5 Z"/></g>
<g><path style="opacity:0.492" fill="#000000" d="M 530.5,475.5 C 532.943,480.5 534.61,485.834 535.5,491.5C 533.057,486.5 531.39,481.166 530.5,475.5 Z"/></g>
<g><path style="opacity:0.502" fill="#000000" d="M 726.5,478.5 C 725.581,481.089 723.914,483.089 721.5,484.5C 722.419,481.911 724.086,479.911 726.5,478.5 Z"/></g>
<g><path style="opacity:0.511" fill="#000000" d="M 139.5,479.5 C 141.293,481.426 142.293,483.759 142.5,486.5C 140.707,484.574 139.707,482.241 139.5,479.5 Z"/></g>
<g><path style="opacity:0.458" fill="#000000" d="M 821.5,480.5 C 820.921,483.331 819.588,485.664 817.5,487.5C 818.079,484.669 819.412,482.336 821.5,480.5 Z"/></g>
<g><path style="opacity:0.496" fill="#000000" d="M 335.5,481.5 C 338.243,483.239 340.243,485.573 341.5,488.5C 338.757,486.761 336.757,484.427 335.5,481.5 Z"/></g>
<g><path style="opacity:0.546" fill="#000000" d="M 919.5,481.5 C 919.293,484.241 918.293,486.574 916.5,488.5C 916.707,485.759 917.707,483.426 919.5,481.5 Z"/></g>
<g><path style="opacity:0.498" fill="#000000" d="M 525.5,482.5 C 524.61,488.166 522.943,493.5 520.5,498.5C 521.39,492.834 523.057,487.5 525.5,482.5 Z"/></g>
<g><path style="opacity:0.487" fill="#000000" d="M 240.5,483.5 C 243,486.494 245,489.827 246.5,493.5C 243.498,490.839 241.498,487.505 240.5,483.5 Z"/></g>
<g><path style="opacity:0.544" fill="#000000" d="M 721.5,484.5 C 718.899,488.771 715.566,492.437 711.5,495.5C 714.101,491.229 717.434,487.563 721.5,484.5 Z"/></g>
<g><path style="opacity:0.504" fill="#000000" d="M 431.5,485.5 C 430.276,492.167 428.276,498.501 425.5,504.5C 426.724,497.833 428.724,491.499 431.5,485.5 Z"/></g>
<g><path style="opacity:0.535" fill="#000000" d="M 142.5,486.5 C 144.957,489.751 146.624,493.418 147.5,497.5C 145.043,494.249 143.376,490.582 142.5,486.5 Z"/></g>
<g><path style="opacity:0.564" fill="#000000" d="M 360.5,486.5 C 357.188,490.479 353.521,494.146 349.5,497.5C 346.405,495.411 344.071,492.744 342.5,489.5C 344.814,491.477 347.147,493.477 349.5,495.5C 352.915,492.075 356.581,489.075 360.5,486.5 Z"/></g>
<g><path style="opacity:0.471" fill="#000000" d="M 817.5,487.5 C 817.25,489.674 816.25,491.341 814.5,492.5C 814.75,490.326 815.75,488.659 817.5,487.5 Z"/></g>
<g><path style="opacity:0.539" fill="#000000" d="M 916.5,488.5 C 915.624,492.582 913.957,496.249 911.5,499.5C 912.376,495.418 914.043,491.751 916.5,488.5 Z"/></g>
<g><path style="opacity:0.482" fill="#000000" d="M 814.5,492.5 C 813.617,495.704 811.95,498.371 809.5,500.5C 810.383,497.296 812.05,494.629 814.5,492.5 Z"/></g>
<g><path style="opacity:0.491" fill="#000000" d="M 246.5,493.5 C 250.993,499.148 254.993,505.148 258.5,511.5C 253.511,506.197 249.511,500.197 246.5,493.5 Z"/></g>
<g><path style="opacity:0.487" fill="#000000" d="M 629.5,493.5 C 631.943,498.5 633.61,503.834 634.5,509.5C 632.057,504.5 630.39,499.166 629.5,493.5 Z"/></g>
<g><path style="opacity:0.495" fill="#000000" d="M 536.5,494.5 C 538.943,499.5 540.61,504.834 541.5,510.5C 539.057,505.5 537.39,500.166 536.5,494.5 Z"/></g>
<g><path style="opacity:0.429" fill="#000000" d="M 147.5,497.5 C 150.674,502.516 153.341,507.849 155.5,513.5C 151.793,508.753 149.126,503.419 147.5,497.5 Z"/></g>
<g><path style="opacity:0.399" fill="#000000" d="M 911.5,499.5 C 909.874,505.419 907.207,510.753 903.5,515.5C 905.659,509.849 908.326,504.516 911.5,499.5 Z"/></g>
<g><path style="opacity:0.521" fill="#000000" d="M 809.5,500.5 C 809.573,502.027 808.906,503.027 807.5,503.5C 807.427,501.973 808.094,500.973 809.5,500.5 Z"/></g>
<g><path style="opacity:0.51" fill="#000000" d="M 519.5,501.5 C 518.61,507.166 516.943,512.5 514.5,517.5C 515.39,511.834 517.057,506.5 519.5,501.5 Z"/></g>
<g><path style="opacity:0.51" fill="#000000" d="M 807.5,503.5 C 807.573,505.027 806.906,506.027 805.5,506.5C 805.427,504.973 806.094,503.973 807.5,503.5 Z"/></g>
<g><path style="opacity:0.5" fill="#000000" d="M 425.5,504.5 C 424.276,511.167 422.276,517.501 419.5,523.5C 420.724,516.833 422.724,510.499 425.5,504.5 Z"/></g>
<g><path style="opacity:0.491" fill="#000000" d="M 805.5,506.5 C 804.567,509.37 802.9,511.704 800.5,513.5C 801.433,510.63 803.1,508.296 805.5,506.5 Z"/></g>
<g><path style="opacity:0.496" fill="#000000" d="M 634.5,509.5 C 637.276,515.499 639.276,521.833 640.5,528.5C 637.724,522.501 635.724,516.167 634.5,509.5 Z"/></g>
<g><path style="opacity:0.52" fill="#000000" d="M 258.5,511.5 C 262.262,514.929 265.262,518.929 267.5,523.5C 263.738,520.071 260.738,516.071 258.5,511.5 Z"/></g>
<g><path style="opacity:0.499" fill="#000000" d="M 542.5,513.5 C 544.943,518.5 546.61,523.834 547.5,529.5C 545.057,524.5 543.39,519.166 542.5,513.5 Z"/></g>
<g><path style="opacity:0.493" fill="#000000" d="M 800.5,513.5 C 799.471,516.891 797.471,519.557 794.5,521.5C 796.016,518.467 798.016,515.8 800.5,513.5 Z"/></g>
<g><path style="opacity:0.514" fill="#000000" d="M 156.5,515.5 C 159.258,518.678 161.258,522.345 162.5,526.5C 159.742,523.322 157.742,519.655 156.5,515.5 Z"/></g>
<g><path style="opacity:0.509" fill="#000000" d="M 903.5,515.5 C 902.258,519.655 900.258,523.322 897.5,526.5C 898.742,522.345 900.742,518.678 903.5,515.5 Z"/></g>
<g><path style="opacity:0.5" fill="#000000" d="M 514.5,517.5 C 513.276,524.167 511.276,530.501 508.5,536.5C 509.724,529.833 511.724,523.499 514.5,517.5 Z"/></g>
<g><path style="opacity:0.48" fill="#000000" d="M 794.5,521.5 C 792.515,525.456 790.015,529.122 787,532.5C 784.963,534.706 782.797,536.706 780.5,538.5C 784.452,532.272 789.119,526.606 794.5,521.5 Z"/></g>
<g><path style="opacity:0.517" fill="#000000" d="M 267.5,523.5 C 269.587,524.585 270.92,526.251 271.5,528.5C 269.413,527.415 268.08,525.749 267.5,523.5 Z"/></g>
<g><path style="opacity:0.496" fill="#000000" d="M 419.5,523.5 C 418.276,530.167 416.276,536.501 413.5,542.5C 414.724,535.833 416.724,529.499 419.5,523.5 Z"/></g>
<g><path style="opacity:0.518" fill="#000000" d="M 162.5,526.5 C 164.25,527.659 165.25,529.326 165.5,531.5C 163.75,530.341 162.75,528.674 162.5,526.5 Z"/></g>
<g><path style="opacity:0.507" fill="#000000" d="M 897.5,526.5 C 893.167,535.844 887.833,544.511 881.5,552.5C 886.335,543.491 891.668,534.824 897.5,526.5 Z"/></g>
<g><path style="opacity:0.488" fill="#000000" d="M 271.5,528.5 C 276.533,533.532 281.199,538.865 285.5,544.5C 279.722,540.06 275.055,534.727 271.5,528.5 Z"/></g>
<g><path style="opacity:0.506" fill="#000000" d="M 640.5,528.5 C 642.943,533.5 644.61,538.834 645.5,544.5C 643.057,539.5 641.39,534.166 640.5,528.5 Z"/></g>
<g><path style="opacity:0.502" fill="#000000" d="M 165.5,531.5 C 168,534.494 170,537.827 171.5,541.5C 168.498,538.839 166.498,535.505 165.5,531.5 Z"/></g>
<g><path style="opacity:0.503" fill="#000000" d="M 548.5,532.5 C 550.943,537.5 552.61,542.834 553.5,548.5C 551.057,543.5 549.39,538.166 548.5,532.5 Z"/></g>
<g><path style="opacity:0.491" fill="#000000" d="M 508.5,536.5 C 507.61,542.166 505.943,547.5 503.5,552.5C 504.39,546.834 506.057,541.5 508.5,536.5 Z"/></g>
<g><path style="opacity:0.446" fill="#000000" d="M 780.5,538.5 C 777.564,543.105 773.898,547.105 769.5,550.5C 772.436,545.895 776.102,541.895 780.5,538.5 Z"/></g>
<g><path style="opacity:0.493" fill="#000000" d="M 171.5,541.5 C 175.993,547.148 179.993,553.148 183.5,559.5C 178.511,554.197 174.511,548.197 171.5,541.5 Z"/></g>
<g><path style="opacity:0.513" fill="#000000" d="M 413.5,542.5 C 412.61,548.166 410.943,553.5 408.5,558.5C 409.39,552.834 411.057,547.5 413.5,542.5 Z"/></g>
<g><path style="opacity:0.419" fill="#000000" d="M 286.5,545.5 C 290.165,547.629 292.332,550.629 293,554.5C 272.5,575 252,595.5 231.5,616C 228.474,615.481 226.474,613.648 225.5,610.5C 226.962,611.458 228.295,612.624 229.5,614C 230.167,614.667 230.833,614.667 231.5,614C 251.833,593.667 272.167,573.333 292.5,553C 289.882,550.894 287.882,548.394 286.5,545.5 Z"/></g>
<g><path style="opacity:0.495" fill="#000000" d="M 646.5,547.5 C 648.943,552.5 650.61,557.834 651.5,563.5C 649.057,558.5 647.39,553.166 646.5,547.5 Z"/></g>
<g><path style="opacity:0.507" fill="#000000" d="M 554.5,551.5 C 556.943,556.5 558.61,561.834 559.5,567.5C 557.057,562.5 555.39,557.166 554.5,551.5 Z"/></g>
<g><path style="opacity:0.473" fill="#000000" d="M 881.5,552.5 C 881.573,554.027 880.906,555.027 879.5,555.5C 879.427,553.973 880.094,552.973 881.5,552.5 Z"/></g>
<g><path style="opacity:0.644" fill="#000000" d="M 766.5,553.5 C 770.167,558.167 773.833,562.833 777.5,567.5C 773.036,563.537 768.702,559.37 764.5,555C 765.044,554.283 765.711,553.783 766.5,553.5 Z"/></g>
<g><path style="opacity:0.503" fill="#000000" d="M 502.5,555.5 C 501.61,561.166 499.943,566.5 497.5,571.5C 498.39,565.834 500.057,560.5 502.5,555.5 Z"/></g>
<g><path style="opacity:0.505" fill="#000000" d="M 879.5,555.5 C 877.145,560.88 873.812,565.546 869.5,569.5C 872.345,564.473 875.679,559.806 879.5,555.5 Z"/></g>
<g><path style="opacity:0.504" fill="#000000" d="M 183.5,559.5 C 184.906,559.973 185.573,560.973 185.5,562.5C 184.094,562.027 183.427,561.027 183.5,559.5 Z"/></g>
<g><path style="opacity:0.509" fill="#000000" d="M 407.5,561.5 C 406.61,567.166 404.943,572.5 402.5,577.5C 403.39,571.834 405.057,566.5 407.5,561.5 Z"/></g>
<g><path style="opacity:0.496" fill="#000000" d="M 185.5,562.5 C 187.262,563.262 188.262,564.596 188.5,566.5C 186.738,565.738 185.738,564.404 185.5,562.5 Z"/></g>
<g><path style="opacity:0.507" fill="#000000" d="M 188.5,566.5 C 190.984,568.8 192.984,571.467 194.5,574.5C 191.529,572.557 189.529,569.891 188.5,566.5 Z"/></g>
<g><path style="opacity:0.483" fill="#000000" d="M 652.5,566.5 C 654.943,571.5 656.61,576.834 657.5,582.5C 655.057,577.5 653.39,572.166 652.5,566.5 Z"/></g>
<g><path style="opacity:0.512" fill="#000000" d="M 869.5,569.5 C 869.262,571.404 868.262,572.738 866.5,573.5C 866.738,571.596 867.738,570.262 869.5,569.5 Z"/></g>
<g><path style="opacity:0.51" fill="#000000" d="M 560.5,570.5 C 562.943,575.5 564.61,580.834 565.5,586.5C 563.057,581.5 561.39,576.166 560.5,570.5 Z"/></g>
<g><path style="opacity:0.494" fill="#000000" d="M 497.5,571.5 C 496.276,578.167 494.276,584.501 491.5,590.5C 492.724,583.833 494.724,577.499 497.5,571.5 Z"/></g>
<g><path style="opacity:0.516" fill="#000000" d="M 866.5,573.5 C 864.889,577.051 862.556,580.051 859.5,582.5C 861.111,578.949 863.444,575.949 866.5,573.5 Z"/></g>
<g><path style="opacity:0.503" fill="#000000" d="M 194.5,574.5 C 196.262,575.262 197.262,576.596 197.5,578.5C 195.738,577.738 194.738,576.404 194.5,574.5 Z"/></g>
<g><path style="opacity:0.424" fill="#000000" d="M 786.5,576.5 C 799.965,589.465 813.299,602.631 826.5,616C 827.167,616.667 827.833,616.667 828.5,616C 832.369,611.963 836.369,608.13 840.5,604.5C 837.102,609.406 833.102,613.906 828.5,618C 827.833,618.667 827.167,618.667 826.5,618C 812.578,604.581 799.245,590.748 786.5,576.5 Z"/></g>
<g><path style="opacity:0.506" fill="#000000" d="M 197.5,578.5 C 201.215,581.607 204.215,585.273 206.5,589.5C 202.785,586.393 199.785,582.727 197.5,578.5 Z"/></g>
<g><path style="opacity:0.505" fill="#000000" d="M 401.5,580.5 C 400.61,586.166 398.943,591.5 396.5,596.5C 397.39,590.834 399.057,585.5 401.5,580.5 Z"/></g>
<g><path style="opacity:0.493" fill="#000000" d="M 657.5,582.5 C 660.276,588.499 662.276,594.833 663.5,601.5C 660.724,595.501 658.724,589.167 657.5,582.5 Z"/></g>
<g><path style="opacity:0.498" fill="#000000" d="M 859.5,582.5 C 857.118,587.248 853.784,591.248 849.5,594.5C 852.359,590.122 855.692,586.122 859.5,582.5 Z"/></g>
<g><path style="opacity:0.494" fill="#000000" d="M 206.5,589.5 C 209.243,591.239 211.243,593.573 212.5,596.5C 209.757,594.761 207.757,592.427 206.5,589.5 Z"/></g>
<g><path style="opacity:0.514" fill="#000000" d="M 566.5,589.5 C 568.943,594.5 570.61,599.834 571.5,605.5C 569.057,600.5 567.39,595.166 566.5,589.5 Z"/></g>
<g><path style="opacity:0.485" fill="#000000" d="M 491.5,590.5 C 490.61,596.166 488.943,601.5 486.5,606.5C 487.39,600.834 489.057,595.5 491.5,590.5 Z"/></g>
<g><path style="opacity:0.503" fill="#000000" d="M 849.5,594.5 C 847.57,598.1 844.903,601.1 841.5,603.5C 843.43,599.9 846.097,596.9 849.5,594.5 Z"/></g>
<g><path style="opacity:0.533" fill="#000000" d="M 213.5,597.5 C 217.566,600.563 220.899,604.229 223.5,608.5C 219.434,605.437 216.101,601.771 213.5,597.5 Z"/></g>
<g><path style="opacity:0.501" fill="#000000" d="M 395.5,599.5 C 394.61,605.166 392.943,610.5 390.5,615.5C 391.39,609.834 393.057,604.5 395.5,599.5 Z"/></g>
<g><path style="opacity:0.504" fill="#000000" d="M 663.5,601.5 C 665.943,606.5 667.61,611.834 668.5,617.5C 666.057,612.5 664.39,607.166 663.5,601.5 Z"/></g>
<g><path style="opacity:0.497" fill="#000000" d="M 571.5,605.5 C 574.276,611.499 576.276,617.833 577.5,624.5C 574.724,618.501 572.724,612.167 571.5,605.5 Z"/></g>
<g><path style="opacity:0.497" fill="#000000" d="M 485.5,609.5 C 484.61,615.166 482.943,620.5 480.5,625.5C 481.39,619.834 483.057,614.5 485.5,609.5 Z"/></g>
<g><path style="opacity:0.498" fill="#000000" d="M 389.5,618.5 C 388.61,624.166 386.943,629.5 384.5,634.5C 385.39,628.834 387.057,623.5 389.5,618.5 Z"/></g>
<g><path style="opacity:0.491" fill="#000000" d="M 669.5,620.5 C 671.943,625.5 673.61,630.834 674.5,636.5C 672.057,631.5 670.39,626.166 669.5,620.5 Z"/></g>
<g><path style="opacity:0.501" fill="#000000" d="M 577.5,624.5 C 580.276,630.499 582.276,636.833 583.5,643.5C 580.724,637.501 578.724,631.167 577.5,624.5 Z"/></g>
<g><path style="opacity:0.509" fill="#000000" d="M 479.5,628.5 C 478.61,634.166 476.943,639.5 474.5,644.5C 475.39,638.834 477.057,633.5 479.5,628.5 Z"/></g>
<g><path style="opacity:0.515" fill="#000000" d="M 384.5,634.5 C 383.276,641.167 381.276,647.501 378.5,653.5C 379.724,646.833 381.724,640.499 384.5,634.5 Z"/></g>
<g><path style="opacity:0.501" fill="#000000" d="M 674.5,636.5 C 677.276,642.499 679.276,648.833 680.5,655.5C 677.724,649.501 675.724,643.167 674.5,636.5 Z"/></g>
<g><path style="opacity:0.504" fill="#000000" d="M 583.5,643.5 C 586.276,649.499 588.276,655.833 589.5,662.5C 586.724,656.501 584.724,650.167 583.5,643.5 Z"/></g>
<g><path style="opacity:0.499" fill="#000000" d="M 474.5,644.5 C 473.276,651.167 471.276,657.501 468.5,663.5C 469.724,656.833 471.724,650.499 474.5,644.5 Z"/></g>
<g><path style="opacity:0.511" fill="#000000" d="M 378.5,653.5 C 377.276,660.167 375.276,666.501 372.5,672.5C 373.724,665.833 375.724,659.499 378.5,653.5 Z"/></g>
<g><path style="opacity:0.49" fill="#000000" d="M 680.5,655.5 C 683.276,661.499 685.276,667.833 686.5,674.5C 683.724,668.501 681.724,662.167 680.5,655.5 Z"/></g>
<g><path style="opacity:0.508" fill="#000000" d="M 589.5,662.5 C 592.276,668.499 594.276,674.833 595.5,681.5C 592.724,675.501 590.724,669.167 589.5,662.5 Z"/></g>
<g><path style="opacity:0.49" fill="#000000" d="M 468.5,663.5 C 467.61,669.166 465.943,674.5 463.5,679.5C 464.39,673.834 466.057,668.5 468.5,663.5 Z"/></g>
<g><path style="opacity:0.507" fill="#000000" d="M 372.5,672.5 C 371.276,679.167 369.276,685.501 366.5,691.5C 367.724,684.833 369.724,678.499 372.5,672.5 Z"/></g>
<g><path style="opacity:0.5" fill="#000000" d="M 686.5,674.5 C 688.943,679.5 690.61,684.834 691.5,690.5C 689.057,685.5 687.39,680.166 686.5,674.5 Z"/></g>
<g><path style="opacity:0.488" fill="#000000" d="M 595.5,681.5 C 596.91,684.542 598.243,687.709 599.5,691C 598.906,691.464 598.239,691.631 597.5,691.5C 596.626,688.211 595.959,684.877 595.5,681.5 Z"/></g>
<g><path style="opacity:0.497" fill="#000000" d="M 462.5,682.5 C 462.244,685.598 461.578,688.598 460.5,691.5C 459.903,691.265 459.57,690.765 459.5,690C 460.233,687.28 461.233,684.78 462.5,682.5 Z"/></g>
<g><path style="opacity:0.503" fill="#000000" d="M 366.5,691.5 C 365.276,698.167 363.276,704.501 360.5,710.5C 361.724,703.833 363.724,697.499 366.5,691.5 Z"/></g>
<g><path style="opacity:0.488" fill="#000000" d="M 692.5,693.5 C 694.943,698.5 696.61,703.834 697.5,709.5C 695.057,704.5 693.39,699.166 692.5,693.5 Z"/></g>
<g><path style="opacity:0.497" fill="#000000" d="M 697.5,709.5 C 700.276,715.499 702.276,721.833 703.5,728.5C 700.724,722.501 698.724,716.167 697.5,709.5 Z"/></g>
<g><path style="opacity:0.5" fill="#000000" d="M 360.5,710.5 C 359.276,717.167 357.276,723.501 354.5,729.5C 355.724,722.833 357.724,716.499 360.5,710.5 Z"/></g>
<g><path style="opacity:0.508" fill="#000000" d="M 703.5,728.5 C 705.943,733.5 707.61,738.834 708.5,744.5C 706.057,739.5 704.39,734.166 703.5,728.5 Z"/></g>
<g><path style="opacity:0.495" fill="#000000" d="M 354.5,729.5 C 353.276,736.167 351.276,742.501 348.5,748.5C 349.724,741.833 351.724,735.499 354.5,729.5 Z"/></g>
<g><path style="opacity:0.496" fill="#000000" d="M 709.5,747.5 C 711.943,752.5 713.61,757.834 714.5,763.5C 712.057,758.5 710.39,753.166 709.5,747.5 Z"/></g>
<g><path style="opacity:0.512" fill="#000000" d="M 348.5,748.5 C 347.61,754.166 345.943,759.5 343.5,764.5C 344.39,758.834 346.057,753.5 348.5,748.5 Z"/></g>
<g><path style="opacity:0.485" fill="#000000" d="M 715.5,766.5 C 717.943,771.5 719.61,776.834 720.5,782.5C 718.057,777.5 716.39,772.166 715.5,766.5 Z"/></g>
<g><path style="opacity:0.508" fill="#000000" d="M 342.5,767.5 C 341.61,773.166 339.943,778.5 337.5,783.5C 338.39,777.834 340.057,772.5 342.5,767.5 Z"/></g>
<g><path style="opacity:0.123" fill="#000000" d="M 630.5,792.5 C 628.998,789.346 627.664,786.013 626.5,782.5C 561.503,781.5 496.503,781.167 431.5,781.5C 431.072,784.785 430.072,787.785 428.5,790.5C 428.959,787.123 429.626,783.789 430.5,780.5C 496.17,780.167 561.837,780.5 627.5,781.5C 629.117,785.014 630.117,788.681 630.5,792.5 Z"/></g>
<g><path style="opacity:0.493" fill="#000000" d="M 720.5,782.5 C 723.276,788.499 725.276,794.833 726.5,801.5C 723.724,795.501 721.724,789.167 720.5,782.5 Z"/></g>
<g><path style="opacity:0.505" fill="#000000" d="M 336.5,786.5 C 335.61,792.166 333.943,797.5 331.5,802.5C 332.39,796.834 334.057,791.5 336.5,786.5 Z"/></g>
<g><path style="opacity:0.49" fill="#000000" d="M 428.5,790.5 C 427.61,796.166 425.943,801.5 423.5,806.5C 424.39,800.834 426.057,795.5 428.5,790.5 Z"/></g>
<g><path style="opacity:0.514" fill="#000000" d="M 631.5,795.5 C 633.943,800.5 635.61,805.834 636.5,811.5C 634.057,806.5 632.39,801.166 631.5,795.5 Z"/></g>
<g><path style="opacity:0.505" fill="#000000" d="M 726.5,801.5 C 728.943,806.5 730.61,811.834 731.5,817.5C 729.057,812.5 727.39,807.166 726.5,801.5 Z"/></g>
<g><path style="opacity:0.5" fill="#000000" d="M 330.5,805.5 C 329.61,811.166 327.943,816.5 325.5,821.5C 326.39,815.834 328.057,810.5 330.5,805.5 Z"/></g>
<g><path style="opacity:0.503" fill="#000000" d="M 422.5,809.5 C 421.61,815.166 419.943,820.5 417.5,825.5C 418.39,819.834 420.057,814.5 422.5,809.5 Z"/></g>
<g><path style="opacity:0.497" fill="#000000" d="M 636.5,811.5 C 639.276,817.499 641.276,823.833 642.5,830.5C 639.724,824.501 637.724,818.167 636.5,811.5 Z"/></g>
<g><path style="opacity:0.493" fill="#000000" d="M 732.5,820.5 C 734.943,825.5 736.61,830.834 737.5,836.5C 735.057,831.5 733.39,826.166 732.5,820.5 Z"/></g>
<g><path style="opacity:0.497" fill="#000000" d="M 324.5,824.5 C 323.61,830.166 321.943,835.5 319.5,840.5C 320.39,834.834 322.057,829.5 324.5,824.5 Z"/></g>
<g><path style="opacity:0.493" fill="#000000" d="M 417.5,825.5 C 416.276,832.167 414.276,838.501 411.5,844.5C 412.724,837.833 414.724,831.499 417.5,825.5 Z"/></g>
<g><path style="opacity:0.501" fill="#000000" d="M 642.5,830.5 C 645.276,836.499 647.276,842.833 648.5,849.5C 645.724,843.501 643.724,837.167 642.5,830.5 Z"/></g>
<g><path style="opacity:0.503" fill="#000000" d="M 737.5,836.5 C 740.276,842.499 742.276,848.833 743.5,855.5C 740.724,849.501 738.724,843.167 737.5,836.5 Z"/></g>
<g><path style="opacity:0.514" fill="#000000" d="M 319.5,840.5 C 318.276,847.167 316.276,853.501 313.5,859.5C 314.724,852.833 316.724,846.499 319.5,840.5 Z"/></g>
<g><path style="opacity:0.484" fill="#000000" d="M 411.5,844.5 C 410.61,850.166 408.943,855.5 406.5,860.5C 407.39,854.834 409.057,849.5 411.5,844.5 Z"/></g>
<g><path style="opacity:0.504" fill="#000000" d="M 648.5,849.5 C 651.276,855.499 653.276,861.833 654.5,868.5C 651.724,862.501 649.724,856.167 648.5,849.5 Z"/></g>
<g><path style="opacity:0.491" fill="#000000" d="M 743.5,855.5 C 746.276,861.499 748.276,867.833 749.5,874.5C 746.724,868.501 744.724,862.167 743.5,855.5 Z"/></g>
<g><path style="opacity:0.51" fill="#000000" d="M 313.5,859.5 C 312.276,866.167 310.276,872.501 307.5,878.5C 308.724,871.833 310.724,865.499 313.5,859.5 Z"/></g>
<g><path style="opacity:0.496" fill="#000000" d="M 405.5,863.5 C 404.61,869.166 402.943,874.5 400.5,879.5C 401.39,873.834 403.057,868.5 405.5,863.5 Z"/></g>
<g><path style="opacity:0.508" fill="#000000" d="M 654.5,868.5 C 657.276,874.499 659.276,880.833 660.5,887.5C 657.724,881.501 655.724,875.167 654.5,868.5 Z"/></g>
<g><path style="opacity:0.5" fill="#000000" d="M 749.5,874.5 C 751.943,879.5 753.61,884.834 754.5,890.5C 752.057,885.5 750.39,880.166 749.5,874.5 Z"/></g>
<g><path style="opacity:0.506" fill="#000000" d="M 307.5,878.5 C 306.276,885.167 304.276,891.501 301.5,897.5C 302.724,890.833 304.724,884.499 307.5,878.5 Z"/></g>
<g><path style="opacity:0.509" fill="#000000" d="M 399.5,882.5 C 398.61,888.166 396.943,893.5 394.5,898.5C 395.39,892.834 397.057,887.5 399.5,882.5 Z"/></g>
<g><path style="opacity:0.512" fill="#000000" d="M 660.5,887.5 C 663.276,893.499 665.276,899.833 666.5,906.5C 663.724,900.501 661.724,894.167 660.5,887.5 Z"/></g>
<g><path style="opacity:0.489" fill="#000000" d="M 755.5,893.5 C 757.943,898.5 759.61,903.834 760.5,909.5C 758.057,904.5 756.39,899.166 755.5,893.5 Z"/></g>
<g><path style="opacity:0.502" fill="#000000" d="M 301.5,897.5 C 300.276,904.167 298.276,910.501 295.5,916.5C 296.724,909.833 298.724,903.499 301.5,897.5 Z"/></g>
<g><path style="opacity:0.499" fill="#000000" d="M 394.5,898.5 C 393.276,905.167 391.276,911.501 388.5,917.5C 389.724,910.833 391.724,904.499 394.5,898.5 Z"/></g>
<g><path style="opacity:0.494" fill="#000000" d="M 666.5,906.5 C 668.943,911.5 670.61,916.834 671.5,922.5C 669.057,917.5 667.39,912.166 666.5,906.5 Z"/></g>
<g><path style="opacity:0.499" fill="#000000" d="M 760.5,909.5 C 763.276,915.499 765.276,921.833 766.5,928.5C 763.724,922.501 761.724,916.167 760.5,909.5 Z"/></g>
<g><path style="opacity:0.499" fill="#000000" d="M 295.5,916.5 C 294.276,923.167 292.276,929.501 289.5,935.5C 290.724,928.833 292.724,922.499 295.5,916.5 Z"/></g>
<g><path style="opacity:0.49" fill="#000000" d="M 388.5,917.5 C 387.61,923.166 385.943,928.5 383.5,933.5C 384.39,927.834 386.057,922.5 388.5,917.5 Z"/></g>
<g><path style="opacity:0.498" fill="#000000" d="M 672.5,925.5 C 674.943,930.5 676.61,935.834 677.5,941.5C 675.057,936.5 673.39,931.166 672.5,925.5 Z"/></g>
<g><path style="opacity:0.266" fill="#000000" d="M 766.5,928.5 C 768.335,932.656 770.001,936.989 771.5,941.5C 788.487,942.499 805.487,942.833 822.5,942.5C 822.5,972.5 822.5,1002.5 822.5,1032.5C 627.167,1032.5 431.833,1032.5 236.5,1032.5C 236.5,1002.5 236.5,972.5 236.5,942.5C 253.17,942.667 269.837,942.5 286.5,942C 287.422,939.706 288.422,937.539 289.5,935.5C 289.534,938.199 288.867,940.699 287.5,943C 270.837,943.5 254.17,943.667 237.5,943.5C 237.5,972.833 237.5,1002.17 237.5,1031.5C 432.167,1031.5 626.833,1031.5 821.5,1031.5C 821.5,1002.17 821.5,972.833 821.5,943.5C 804.487,943.833 787.487,943.499 770.5,942.5C 768.551,937.99 767.218,933.323 766.5,928.5 Z"/></g>
<g><path style="opacity:0.923" fill="#000000" d="M 382.5,936.5 C 382.643,938.262 382.309,939.929 381.5,941.5C 480.332,942.832 578.999,942.832 677.5,941.5C 678.043,941.56 678.376,941.893 678.5,942.5C 579.169,943.5 479.836,943.833 380.5,943.5C 380.41,940.848 381.076,938.515 382.5,936.5 Z"/></g>
</svg>
