<?xml version="1.0" encoding="UTF-8"?>
<!DOCTYPE svg PUBLIC "-//W3C//DTD SVG 1.1//EN" "http://www.w3.org/Graphics/SVG/1.1/DTD/svg11.dtd">
<svg xmlns="http://www.w3.org/2000/svg" version="1.1" width="341px" height="341px" style="shape-rendering:geometricPrecision; text-rendering:geometricPrecision; image-rendering:optimizeQuality; fill-rule:evenodd; clip-rule:evenodd" xmlns:xlink="http://www.w3.org/1999/xlink">
<g><path style="opacity:0.979" fill="#0a1256" d="M 97.5,35.5 C 124.876,33.1846 149.21,40.5179 170.5,57.5C 204.738,33.284 240.404,31.1174 277.5,51C 304.353,74.2199 314.519,103.387 308,138.5C 298.64,168.89 284.307,196.557 265,221.5C 238.607,252.896 210.44,282.73 180.5,311C 171.933,313.341 163.6,312.674 155.5,309C 118.395,270.075 83.728,229.242 51.5,186.5C 64.1211,184.772 76.7878,183.272 89.5,182C 92.7021,181.802 95.7021,180.969 98.5,179.5C 105.275,162.618 113.108,146.285 122,130.5C 133.888,166.835 146.555,202.835 160,238.5C 167.167,227.5 174.333,216.5 181.5,205.5C 182.5,205.167 183.5,204.833 184.5,204.5C 195.421,207.186 206.421,209.02 217.5,210C 227.674,202.189 228.841,193.355 221,183.5C 215.612,178.47 209.446,177.303 202.5,180C 193.848,185.323 184.515,188.99 174.5,191C 170.977,195.022 167.643,199.189 164.5,203.5C 149.796,164.746 135.629,125.746 122,86.5C 111.218,112.183 100.051,137.683 88.5,163C 73.7455,165.648 58.9122,166.148 44,164.5C 43.1667,164.167 42.3333,163.833 41.5,163.5C 18.6325,107.914 33.6325,66.4138 86.5,39C 90.1613,37.4075 93.828,36.2408 97.5,35.5 Z"/></g>
</svg>
