<?xml version="1.0" encoding="UTF-8"?>
<!DOCTYPE svg PUBLIC "-//W3C//DTD SVG 1.1//EN" "http://www.w3.org/Graphics/SVG/1.1/DTD/svg11.dtd">
<svg xmlns="http://www.w3.org/2000/svg" version="1.1" width="1825px" height="1825px" style="shape-rendering:geometricPrecision; text-rendering:geometricPrecision; image-rendering:optimizeQuality; fill-rule:evenodd; clip-rule:evenodd" xmlns:xlink="http://www.w3.org/1999/xlink">
<g><path style="opacity:0.509" fill="#000000" d="M 967.5,146.5 C 962.167,146.5 956.833,146.5 951.5,146.5C 951.472,165.372 950.472,184.039 948.5,202.5C 949.447,183.511 950.113,164.511 950.5,145.5C 956.358,145.178 962.025,145.511 967.5,146.5 Z"/></g>
<g><path style="opacity:1" fill="#0a1357" d="M 967.5,146.5 C 972.032,146.182 976.366,146.515 980.5,147.5C 986.959,148.813 993.626,149.479 1000.5,149.5C 1152.24,167.566 1286.91,224.732 1404.5,321C 1240.83,484.667 1077.17,648.333 913.5,812C 912.833,812.667 912.167,812.667 911.5,812C 864.333,764.833 817.167,717.667 770,670.5C 769.517,669.552 769.351,668.552 769.5,667.5C 771.587,666.415 772.92,664.749 773.5,662.5C 775.587,661.415 776.92,659.749 777.5,657.5C 781.592,653.742 784.926,649.409 787.5,644.5C 790.933,641.399 793.6,637.732 795.5,633.5C 797.262,632.738 798.262,631.404 798.5,629.5C 802.237,625.698 805.237,621.365 807.5,616.5C 810.277,614.049 812.277,611.049 813.5,607.5C 814.906,607.027 815.573,606.027 815.5,604.5C 816.906,604.027 817.573,603.027 817.5,601.5C 818.906,601.027 819.573,600.027 819.5,598.5C 821.95,596.371 823.617,593.704 824.5,590.5C 826.95,588.371 828.617,585.704 829.5,582.5C 831.25,581.341 832.25,579.674 832.5,577.5C 834.25,576.341 835.25,574.674 835.5,572.5C 837.588,570.664 838.921,568.331 839.5,565.5C 841.588,563.664 842.921,561.331 843.5,558.5C 845.924,555.992 847.59,552.992 848.5,549.5C 852.594,543.649 855.927,537.315 858.5,530.5C 859.659,526.849 861.326,523.515 863.5,520.5C 867.288,514.588 870.288,508.255 872.5,501.5C 874.957,498.249 876.624,494.582 877.5,490.5C 879.293,488.574 880.293,486.241 880.5,483.5C 883.961,477.57 886.627,471.236 888.5,464.5C 890.964,460.556 892.63,456.223 893.5,451.5C 896.798,445.615 899.131,439.282 900.5,432.5C 904.806,422.914 908.14,412.914 910.5,402.5C 913.412,396.201 915.412,389.535 916.5,382.5C 917.924,380.485 918.59,378.152 918.5,375.5C 920.591,370.809 921.924,365.809 922.5,360.5C 922.898,356.239 923.898,352.239 925.5,348.5C 927.26,344.453 928.26,340.12 928.5,335.5C 933.555,316.886 937.222,297.886 939.5,278.5C 939.958,271.62 940.958,264.953 942.5,258.5C 944.304,250.737 945.304,242.737 945.5,234.5C 946.936,228.053 947.603,221.386 947.5,214.5C 947.183,210.298 947.517,206.298 948.5,202.5C 950.472,184.039 951.472,165.372 951.5,146.5C 956.833,146.5 962.167,146.5 967.5,146.5 Z"/></g>
<g><path style="opacity:0.498" fill="#000000" d="M 980.5,147.5 C 987.386,147.397 994.053,148.064 1000.5,149.5C 993.626,149.479 986.959,148.813 980.5,147.5 Z"/></g>
<g><path style="opacity:1" fill="#0a1357" d="M 439.5,304.5 C 441.404,304.262 442.738,303.262 443.5,301.5C 445.404,301.262 446.738,300.262 447.5,298.5C 449.404,298.262 450.738,297.262 451.5,295.5C 455.732,293.6 459.399,290.933 462.5,287.5C 466.392,285.938 469.725,283.605 472.5,280.5C 474.027,280.573 475.027,279.906 475.5,278.5C 477.027,278.573 478.027,277.906 478.5,276.5C 482.025,275.241 485.025,273.241 487.5,270.5C 489.027,270.573 490.027,269.906 490.5,268.5C 501.102,262.556 511.436,256.222 521.5,249.5C 524.331,248.921 526.664,247.588 528.5,245.5C 531.992,244.59 534.992,242.924 537.5,240.5C 541.655,239.258 545.322,237.258 548.5,234.5C 548.842,233.662 549.508,233.328 550.5,233.5C 560.151,229.341 569.484,224.675 578.5,219.5C 583.251,218.29 587.584,216.29 591.5,213.5C 594.912,212.958 597.912,211.625 600.5,209.5C 603.241,209.293 605.574,208.293 607.5,206.5C 613.566,204.961 619.233,202.628 624.5,199.5C 629.223,198.63 633.556,196.964 637.5,194.5C 641.537,193.935 645.203,192.601 648.5,190.5C 659.784,187.405 670.784,183.739 681.5,179.5C 685.162,179.277 688.495,178.277 691.5,176.5C 707.011,172.79 722.344,168.79 737.5,164.5C 740.781,164.58 743.781,163.913 746.5,162.5C 755.077,161.451 763.411,159.785 771.5,157.5C 781.181,156.275 790.848,154.942 800.5,153.5C 797.605,268.997 769.105,377.663 715,479.5C 698.988,508.204 680.988,535.537 661,561.5C 580.833,481.333 500.667,401.167 420.5,321C 426.905,315.482 433.239,309.982 439.5,304.5 Z"/></g>
<g><path style="opacity:0.488" fill="#000000" d="M 771.5,157.5 C 763.411,159.785 755.077,161.451 746.5,162.5C 754.54,159.959 762.873,158.292 771.5,157.5 Z"/></g>
<g><path style="opacity:0.501" fill="#000000" d="M 746.5,162.5 C 743.781,163.913 740.781,164.58 737.5,164.5C 740.219,163.087 743.219,162.42 746.5,162.5 Z"/></g>
<g><path style="opacity:0.497" fill="#000000" d="M 737.5,164.5 C 722.344,168.79 707.011,172.79 691.5,176.5C 706.406,171.272 721.74,167.272 737.5,164.5 Z"/></g>
<g><path style="opacity:0.505" fill="#000000" d="M 691.5,176.5 C 688.495,178.277 685.162,179.277 681.5,179.5C 684.505,177.723 687.838,176.723 691.5,176.5 Z"/></g>
<g><path style="opacity:0.492" fill="#000000" d="M 681.5,179.5 C 670.784,183.739 659.784,187.405 648.5,190.5C 659.086,185.86 670.086,182.194 681.5,179.5 Z"/></g>
<g><path style="opacity:0.501" fill="#000000" d="M 648.5,190.5 C 645.203,192.601 641.537,193.935 637.5,194.5C 640.797,192.399 644.463,191.065 648.5,190.5 Z"/></g>
<g><path style="opacity:0.494" fill="#000000" d="M 637.5,194.5 C 633.556,196.964 629.223,198.63 624.5,199.5C 628.444,197.036 632.777,195.37 637.5,194.5 Z"/></g>
<g><path style="opacity:0.508" fill="#000000" d="M 624.5,199.5 C 619.233,202.628 613.566,204.961 607.5,206.5C 612.767,203.372 618.434,201.039 624.5,199.5 Z"/></g>
<g><path style="opacity:0.495" fill="#000000" d="M 607.5,206.5 C 605.574,208.293 603.241,209.293 600.5,209.5C 602.426,207.707 604.759,206.707 607.5,206.5 Z"/></g>
<g><path style="opacity:0.495" fill="#000000" d="M 600.5,209.5 C 597.912,211.625 594.912,212.958 591.5,213.5C 594.088,211.375 597.088,210.042 600.5,209.5 Z"/></g>
<g><path style="opacity:0.515" fill="#000000" d="M 591.5,213.5 C 587.584,216.29 583.251,218.29 578.5,219.5C 582.416,216.71 586.749,214.71 591.5,213.5 Z"/></g>
<g><path style="opacity:0.491" fill="#000000" d="M 947.5,214.5 C 947.603,221.386 946.936,228.053 945.5,234.5C 945.521,227.626 946.187,220.959 947.5,214.5 Z"/></g>
<g><path style="opacity:0.423" fill="#000000" d="M 578.5,219.5 C 569.484,224.675 560.151,229.341 550.5,233.5C 559.248,227.793 568.581,223.126 578.5,219.5 Z"/></g>
<g><path style="opacity:0.511" fill="#000000" d="M 548.5,234.5 C 545.322,237.258 541.655,239.258 537.5,240.5C 540.678,237.742 544.345,235.742 548.5,234.5 Z"/></g>
<g><path style="opacity:0.485" fill="#000000" d="M 945.5,234.5 C 945.304,242.737 944.304,250.737 942.5,258.5C 942.86,250.283 943.86,242.283 945.5,234.5 Z"/></g>
<g><path style="opacity:0.523" fill="#000000" d="M 537.5,240.5 C 534.992,242.924 531.992,244.59 528.5,245.5C 531.008,243.076 534.008,241.41 537.5,240.5 Z"/></g>
<g><path style="opacity:0.498" fill="#000000" d="M 528.5,245.5 C 526.664,247.588 524.331,248.921 521.5,249.5C 523.336,247.412 525.669,246.079 528.5,245.5 Z"/></g>
<g><path style="opacity:0.494" fill="#000000" d="M 521.5,249.5 C 511.436,256.222 501.102,262.556 490.5,268.5C 500.036,260.984 510.369,254.651 521.5,249.5 Z"/></g>
<g><path style="opacity:0.476" fill="#000000" d="M 490.5,268.5 C 490.027,269.906 489.027,270.573 487.5,270.5C 487.973,269.094 488.973,268.427 490.5,268.5 Z"/></g>
<g><path style="opacity:0.457" fill="#000000" d="M 487.5,270.5 C 485.025,273.241 482.025,275.241 478.5,276.5C 480.951,273.723 483.951,271.723 487.5,270.5 Z"/></g>
<g><path style="opacity:0.509" fill="#000000" d="M 478.5,276.5 C 478.027,277.906 477.027,278.573 475.5,278.5C 475.973,277.094 476.973,276.427 478.5,276.5 Z"/></g>
<g><path style="opacity:0.507" fill="#000000" d="M 475.5,278.5 C 475.027,279.906 474.027,280.573 472.5,280.5C 472.973,279.094 473.973,278.427 475.5,278.5 Z"/></g>
<g><path style="opacity:0.493" fill="#000000" d="M 939.5,278.5 C 937.222,297.886 933.555,316.886 928.5,335.5C 932.063,316.358 935.729,297.358 939.5,278.5 Z"/></g>
<g><path style="opacity:0.482" fill="#000000" d="M 472.5,280.5 C 469.725,283.605 466.392,285.938 462.5,287.5C 465.275,284.395 468.608,282.062 472.5,280.5 Z"/></g>
<g><path style="opacity:0.5" fill="#000000" d="M 462.5,287.5 C 459.399,290.933 455.732,293.6 451.5,295.5C 454.601,292.067 458.268,289.4 462.5,287.5 Z"/></g>
<g><path style="opacity:0.503" fill="#000000" d="M 451.5,295.5 C 450.738,297.262 449.404,298.262 447.5,298.5C 448.262,296.738 449.596,295.738 451.5,295.5 Z"/></g>
<g><path style="opacity:0.492" fill="#000000" d="M 447.5,298.5 C 446.738,300.262 445.404,301.262 443.5,301.5C 444.262,299.738 445.596,298.738 447.5,298.5 Z"/></g>
<g><path style="opacity:0.484" fill="#000000" d="M 443.5,301.5 C 442.738,303.262 441.404,304.262 439.5,304.5C 440.262,302.738 441.596,301.738 443.5,301.5 Z"/></g>
<g><path style="opacity:0.45" fill="#000001" d="M 1000.5,149.5 C 1153.66,166.567 1289.33,223.734 1407.5,321C 1243.17,485.333 1078.83,649.667 914.5,814C 913.5,814.667 912.5,814.667 911.5,814C 863.667,766.167 815.833,718.333 768,670.5C 767.415,669.002 767.915,668.002 769.5,667.5C 769.351,668.552 769.517,669.552 770,670.5C 817.167,717.667 864.333,764.833 911.5,812C 912.167,812.667 912.833,812.667 913.5,812C 1077.17,648.333 1240.83,484.667 1404.5,321C 1286.91,224.732 1152.24,167.566 1000.5,149.5 Z"/></g>
<g><path style="opacity:0.467" fill="#000000" d="M 928.5,335.5 C 928.26,340.12 927.26,344.453 925.5,348.5C 925.74,343.88 926.74,339.547 928.5,335.5 Z"/></g>
<g><path style="opacity:0.488" fill="#000000" d="M 922.5,360.5 C 921.924,365.809 920.591,370.809 918.5,375.5C 919.076,370.191 920.409,365.191 922.5,360.5 Z"/></g>
<g><path style="opacity:0.484" fill="#000000" d="M 918.5,375.5 C 918.59,378.152 917.924,380.485 916.5,382.5C 916.41,379.848 917.076,377.515 918.5,375.5 Z"/></g>
<g><path style="opacity:0.466" fill="#000000" d="M 916.5,382.5 C 915.412,389.535 913.412,396.201 910.5,402.5C 911.898,395.557 913.898,388.891 916.5,382.5 Z"/></g>
<g><path style="opacity:0.506" fill="#000000" d="M 910.5,402.5 C 908.14,412.914 904.806,422.914 900.5,432.5C 903.261,422.216 906.595,412.216 910.5,402.5 Z"/></g>
<g><path style="opacity:0.514" fill="#000000" d="M 458.5,730.5 C 491.805,712.515 523.471,692.015 553.5,669C 473.333,588.833 393.167,508.667 313,428.5C 307.482,434.905 301.982,441.239 296.5,447.5C 301.018,439.835 306.518,432.835 313,426.5C 393.415,507.248 474.081,587.582 555,667.5C 555.163,669.387 554.329,670.887 552.5,672C 523.123,694.523 491.79,714.023 458.5,730.5 Z"/></g>
<g><path style="opacity:0.589" fill="#000001" d="M 1676.5,778.5 C 1653.41,663.672 1607.91,558.672 1540,463.5C 1531.05,451.545 1521.71,439.878 1512,428.5C 1347.99,592.347 1184.15,756.347 1020.5,920.5C 1067.86,968.693 1115.69,1016.36 1164,1063.5C 1275.29,975.298 1401.46,919.131 1542.5,895C 1590.16,886.804 1638.16,882.304 1686.5,881.5C 1686.22,876.073 1686.55,870.74 1687.5,865.5C 1688.49,870.975 1688.82,876.642 1688.5,882.5C 1541.84,884.412 1404.18,920.246 1275.5,990C 1236.33,1012.33 1199.16,1037.49 1164,1065.5C 1115.03,1017.69 1066.53,969.36 1018.5,920.5C 1182.83,755.5 1347.5,590.833 1512.5,426.5C 1587.16,515.805 1638.66,617.471 1667,731.5C 1670.87,747.036 1674.04,762.703 1676.5,778.5 Z"/></g>
<g><path style="opacity:1" fill="#0a1357" d="M 458.5,730.5 C 453.516,732.326 448.849,734.659 444.5,737.5C 443.486,738.674 442.153,739.34 440.5,739.5C 435.749,740.71 431.416,742.71 427.5,745.5C 419.438,748.071 411.771,751.404 404.5,755.5C 402.447,755.402 400.78,756.069 399.5,757.5C 397.447,757.402 395.78,758.069 394.5,759.5C 391.458,759.733 388.792,760.733 386.5,762.5C 383.458,762.733 380.792,763.733 378.5,765.5C 367.216,768.595 356.216,772.261 345.5,776.5C 341.838,776.723 338.505,777.723 335.5,779.5C 332.848,779.41 330.515,780.076 328.5,781.5C 324.521,781.742 320.854,782.742 317.5,784.5C 314.572,784.565 311.905,785.232 309.5,786.5C 307.095,787.768 304.428,788.435 301.5,788.5C 298.219,788.42 295.219,789.087 292.5,790.5C 289.219,790.42 286.219,791.087 283.5,792.5C 278.256,792.882 273.256,793.882 268.5,795.5C 256.304,797.088 244.304,799.088 232.5,801.5C 227.269,801.444 222.269,802.111 217.5,803.5C 197.092,806.583 176.425,808.25 155.5,808.5C 152.167,808.5 148.833,808.5 145.5,808.5C 145.5,806.833 145.5,805.167 145.5,803.5C 147.461,795.732 148.795,787.732 149.5,779.5C 151.785,771.411 153.451,763.077 154.5,754.5C 158.277,741.055 161.611,727.388 164.5,713.5C 166.435,709.105 167.769,704.438 168.5,699.5C 170.277,696.495 171.277,693.162 171.5,689.5C 175.739,678.784 179.405,667.784 182.5,656.5C 184.601,653.203 185.935,649.537 186.5,645.5C 188.964,641.556 190.63,637.223 191.5,632.5C 194.628,627.233 196.961,621.566 198.5,615.5C 200.293,613.574 201.293,611.241 201.5,608.5C 203.625,605.912 204.958,602.912 205.5,599.5C 208.29,595.584 210.29,591.251 211.5,586.5C 216.675,577.484 221.341,568.151 225.5,558.5C 225.328,557.508 225.662,556.842 226.5,556.5C 230.671,550.162 234.337,543.496 237.5,536.5C 239.588,534.664 240.921,532.331 241.5,529.5C 246,523.173 250,516.506 253.5,509.5C 256.579,506.35 258.913,502.683 260.5,498.5C 261.906,498.027 262.573,497.027 262.5,495.5C 265.241,493.025 267.241,490.025 268.5,486.5C 269.906,486.027 270.573,485.027 270.5,483.5C 271.906,483.027 272.573,482.027 272.5,480.5C 275.605,477.725 277.938,474.392 279.5,470.5C 282.933,467.399 285.6,463.732 287.5,459.5C 289.262,458.738 290.262,457.404 290.5,455.5C 292.262,454.738 293.262,453.404 293.5,451.5C 295.262,450.738 296.262,449.404 296.5,447.5C 301.982,441.239 307.482,434.905 313,428.5C 393.167,508.667 473.333,588.833 553.5,669C 523.471,692.015 491.805,712.515 458.5,730.5 Z"/></g>
<g><path style="opacity:1" fill="#091357" d="M 1676.5,778.5 C 1675.98,779.577 1675.65,780.744 1675.5,782C 1677.38,792.298 1679.05,802.632 1680.5,813C 1680.61,814.681 1681.27,815.848 1682.5,816.5C 1681.9,823.612 1682.23,830.779 1683.5,838C 1683.57,839.986 1684.24,841.486 1685.5,842.5C 1684.91,844.41 1684.57,846.41 1684.5,848.5C 1684.57,854.605 1685.57,860.272 1687.5,865.5C 1686.55,870.74 1686.22,876.073 1686.5,881.5C 1638.16,882.304 1590.16,886.804 1542.5,895C 1401.46,919.131 1275.29,975.298 1164,1063.5C 1115.69,1016.36 1067.86,968.693 1020.5,920.5C 1184.15,756.347 1347.99,592.347 1512,428.5C 1521.71,439.878 1531.05,451.545 1540,463.5C 1607.91,558.672 1653.41,663.672 1676.5,778.5 Z"/></g>
<g><path style="opacity:0.469" fill="#000000" d="M 900.5,432.5 C 899.131,439.282 896.798,445.615 893.5,451.5C 895.262,444.873 897.595,438.539 900.5,432.5 Z"/></g>
<g><path style="opacity:0.34" fill="#000001" d="M 439.5,304.5 C 433.239,309.982 426.905,315.482 420.5,321C 500.667,401.167 580.833,481.333 661,561.5C 680.988,535.537 698.988,508.204 715,479.5C 769.105,377.663 797.605,268.997 800.5,153.5C 790.848,154.942 781.181,156.275 771.5,157.5C 781.552,154.881 791.885,153.214 802.5,152.5C 799.676,269.118 770.842,378.784 716,481.5C 700.145,510.557 681.812,537.891 661,563.5C 580.167,482.667 499.333,401.833 418.5,321C 424.835,314.518 431.835,309.018 439.5,304.5 Z"/></g>
<g><path style="opacity:0.488" fill="#000000" d="M 296.5,447.5 C 296.262,449.404 295.262,450.738 293.5,451.5C 293.738,449.596 294.738,448.262 296.5,447.5 Z"/></g>
<g><path style="opacity:0.503" fill="#000000" d="M 293.5,451.5 C 293.262,453.404 292.262,454.738 290.5,455.5C 290.738,453.596 291.738,452.262 293.5,451.5 Z"/></g>
<g><path style="opacity:0.477" fill="#000000" d="M 893.5,451.5 C 892.63,456.223 890.964,460.556 888.5,464.5C 889.37,459.777 891.036,455.444 893.5,451.5 Z"/></g>
<g><path style="opacity:0.513" fill="#000000" d="M 290.5,455.5 C 290.262,457.404 289.262,458.738 287.5,459.5C 287.738,457.596 288.738,456.262 290.5,455.5 Z"/></g>
<g><path style="opacity:0.505" fill="#000000" d="M 287.5,459.5 C 285.6,463.732 282.933,467.399 279.5,470.5C 281.4,466.268 284.067,462.601 287.5,459.5 Z"/></g>
<g><path style="opacity:0.497" fill="#000000" d="M 888.5,464.5 C 886.627,471.236 883.961,477.57 880.5,483.5C 882.403,476.776 885.069,470.443 888.5,464.5 Z"/></g>
<g><path style="opacity:0.494" fill="#000000" d="M 279.5,470.5 C 277.938,474.392 275.605,477.725 272.5,480.5C 274.062,476.608 276.395,473.275 279.5,470.5 Z"/></g>
<g><path style="opacity:0.505" fill="#000000" d="M 272.5,480.5 C 272.573,482.027 271.906,483.027 270.5,483.5C 270.427,481.973 271.094,480.973 272.5,480.5 Z"/></g>
<g><path style="opacity:0.53" fill="#000000" d="M 270.5,483.5 C 270.573,485.027 269.906,486.027 268.5,486.5C 268.427,484.973 269.094,483.973 270.5,483.5 Z"/></g>
<g><path style="opacity:0.476" fill="#000000" d="M 880.5,483.5 C 880.293,486.241 879.293,488.574 877.5,490.5C 877.707,487.759 878.707,485.426 880.5,483.5 Z"/></g>
<g><path style="opacity:0.47" fill="#000000" d="M 268.5,486.5 C 267.241,490.025 265.241,493.025 262.5,495.5C 263.723,491.951 265.723,488.951 268.5,486.5 Z"/></g>
<g><path style="opacity:0.463" fill="#000000" d="M 877.5,490.5 C 876.624,494.582 874.957,498.249 872.5,501.5C 873.376,497.418 875.043,493.751 877.5,490.5 Z"/></g>
<g><path style="opacity:0.505" fill="#000000" d="M 262.5,495.5 C 262.573,497.027 261.906,498.027 260.5,498.5C 260.427,496.973 261.094,495.973 262.5,495.5 Z"/></g>
<g><path style="opacity:0.5" fill="#000000" d="M 260.5,498.5 C 258.913,502.683 256.579,506.35 253.5,509.5C 255.087,505.317 257.421,501.65 260.5,498.5 Z"/></g>
<g><path style="opacity:0.448" fill="#000000" d="M 872.5,501.5 C 870.288,508.255 867.288,514.588 863.5,520.5C 865.712,513.745 868.712,507.412 872.5,501.5 Z"/></g>
<g><path style="opacity:0.484" fill="#000000" d="M 253.5,509.5 C 250,516.506 246,523.173 241.5,529.5C 244.497,522.162 248.497,515.495 253.5,509.5 Z"/></g>
<g><path style="opacity:0.515" fill="#000000" d="M 241.5,529.5 C 240.921,532.331 239.588,534.664 237.5,536.5C 238.079,533.669 239.412,531.336 241.5,529.5 Z"/></g>
<g><path style="opacity:0.468" fill="#000000" d="M 858.5,530.5 C 855.927,537.315 852.594,543.649 848.5,549.5C 851.073,542.685 854.406,536.351 858.5,530.5 Z"/></g>
<g><path style="opacity:0.514" fill="#000000" d="M 237.5,536.5 C 234.337,543.496 230.671,550.162 226.5,556.5C 229.155,549.183 232.822,542.516 237.5,536.5 Z"/></g>
<g><path style="opacity:0.481" fill="#000000" d="M 848.5,549.5 C 847.59,552.992 845.924,555.992 843.5,558.5C 844.41,555.008 846.076,552.008 848.5,549.5 Z"/></g>
<g><path style="opacity:0.435" fill="#000000" d="M 225.5,558.5 C 221.341,568.151 216.675,577.484 211.5,586.5C 215.126,576.581 219.793,567.248 225.5,558.5 Z"/></g>
<g><path style="opacity:0.483" fill="#000000" d="M 843.5,558.5 C 842.921,561.331 841.588,563.664 839.5,565.5C 840.079,562.669 841.412,560.336 843.5,558.5 Z"/></g>
<g><path style="opacity:0.485" fill="#000000" d="M 839.5,565.5 C 838.921,568.331 837.588,570.664 835.5,572.5C 836.079,569.669 837.412,567.336 839.5,565.5 Z"/></g>
<g><path style="opacity:0.517" fill="#000000" d="M 835.5,572.5 C 835.25,574.674 834.25,576.341 832.5,577.5C 832.75,575.326 833.75,573.659 835.5,572.5 Z"/></g>
<g><path style="opacity:0.519" fill="#000000" d="M 832.5,577.5 C 832.25,579.674 831.25,581.341 829.5,582.5C 829.75,580.326 830.75,578.659 832.5,577.5 Z"/></g>
<g><path style="opacity:0.481" fill="#000000" d="M 829.5,582.5 C 828.617,585.704 826.95,588.371 824.5,590.5C 825.383,587.296 827.05,584.629 829.5,582.5 Z"/></g>
<g><path style="opacity:0.522" fill="#000000" d="M 211.5,586.5 C 210.29,591.251 208.29,595.584 205.5,599.5C 206.71,594.749 208.71,590.416 211.5,586.5 Z"/></g>
<g><path style="opacity:0.499" fill="#000000" d="M 824.5,590.5 C 823.617,593.704 821.95,596.371 819.5,598.5C 820.383,595.296 822.05,592.629 824.5,590.5 Z"/></g>
<g><path style="opacity:0.492" fill="#000000" d="M 819.5,598.5 C 819.573,600.027 818.906,601.027 817.5,601.5C 817.427,599.973 818.094,598.973 819.5,598.5 Z"/></g>
<g><path style="opacity:0.507" fill="#000000" d="M 205.5,599.5 C 204.958,602.912 203.625,605.912 201.5,608.5C 202.042,605.088 203.375,602.088 205.5,599.5 Z"/></g>
<g><path style="opacity:0.464" fill="#000000" d="M 817.5,601.5 C 817.573,603.027 816.906,604.027 815.5,604.5C 815.427,602.973 816.094,601.973 817.5,601.5 Z"/></g>
<g><path style="opacity:0.457" fill="#000000" d="M 815.5,604.5 C 815.573,606.027 814.906,607.027 813.5,607.5C 813.427,605.973 814.094,604.973 815.5,604.5 Z"/></g>
<g><path style="opacity:0.522" fill="#000000" d="M 813.5,607.5 C 812.277,611.049 810.277,614.049 807.5,616.5C 808.759,612.975 810.759,609.975 813.5,607.5 Z"/></g>
<g><path style="opacity:0.508" fill="#000000" d="M 201.5,608.5 C 201.293,611.241 200.293,613.574 198.5,615.5C 198.707,612.759 199.707,610.426 201.5,608.5 Z"/></g>
<g><path style="opacity:0.521" fill="#000000" d="M 198.5,615.5 C 196.961,621.566 194.628,627.233 191.5,632.5C 193.039,626.434 195.372,620.767 198.5,615.5 Z"/></g>
<g><path style="opacity:0.489" fill="#000000" d="M 807.5,616.5 C 805.237,621.365 802.237,625.698 798.5,629.5C 800.763,624.635 803.763,620.302 807.5,616.5 Z"/></g>
<g><path style="opacity:0.49" fill="#000000" d="M 798.5,629.5 C 798.262,631.404 797.262,632.738 795.5,633.5C 795.738,631.596 796.738,630.262 798.5,629.5 Z"/></g>
<g><path style="opacity:0.504" fill="#000000" d="M 191.5,632.5 C 190.63,637.223 188.964,641.556 186.5,645.5C 187.37,640.777 189.036,636.444 191.5,632.5 Z"/></g>
<g><path style="opacity:0.473" fill="#000000" d="M 795.5,633.5 C 793.6,637.732 790.933,641.399 787.5,644.5C 789.4,640.268 792.067,636.601 795.5,633.5 Z"/></g>
<g><path style="opacity:0.499" fill="#000000" d="M 787.5,644.5 C 784.926,649.409 781.592,653.742 777.5,657.5C 780.074,652.591 783.408,648.258 787.5,644.5 Z"/></g>
<g><path style="opacity:0.516" fill="#000000" d="M 186.5,645.5 C 185.935,649.537 184.601,653.203 182.5,656.5C 183.065,652.463 184.399,648.797 186.5,645.5 Z"/></g>
<g><path style="opacity:0.503" fill="#000000" d="M 182.5,656.5 C 179.405,667.784 175.739,678.784 171.5,689.5C 174.194,678.086 177.86,667.086 182.5,656.5 Z"/></g>
<g><path style="opacity:0.506" fill="#000000" d="M 777.5,657.5 C 776.92,659.749 775.587,661.415 773.5,662.5C 774.08,660.251 775.413,658.585 777.5,657.5 Z"/></g>
<g><path style="opacity:0.506" fill="#000000" d="M 773.5,662.5 C 772.92,664.749 771.587,666.415 769.5,667.5C 770.08,665.251 771.413,663.585 773.5,662.5 Z"/></g>
<g><path style="opacity:0.522" fill="#000000" d="M 171.5,689.5 C 171.277,693.162 170.277,696.495 168.5,699.5C 168.723,695.838 169.723,692.505 171.5,689.5 Z"/></g>
<g><path style="opacity:0.487" fill="#000000" d="M 168.5,699.5 C 167.769,704.438 166.435,709.105 164.5,713.5C 164.92,708.471 166.254,703.805 168.5,699.5 Z"/></g>
<g><path style="opacity:0.501" fill="#000000" d="M 164.5,713.5 C 161.611,727.388 158.277,741.055 154.5,754.5C 156.76,740.463 160.093,726.797 164.5,713.5 Z"/></g>
<g><path style="opacity:0.388" fill="#000000" d="M 458.5,730.5 C 454.419,733.874 449.753,736.207 444.5,737.5C 448.849,734.659 453.516,732.326 458.5,730.5 Z"/></g>
<g><path style="opacity:0.541" fill="#000000" d="M 440.5,739.5 C 436.584,742.29 432.251,744.29 427.5,745.5C 431.416,742.71 435.749,740.71 440.5,739.5 Z"/></g>
<g><path style="opacity:0.514" fill="#000000" d="M 427.5,745.5 C 420.241,749.626 412.575,752.959 404.5,755.5C 411.771,751.404 419.438,748.071 427.5,745.5 Z"/></g>
<g><path style="opacity:0.499" fill="#000000" d="M 154.5,754.5 C 153.451,763.077 151.785,771.411 149.5,779.5C 150.292,770.873 151.959,762.54 154.5,754.5 Z"/></g>
<g><path style="opacity:0.498" fill="#000000" d="M 404.5,755.5 C 403.22,756.931 401.553,757.598 399.5,757.5C 400.78,756.069 402.447,755.402 404.5,755.5 Z"/></g>
<g><path style="opacity:0.489" fill="#000000" d="M 399.5,757.5 C 398.22,758.931 396.553,759.598 394.5,759.5C 395.78,758.069 397.447,757.402 399.5,757.5 Z"/></g>
<g><path style="opacity:0.52" fill="#000000" d="M 394.5,759.5 C 392.208,761.267 389.542,762.267 386.5,762.5C 388.792,760.733 391.458,759.733 394.5,759.5 Z"/></g>
<g><path style="opacity:0.529" fill="#000000" d="M 386.5,762.5 C 384.208,764.267 381.542,765.267 378.5,765.5C 380.792,763.733 383.458,762.733 386.5,762.5 Z"/></g>
<g><path style="opacity:0.516" fill="#000000" d="M 378.5,765.5 C 367.914,770.14 356.914,773.806 345.5,776.5C 356.216,772.261 367.216,768.595 378.5,765.5 Z"/></g>
<g><path style="opacity:0.461" fill="#000000" d="M 293.5,1389.5 C 300.135,1396.98 306.635,1404.64 313,1412.5C 476.667,1248.83 640.333,1085.17 804,921.5C 804.667,920.833 804.667,920.167 804,919.5C 756.833,872.333 709.667,825.167 662.5,778C 661.552,777.517 660.552,777.351 659.5,777.5C 660.314,775.727 661.648,775.227 663.5,776C 711.333,823.833 759.167,871.667 807,919.5C 807.667,920.167 807.667,920.833 807,921.5C 642.585,1086.25 477.919,1250.58 313,1414.5C 305.879,1406.56 299.379,1398.23 293.5,1389.5 Z"/></g>
<g><path style="opacity:0.53" fill="#000000" d="M 345.5,776.5 C 342.495,778.277 339.162,779.277 335.5,779.5C 338.505,777.723 341.838,776.723 345.5,776.5 Z"/></g>
<g><path style="opacity:0.506" fill="#000000" d="M 659.5,777.5 C 658.415,779.587 656.749,780.92 654.5,781.5C 655.585,779.413 657.251,778.08 659.5,777.5 Z"/></g>
<g><path style="opacity:1" fill="#0a1357" d="M 659.5,777.5 C 660.552,777.351 661.552,777.517 662.5,778C 709.667,825.167 756.833,872.333 804,919.5C 804.667,920.167 804.667,920.833 804,921.5C 640.333,1085.17 476.667,1248.83 313,1412.5C 306.635,1404.64 300.135,1396.98 293.5,1389.5C 293.262,1387.6 292.262,1386.26 290.5,1385.5C 290.262,1383.6 289.262,1382.26 287.5,1381.5C 287.262,1379.6 286.262,1378.26 284.5,1377.5C 283.567,1374.63 281.9,1372.3 279.5,1370.5C 277.938,1366.61 275.605,1363.27 272.5,1360.5C 272.573,1358.97 271.906,1357.97 270.5,1357.5C 268.327,1353.15 265.66,1349.15 262.5,1345.5C 262.573,1343.97 261.906,1342.97 260.5,1342.5C 258.913,1338.32 256.579,1334.65 253.5,1331.5C 252.617,1328.3 250.95,1325.63 248.5,1323.5C 244.002,1314.5 239.002,1305.83 233.5,1297.5C 232.258,1293.34 230.258,1289.68 227.5,1286.5C 222.341,1274.85 216.675,1263.52 210.5,1252.5C 209.662,1252.16 209.328,1251.49 209.5,1250.5C 208.624,1246.42 206.957,1242.75 204.5,1239.5C 203.958,1236.09 202.625,1233.09 200.5,1230.5C 200.293,1227.76 199.293,1225.43 197.5,1223.5C 197.598,1221.45 196.931,1219.78 195.5,1218.5C 193.403,1211.53 190.737,1204.86 187.5,1198.5C 187.267,1195.46 186.267,1192.79 184.5,1190.5C 183.602,1185.47 181.935,1180.8 179.5,1176.5C 178.596,1175.79 178.263,1174.79 178.5,1173.5C 178.072,1170.22 177.072,1167.22 175.5,1164.5C 174.596,1163.79 174.263,1162.79 174.5,1161.5C 173.61,1155.83 171.943,1150.5 169.5,1145.5C 168.769,1140.56 167.435,1135.89 165.5,1131.5C 165.59,1128.85 164.924,1126.51 163.5,1124.5C 162.566,1123.43 162.232,1122.1 162.5,1120.5C 161.435,1113.57 159.768,1106.91 157.5,1100.5C 155.196,1087.64 152.53,1074.98 149.5,1062.5C 148.795,1054.27 147.461,1046.27 145.5,1038.5C 145.468,1033.61 144.801,1028.94 143.5,1024.5C 142.663,1012.3 141.33,1000.3 139.5,988.5C 138.515,984.366 138.182,980.032 138.5,975.5C 138.5,970.167 138.5,964.833 138.5,959.5C 146.352,959.825 154.018,959.492 161.5,958.5C 186.045,956.844 210.711,954.844 235.5,952.5C 241.069,952.624 246.402,951.957 251.5,950.5C 253.607,949.532 255.941,949.198 258.5,949.5C 263.076,949.562 267.409,948.895 271.5,947.5C 273.265,946.539 275.265,946.205 277.5,946.5C 283.444,946.375 289.11,945.375 294.5,943.5C 301.46,943.041 308.127,941.708 314.5,939.5C 315.919,938.549 317.585,938.216 319.5,938.5C 324.12,938.26 328.453,937.26 332.5,935.5C 342.169,934.083 351.503,931.749 360.5,928.5C 364.479,928.258 368.146,927.258 371.5,925.5C 374.152,925.59 376.485,924.924 378.5,923.5C 382.162,923.277 385.495,922.277 388.5,920.5C 394.166,919.61 399.5,917.943 404.5,915.5C 407.215,913.928 410.215,912.928 413.5,912.5C 419.532,911.269 425.199,909.269 430.5,906.5C 436.285,905.464 441.618,903.464 446.5,900.5C 448.553,900.598 450.22,899.931 451.5,898.5C 455.297,898.128 458.63,896.794 461.5,894.5C 463.553,894.598 465.22,893.931 466.5,892.5C 469.241,892.293 471.574,891.293 473.5,889.5C 479.982,887.789 485.982,885.122 491.5,881.5C 496.251,880.29 500.584,878.29 504.5,875.5C 506.181,873.992 508.181,872.992 510.5,872.5C 515.086,871.54 519.086,869.54 522.5,866.5C 524.181,864.992 526.181,863.992 528.5,863.5C 533.32,861.926 537.653,859.593 541.5,856.5C 549.661,852.923 557.328,848.589 564.5,843.5C 566.674,843.25 568.341,842.25 569.5,840.5C 571.674,840.25 573.341,839.25 574.5,837.5C 577.704,836.617 580.371,834.95 582.5,832.5C 585.704,831.617 588.371,829.95 590.5,827.5C 592.027,827.573 593.027,826.906 593.5,825.5C 599.049,822.944 604.049,819.61 608.5,815.5C 610.027,815.573 611.027,814.906 611.5,813.5C 615.392,811.938 618.725,809.605 621.5,806.5C 623.404,806.262 624.738,805.262 625.5,803.5C 628.37,802.567 630.704,800.9 632.5,798.5C 634.404,798.262 635.738,797.262 636.5,795.5C 641.409,792.926 645.742,789.592 649.5,785.5C 651.749,784.92 653.415,783.587 654.5,781.5C 656.749,780.92 658.415,779.587 659.5,777.5 Z"/></g>
<g><path style="opacity:0.5" fill="#000000" d="M 149.5,779.5 C 148.795,787.732 147.461,795.732 145.5,803.5C 145.989,795.233 147.322,787.233 149.5,779.5 Z"/></g>
<g><path style="opacity:0.515" fill="#000000" d="M 335.5,779.5 C 333.485,780.924 331.152,781.59 328.5,781.5C 330.515,780.076 332.848,779.41 335.5,779.5 Z"/></g>
<g><path style="opacity:0.501" fill="#000000" d="M 328.5,781.5 C 325.146,783.258 321.479,784.258 317.5,784.5C 320.854,782.742 324.521,781.742 328.5,781.5 Z"/></g>
<g><path style="opacity:0.509" fill="#000000" d="M 654.5,781.5 C 653.415,783.587 651.749,784.92 649.5,785.5C 650.585,783.413 652.251,782.08 654.5,781.5 Z"/></g>
<g><path style="opacity:0.478" fill="#000000" d="M 317.5,784.5 C 315.162,786.04 312.495,786.706 309.5,786.5C 311.905,785.232 314.572,784.565 317.5,784.5 Z"/></g>
<g><path style="opacity:0.063" fill="#000109" d="M 1676.5,778.5 C 1679.34,790.904 1681.34,803.571 1682.5,816.5C 1681.27,815.848 1680.61,814.681 1680.5,813C 1679.05,802.632 1677.38,792.298 1675.5,782C 1675.65,780.744 1675.98,779.577 1676.5,778.5 Z"/></g>
<g><path style="opacity:0.503" fill="#000000" d="M 649.5,785.5 C 645.742,789.592 641.409,792.926 636.5,795.5C 640.258,791.408 644.591,788.074 649.5,785.5 Z"/></g>
<g><path style="opacity:0.526" fill="#000000" d="M 301.5,788.5 C 298.781,789.913 295.781,790.58 292.5,790.5C 295.219,789.087 298.219,788.42 301.5,788.5 Z"/></g>
<g><path style="opacity:0.538" fill="#000000" d="M 292.5,790.5 C 289.781,791.913 286.781,792.58 283.5,792.5C 286.219,791.087 289.219,790.42 292.5,790.5 Z"/></g>
<g><path style="opacity:0.495" fill="#000000" d="M 283.5,792.5 C 278.794,794.375 273.794,795.375 268.5,795.5C 273.256,793.882 278.256,792.882 283.5,792.5 Z"/></g>
<g><path style="opacity:0.512" fill="#000000" d="M 268.5,795.5 C 256.803,798.561 244.803,800.561 232.5,801.5C 244.304,799.088 256.304,797.088 268.5,795.5 Z"/></g>
<g><path style="opacity:0.508" fill="#000000" d="M 636.5,795.5 C 635.738,797.262 634.404,798.262 632.5,798.5C 633.262,796.738 634.596,795.738 636.5,795.5 Z"/></g>
<g><path style="opacity:0.5" fill="#000000" d="M 632.5,798.5 C 630.704,800.9 628.37,802.567 625.5,803.5C 627.296,801.1 629.63,799.433 632.5,798.5 Z"/></g>
<g><path style="opacity:0.5" fill="#000000" d="M 232.5,801.5 C 227.731,802.889 222.731,803.556 217.5,803.5C 222.269,802.111 227.269,801.444 232.5,801.5 Z"/></g>
<g><path style="opacity:0.265" fill="#000000" d="M 145.5,803.5 C 145.5,805.167 145.5,806.833 145.5,808.5C 148.833,808.5 152.167,808.5 155.5,808.5C 152.038,809.482 148.371,809.815 144.5,809.5C 144.205,807.265 144.539,805.265 145.5,803.5 Z"/></g>
<g><path style="opacity:0.495" fill="#000000" d="M 625.5,803.5 C 624.738,805.262 623.404,806.262 621.5,806.5C 622.262,804.738 623.596,803.738 625.5,803.5 Z"/></g>
<g><path style="opacity:0.507" fill="#000000" d="M 621.5,806.5 C 618.725,809.605 615.392,811.938 611.5,813.5C 614.275,810.395 617.608,808.062 621.5,806.5 Z"/></g>
<g><path style="opacity:0.49" fill="#000000" d="M 611.5,813.5 C 611.027,814.906 610.027,815.573 608.5,815.5C 608.973,814.094 609.973,813.427 611.5,813.5 Z"/></g>
<g><path style="opacity:0.527" fill="#000000" d="M 608.5,815.5 C 604.049,819.61 599.049,822.944 593.5,825.5C 597.976,821.425 602.976,818.092 608.5,815.5 Z"/></g>
<g><path style="opacity:0.061" fill="#000107" d="M 1682.5,816.5 C 1684.3,824.936 1685.3,833.603 1685.5,842.5C 1684.24,841.486 1683.57,839.986 1683.5,838C 1682.23,830.779 1681.9,823.612 1682.5,816.5 Z"/></g>
<g><path style="opacity:0.467" fill="#000000" d="M 593.5,825.5 C 593.027,826.906 592.027,827.573 590.5,827.5C 590.973,826.094 591.973,825.427 593.5,825.5 Z"/></g>
<g><path style="opacity:0.482" fill="#000000" d="M 590.5,827.5 C 588.371,829.95 585.704,831.617 582.5,832.5C 584.629,830.05 587.296,828.383 590.5,827.5 Z"/></g>
<g><path style="opacity:0.464" fill="#000000" d="M 582.5,832.5 C 580.371,834.95 577.704,836.617 574.5,837.5C 576.629,835.05 579.296,833.383 582.5,832.5 Z"/></g>
<g><path style="opacity:0.501" fill="#000000" d="M 574.5,837.5 C 573.341,839.25 571.674,840.25 569.5,840.5C 570.659,838.75 572.326,837.75 574.5,837.5 Z"/></g>
<g><path style="opacity:0.5" fill="#000000" d="M 569.5,840.5 C 568.341,842.25 566.674,843.25 564.5,843.5C 565.659,841.75 567.326,840.75 569.5,840.5 Z"/></g>
<g><path style="opacity:0.061" fill="#000107" d="M 1685.5,842.5 C 1686.97,849.951 1687.64,857.618 1687.5,865.5C 1685.57,860.272 1684.57,854.605 1684.5,848.5C 1684.57,846.41 1684.91,844.41 1685.5,842.5 Z"/></g>
<g><path style="opacity:0.486" fill="#000000" d="M 564.5,843.5 C 557.328,848.589 549.661,852.923 541.5,856.5C 548.672,851.411 556.339,847.077 564.5,843.5 Z"/></g>
<g><path style="opacity:0.477" fill="#000000" d="M 541.5,856.5 C 537.653,859.593 533.32,861.926 528.5,863.5C 532.347,860.407 536.68,858.074 541.5,856.5 Z"/></g>
<g><path style="opacity:0.591" fill="#000000" d="M 522.5,866.5 C 519.086,869.54 515.086,871.54 510.5,872.5C 514.182,869.992 518.182,867.992 522.5,866.5 Z"/></g>
<g><path style="opacity:0.48" fill="#000000" d="M 504.5,875.5 C 500.584,878.29 496.251,880.29 491.5,881.5C 495.416,878.71 499.749,876.71 504.5,875.5 Z"/></g>
<g><path style="opacity:0.472" fill="#000000" d="M 491.5,881.5 C 485.982,885.122 479.982,887.789 473.5,889.5C 479.185,886.266 485.185,883.599 491.5,881.5 Z"/></g>
<g><path style="opacity:0.495" fill="#000000" d="M 473.5,889.5 C 471.574,891.293 469.241,892.293 466.5,892.5C 468.426,890.707 470.759,889.707 473.5,889.5 Z"/></g>
<g><path style="opacity:0.514" fill="#000000" d="M 466.5,892.5 C 465.22,893.931 463.553,894.598 461.5,894.5C 462.78,893.069 464.447,892.402 466.5,892.5 Z"/></g>
<g><path style="opacity:0.492" fill="#000000" d="M 461.5,894.5 C 458.63,896.794 455.297,898.128 451.5,898.5C 454.53,896.597 457.863,895.263 461.5,894.5 Z"/></g>
<g><path style="opacity:0.487" fill="#000000" d="M 451.5,898.5 C 450.22,899.931 448.553,900.598 446.5,900.5C 447.78,899.069 449.447,898.402 451.5,898.5 Z"/></g>
<g><path style="opacity:0.494" fill="#000000" d="M 446.5,900.5 C 441.618,903.464 436.285,905.464 430.5,906.5C 435.537,903.929 440.871,901.929 446.5,900.5 Z"/></g>
<g><path style="opacity:0.481" fill="#000000" d="M 430.5,906.5 C 425.199,909.269 419.532,911.269 413.5,912.5C 418.801,909.731 424.468,907.731 430.5,906.5 Z"/></g>
<g><path style="opacity:0.485" fill="#000000" d="M 404.5,915.5 C 399.5,917.943 394.166,919.61 388.5,920.5C 393.5,918.057 398.834,916.39 404.5,915.5 Z"/></g>
<g><path style="opacity:0.482" fill="#000000" d="M 388.5,920.5 C 385.495,922.277 382.162,923.277 378.5,923.5C 381.505,921.723 384.838,920.723 388.5,920.5 Z"/></g>
<g><path style="opacity:0.496" fill="#000000" d="M 378.5,923.5 C 376.485,924.924 374.152,925.59 371.5,925.5C 373.515,924.076 375.848,923.41 378.5,923.5 Z"/></g>
<g><path style="opacity:0.484" fill="#000000" d="M 371.5,925.5 C 368.146,927.258 364.479,928.258 360.5,928.5C 363.854,926.742 367.521,925.742 371.5,925.5 Z"/></g>
<g><path style="opacity:0.487" fill="#000000" d="M 360.5,928.5 C 351.503,931.749 342.169,934.083 332.5,935.5C 341.573,932.565 350.907,930.232 360.5,928.5 Z"/></g>
<g><path style="opacity:0.489" fill="#000000" d="M 332.5,935.5 C 328.453,937.26 324.12,938.26 319.5,938.5C 323.547,936.74 327.88,935.74 332.5,935.5 Z"/></g>
<g><path style="opacity:0.513" fill="#000000" d="M 314.5,939.5 C 308.127,941.708 301.46,943.041 294.5,943.5C 300.923,941.549 307.589,940.215 314.5,939.5 Z"/></g>
<g><path style="opacity:0.506" fill="#000000" d="M 294.5,943.5 C 289.11,945.375 283.444,946.375 277.5,946.5C 282.933,944.883 288.6,943.883 294.5,943.5 Z"/></g>
<g><path style="opacity:0.478" fill="#000000" d="M 271.5,947.5 C 267.409,948.895 263.076,949.562 258.5,949.5C 262.591,948.105 266.924,947.438 271.5,947.5 Z"/></g>
<g><path style="opacity:0.484" fill="#000000" d="M 251.5,950.5 C 246.402,951.957 241.069,952.624 235.5,952.5C 240.616,951.194 245.949,950.527 251.5,950.5 Z"/></g>
<g><path style="opacity:0.555" fill="#000000" d="M 161.5,958.5 C 154.018,959.492 146.352,959.825 138.5,959.5C 138.5,964.833 138.5,970.167 138.5,975.5C 137.511,970.025 137.178,964.358 137.5,958.5C 145.5,958.5 153.5,958.5 161.5,958.5 Z"/></g>
<g><path style="opacity:0.504" fill="#000000" d="M 139.5,988.5 C 141.33,1000.3 142.663,1012.3 143.5,1024.5C 141.231,1012.74 139.897,1000.74 139.5,988.5 Z"/></g>
<g><path style="opacity:0.512" fill="#000000" d="M 806.5,996.5 C 802.036,997.644 797.37,998.31 792.5,998.5C 796.9,996.896 801.566,996.229 806.5,996.5 Z"/></g>
<g><path style="opacity:1" fill="#0a1357" d="M 863.5,997.5 C 918.746,1008.9 955.912,1041.24 975,1094.5C 977.177,1102.05 978.844,1109.72 980,1117.5C 981.418,1148.14 981.918,1178.81 981.5,1209.5C 1094.17,1209.5 1206.83,1209.5 1319.5,1209.5C 1319.5,1182.17 1319.5,1154.83 1319.5,1127.5C 1320.81,1118.97 1322.14,1110.3 1323.5,1101.5C 1326.14,1093.91 1328.81,1086.24 1331.5,1078.5C 1333.67,1075.48 1335.34,1072.15 1336.5,1068.5C 1339,1065.51 1341,1062.17 1342.5,1058.5C 1344.9,1056.7 1346.57,1054.37 1347.5,1051.5C 1349.59,1050.42 1350.92,1048.75 1351.5,1046.5C 1360.23,1037.77 1369.23,1029.44 1378.5,1021.5C 1380.85,1020.66 1382.85,1019.33 1384.5,1017.5C 1386.67,1017.25 1388.34,1016.25 1389.5,1014.5C 1397.57,1010.8 1405.57,1007.13 1413.5,1003.5C 1417.16,1003.28 1420.5,1002.28 1423.5,1000.5C 1426.22,999.087 1429.22,998.42 1432.5,998.5C 1437.37,998.31 1442.04,997.644 1446.5,996.5C 1462.5,996.333 1478.5,996.5 1494.5,997C 1557.84,1006 1598.67,1041.17 1617,1102.5C 1619.29,1113.06 1620.79,1123.72 1621.5,1134.5C 1622.83,1188.07 1622.83,1241.57 1621.5,1295C 1635.5,1295.5 1649.5,1295.67 1663.5,1295.5C 1663.5,1324.83 1663.5,1354.17 1663.5,1383.5C 1649.83,1383.5 1636.17,1383.5 1622.5,1383.5C 1622.83,1436.84 1622.5,1490.17 1621.5,1543.5C 1616.56,1611.26 1581.89,1655.76 1517.5,1677C 1510.26,1678.85 1502.93,1680.18 1495.5,1681C 1478.5,1681.5 1461.5,1681.67 1444.5,1681.5C 1440.38,1680.29 1436.05,1679.62 1431.5,1679.5C 1427.76,1677.9 1423.76,1676.9 1419.5,1676.5C 1417.79,1675.26 1415.79,1674.59 1413.5,1674.5C 1412.21,1674.74 1411.21,1674.4 1410.5,1673.5C 1409.22,1672.07 1407.55,1671.4 1405.5,1671.5C 1399.82,1667.99 1393.82,1664.99 1387.5,1662.5C 1383.85,1659.34 1379.85,1656.67 1375.5,1654.5C 1374.42,1652.41 1372.75,1651.08 1370.5,1650.5C 1368.1,1647.1 1365.1,1644.43 1361.5,1642.5C 1360.17,1641.83 1359.17,1640.83 1358.5,1639.5C 1354.07,1633.64 1349.4,1627.97 1344.5,1622.5C 1344.57,1620.97 1343.91,1619.97 1342.5,1619.5C 1338.83,1612.83 1335.16,1606.16 1331.5,1599.5C 1325.2,1583.63 1321.2,1567.29 1319.5,1550.5C 1319.5,1523.17 1319.5,1495.83 1319.5,1468.5C 1206.83,1468.5 1094.17,1468.5 981.5,1468.5C 981.918,1499.19 981.418,1529.86 980,1560.5C 973.211,1604.62 951.045,1638.45 913.5,1662C 895.638,1672.23 876.638,1678.73 856.5,1681.5C 836.817,1681.73 817.15,1681.4 797.5,1680.5C 794.411,1679.22 791.078,1678.55 787.5,1678.5C 784.093,1676.93 780.427,1675.93 776.5,1675.5C 775.209,1675.74 774.209,1675.4 773.5,1674.5C 771.208,1672.73 768.542,1671.73 765.5,1671.5C 760.484,1668.33 755.151,1665.66 749.5,1663.5C 748.341,1661.75 746.674,1660.75 744.5,1660.5C 744.027,1659.09 743.027,1658.43 741.5,1658.5C 739.704,1656.1 737.37,1654.43 734.5,1653.5C 733.415,1651.41 731.749,1650.08 729.5,1649.5C 724.167,1643.5 718.5,1637.83 712.5,1632.5C 710.542,1629.21 708.209,1626.21 705.5,1623.5C 704.241,1619.98 702.241,1616.98 699.5,1614.5C 698.258,1610.34 696.258,1606.68 693.5,1603.5C 690.481,1595.44 687.481,1587.44 684.5,1579.5C 684.435,1576.57 683.768,1573.91 682.5,1571.5C 681.247,1562.21 680.414,1552.88 680,1543.5C 679.5,1490.17 679.333,1436.83 679.5,1383.5C 665.833,1383.5 652.167,1383.5 638.5,1383.5C 638.5,1354.17 638.5,1324.83 638.5,1295.5C 652.167,1295.5 665.833,1295.5 679.5,1295.5C 679.5,1241.83 679.5,1188.17 679.5,1134.5C 680.343,1123.91 681.676,1113.25 683.5,1102.5C 683.232,1100.9 683.566,1099.57 684.5,1098.5C 689.048,1085.4 694.714,1072.73 701.5,1060.5C 703.326,1058.85 704.66,1056.85 705.5,1054.5C 707.262,1053.74 708.262,1052.4 708.5,1050.5C 710.587,1049.42 711.92,1047.75 712.5,1045.5C 718.167,1040.5 723.5,1035.17 728.5,1029.5C 739.639,1021.37 751.305,1014.03 763.5,1007.5C 765.553,1007.6 767.22,1006.93 768.5,1005.5C 776.599,1003.15 784.599,1000.81 792.5,998.5C 797.37,998.31 802.036,997.644 806.5,996.5C 814.326,995.834 822.326,995.5 830.5,995.5C 841.712,995.29 852.712,995.956 863.5,997.5 Z M 849.5,1085.5 C 850.919,1086.45 852.585,1086.78 854.5,1086.5C 859.099,1088.46 863.765,1090.46 868.5,1092.5C 868.973,1093.91 869.973,1094.57 871.5,1094.5C 872.585,1096.59 874.251,1097.92 876.5,1098.5C 876.833,1099.5 877.5,1100.17 878.5,1100.5C 881.841,1105.51 885.174,1110.51 888.5,1115.5C 889.861,1120.94 891.194,1126.28 892.5,1131.5C 892.822,1272.18 892.489,1412.85 891.5,1553.5C 889.52,1558.42 887.52,1563.42 885.5,1568.5C 884.094,1568.97 883.427,1569.97 883.5,1571.5C 881.413,1572.58 880.08,1574.25 879.5,1576.5C 877.833,1577.5 876.5,1578.83 875.5,1580.5C 867.746,1586.21 859.079,1590.04 849.5,1592C 836.833,1592.67 824.167,1592.67 811.5,1592C 785.702,1585.6 771.702,1569.1 769.5,1542.5C 769.5,1406.83 769.5,1271.17 769.5,1135.5C 771.64,1108.38 785.974,1091.88 812.5,1086C 824.829,1085.5 837.162,1085.33 849.5,1085.5 Z M 1500.5,1088.5 C 1504.59,1090.74 1508.59,1093.24 1512.5,1096C 1515.7,1099.37 1519.04,1102.54 1522.5,1105.5C 1526.41,1112.01 1529.25,1119.01 1531,1126.5C 1531.5,1268.5 1531.67,1410.5 1531.5,1552.5C 1530.39,1554.6 1529.72,1556.93 1529.5,1559.5C 1526.25,1566.33 1522.25,1572.67 1517.5,1578.5C 1514.91,1579.42 1512.91,1581.09 1511.5,1583.5C 1509.97,1583.43 1508.97,1584.09 1508.5,1585.5C 1503.77,1587.54 1499.1,1589.54 1494.5,1591.5C 1480.19,1592.58 1465.85,1592.74 1451.5,1592C 1430.21,1587.38 1416.71,1574.55 1411,1553.5C 1409.51,1412.86 1409.01,1272.19 1409.5,1131.5C 1416.46,1098.91 1436.79,1083.58 1470.5,1085.5C 1480.67,1085.06 1490.67,1086.06 1500.5,1088.5 Z M 983.5,1298.5 C 1095.17,1298.5 1206.83,1298.5 1318.5,1298.5C 1318.5,1325.5 1318.5,1352.5 1318.5,1379.5C 1206.83,1379.5 1095.17,1379.5 983.5,1379.5C 983.5,1352.5 983.5,1325.5 983.5,1298.5 Z"/></g>
<g><path style="opacity:0.527" fill="#000000" d="M 1446.5,996.5 C 1442.04,997.644 1437.37,998.31 1432.5,998.5C 1436.9,996.896 1441.57,996.229 1446.5,996.5 Z"/></g>
<g><path style="opacity:0.528" fill="#000000" d="M 792.5,998.5 C 784.599,1000.81 776.599,1003.15 768.5,1005.5C 775.952,1001.63 783.952,999.3 792.5,998.5 Z"/></g>
<g><path style="opacity:0.507" fill="#000000" d="M 1423.5,1000.5 C 1420.5,1002.28 1417.16,1003.28 1413.5,1003.5C 1416.5,1001.72 1419.84,1000.72 1423.5,1000.5 Z"/></g>
<g><path style="opacity:0.461" fill="#000000" d="M 1413.5,1003.5 C 1405.57,1007.13 1397.57,1010.8 1389.5,1014.5C 1396.69,1009.24 1404.69,1005.57 1413.5,1003.5 Z"/></g>
<g><path style="opacity:0.512" fill="#000000" d="M 768.5,1005.5 C 767.22,1006.93 765.553,1007.6 763.5,1007.5C 764.78,1006.07 766.447,1005.4 768.5,1005.5 Z"/></g>
<g><path style="opacity:0.481" fill="#000000" d="M 763.5,1007.5 C 751.305,1014.03 739.639,1021.37 728.5,1029.5C 738.59,1019.76 750.257,1012.43 763.5,1007.5 Z"/></g>
<g><path style="opacity:0.144" fill="#000003" d="M 1446.5,996.5 C 1462.66,995.338 1478.99,995.172 1495.5,996C 1544.2,1001.74 1581.04,1025.57 1606,1067.5C 1615.5,1085 1621.17,1103.66 1623,1123.5C 1623.5,1180.5 1623.67,1237.5 1623.5,1294.5C 1637.01,1294.17 1650.34,1294.5 1663.5,1295.5C 1649.5,1295.67 1635.5,1295.5 1621.5,1295C 1622.83,1241.57 1622.83,1188.07 1621.5,1134.5C 1620.79,1123.72 1619.29,1113.06 1617,1102.5C 1598.67,1041.17 1557.84,1006 1494.5,997C 1478.5,996.5 1462.5,996.333 1446.5,996.5 Z"/></g>
<g><path style="opacity:0.494" fill="#000000" d="M 1389.5,1014.5 C 1388.34,1016.25 1386.67,1017.25 1384.5,1017.5C 1385.66,1015.75 1387.33,1014.75 1389.5,1014.5 Z"/></g>
<g><path style="opacity:0.431" fill="#000000" d="M 1384.5,1017.5 C 1382.85,1019.33 1380.85,1020.66 1378.5,1021.5C 1379.8,1019.18 1381.8,1017.84 1384.5,1017.5 Z"/></g>
<g><path style="opacity:0.493" fill="#000000" d="M 1378.5,1021.5 C 1369.23,1029.44 1360.23,1037.77 1351.5,1046.5C 1358.92,1036.41 1367.92,1028.08 1378.5,1021.5 Z"/></g>
<g><path style="opacity:0.493" fill="#000000" d="M 143.5,1024.5 C 144.801,1028.94 145.468,1033.61 145.5,1038.5C 144.028,1034.08 143.362,1029.41 143.5,1024.5 Z"/></g>
<g><path style="opacity:0.467" fill="#000000" d="M 728.5,1029.5 C 723.5,1035.17 718.167,1040.5 712.5,1045.5C 716.833,1039.17 722.167,1033.83 728.5,1029.5 Z"/></g>
<g><path style="opacity:0.493" fill="#000000" d="M 145.5,1038.5 C 147.461,1046.27 148.795,1054.27 149.5,1062.5C 147.322,1054.77 145.989,1046.77 145.5,1038.5 Z"/></g>
<g><path style="opacity:0.502" fill="#000000" d="M 712.5,1045.5 C 711.92,1047.75 710.587,1049.42 708.5,1050.5C 709.08,1048.25 710.413,1046.58 712.5,1045.5 Z"/></g>
<g><path style="opacity:0.478" fill="#000000" d="M 1351.5,1046.5 C 1350.92,1048.75 1349.59,1050.42 1347.5,1051.5C 1348.08,1049.25 1349.41,1047.58 1351.5,1046.5 Z"/></g>
<g><path style="opacity:0.503" fill="#000000" d="M 708.5,1050.5 C 708.262,1052.4 707.262,1053.74 705.5,1054.5C 705.738,1052.6 706.738,1051.26 708.5,1050.5 Z"/></g>
<g><path style="opacity:0.47" fill="#000000" d="M 1347.5,1051.5 C 1346.57,1054.37 1344.9,1056.7 1342.5,1058.5C 1343.43,1055.63 1345.1,1053.3 1347.5,1051.5 Z"/></g>
<g><path style="opacity:0.464" fill="#000000" d="M 705.5,1054.5 C 704.66,1056.85 703.326,1058.85 701.5,1060.5C 701.845,1057.8 703.178,1055.8 705.5,1054.5 Z"/></g>
<g><path style="opacity:0.471" fill="#000000" d="M 1342.5,1058.5 C 1341,1062.17 1339,1065.51 1336.5,1068.5C 1337.5,1064.49 1339.5,1061.16 1342.5,1058.5 Z"/></g>
<g><path style="opacity:0.509" fill="#000000" d="M 701.5,1060.5 C 694.714,1072.73 689.048,1085.4 684.5,1098.5C 687.48,1084.55 693.146,1071.88 701.5,1060.5 Z"/></g>
<g><path style="opacity:0.494" fill="#000000" d="M 149.5,1062.5 C 152.53,1074.98 155.196,1087.64 157.5,1100.5C 153.703,1088.19 151.036,1075.52 149.5,1062.5 Z"/></g>
<g><path style="opacity:0.382" fill="#000000" d="M 1336.5,1068.5 C 1335.34,1072.15 1333.67,1075.48 1331.5,1078.5C 1332.13,1074.58 1333.79,1071.25 1336.5,1068.5 Z"/></g>
<g><path style="opacity:0.447" fill="#000000" d="M 1331.5,1078.5 C 1328.81,1086.24 1326.14,1093.91 1323.5,1101.5C 1324.6,1093.2 1327.27,1085.53 1331.5,1078.5 Z"/></g>
<g><path style="opacity:0.42" fill="#000001" d="M 849.5,1085.5 C 837.162,1085.33 824.829,1085.5 812.5,1086C 785.974,1091.88 771.64,1108.38 769.5,1135.5C 768.605,1116.14 776.605,1101.3 793.5,1091C 799.116,1087.86 805.116,1085.86 811.5,1085C 824.34,1084.17 837.007,1084.34 849.5,1085.5 Z"/></g>
<g><path style="opacity:0.504" fill="#000000" d="M 854.5,1086.5 C 859.937,1086.89 864.604,1088.89 868.5,1092.5C 863.765,1090.46 859.099,1088.46 854.5,1086.5 Z"/></g>
<g><path style="opacity:0.43" fill="#000000" d="M 1500.5,1088.5 C 1510.07,1091.28 1517.4,1096.95 1522.5,1105.5C 1519.04,1102.54 1515.7,1099.37 1512.5,1096C 1508.59,1093.24 1504.59,1090.74 1500.5,1088.5 Z"/></g>
<g><path style="opacity:0.414" fill="#000000" d="M 868.5,1092.5 C 870.027,1092.43 871.027,1093.09 871.5,1094.5C 869.973,1094.57 868.973,1093.91 868.5,1092.5 Z"/></g>
<g><path style="opacity:0.421" fill="#000000" d="M 871.5,1094.5 C 873.749,1095.08 875.415,1096.41 876.5,1098.5C 874.251,1097.92 872.585,1096.59 871.5,1094.5 Z"/></g>
<g><path style="opacity:0.474" fill="#000000" d="M 157.5,1100.5 C 159.768,1106.91 161.435,1113.57 162.5,1120.5C 159.917,1114.17 158.251,1107.5 157.5,1100.5 Z"/></g>
<g><path style="opacity:0.46" fill="#000000" d="M 878.5,1100.5 C 883.436,1104.44 886.769,1109.44 888.5,1115.5C 885.174,1110.51 881.841,1105.51 878.5,1100.5 Z"/></g>
<g><path style="opacity:0.498" fill="#000000" d="M 1323.5,1101.5 C 1322.14,1110.3 1320.81,1118.97 1319.5,1127.5C 1319.34,1118.48 1320.67,1109.81 1323.5,1101.5 Z"/></g>
<g><path style="opacity:0.578" fill="#000000" d="M 683.5,1102.5 C 681.676,1113.25 680.343,1123.91 679.5,1134.5C 678.89,1123.45 680.223,1112.79 683.5,1102.5 Z"/></g>
<g><path style="opacity:0.044" fill="#000000" d="M 1522.5,1105.5 C 1527.5,1111.17 1530.67,1117.84 1532,1125.5C 1532.83,1268 1532.67,1410.33 1531.5,1552.5C 1531.67,1410.5 1531.5,1268.5 1531,1126.5C 1529.25,1119.01 1526.41,1112.01 1522.5,1105.5 Z"/></g>
<g><path style="opacity:0.435" fill="#000000" d="M 888.5,1115.5 C 891.376,1120.34 892.709,1125.67 892.5,1131.5C 891.194,1126.28 889.861,1120.94 888.5,1115.5 Z"/></g>
<g><path style="opacity:0.05" fill="#000105" d="M 1500.5,1088.5 C 1490.67,1086.06 1480.67,1085.06 1470.5,1085.5C 1436.79,1083.58 1416.46,1098.91 1409.5,1131.5C 1408.81,1121.51 1411.64,1112.51 1418,1104.5C 1431.75,1088.3 1449.25,1081.63 1470.5,1084.5C 1476.83,1084.67 1483.17,1084.83 1489.5,1085C 1493.53,1085.42 1497.2,1086.58 1500.5,1088.5 Z"/></g>
<g><path style="opacity:0.51" fill="#000000" d="M 163.5,1124.5 C 164.924,1126.51 165.59,1128.85 165.5,1131.5C 164.076,1129.49 163.41,1127.15 163.5,1124.5 Z"/></g>
<g><path style="opacity:0.31" fill="#000001" d="M 863.5,997.5 C 916.418,1006.58 953.251,1035.91 974,1085.5C 977.922,1095.85 980.588,1106.52 982,1117.5C 983.408,1147.81 983.908,1178.14 983.5,1208.5C 1095.17,1208.5 1206.83,1208.5 1318.5,1208.5C 1318.17,1181.33 1318.5,1154.33 1319.5,1127.5C 1319.5,1154.83 1319.5,1182.17 1319.5,1209.5C 1206.83,1209.5 1094.17,1209.5 981.5,1209.5C 981.918,1178.81 981.418,1148.14 980,1117.5C 978.844,1109.72 977.177,1102.05 975,1094.5C 955.912,1041.24 918.746,1008.9 863.5,997.5 Z"/></g>
<g><path style="opacity:0.503" fill="#000000" d="M 165.5,1131.5 C 167.435,1135.89 168.769,1140.56 169.5,1145.5C 167.254,1141.2 165.92,1136.53 165.5,1131.5 Z"/></g>
<g><path style="opacity:0.082" fill="#000103" d="M 1409.5,1131.5 C 1409.01,1272.19 1409.51,1412.86 1411,1553.5C 1416.71,1574.55 1430.21,1587.38 1451.5,1592C 1465.85,1592.74 1480.19,1592.58 1494.5,1591.5C 1493.39,1592.29 1492.06,1592.79 1490.5,1593C 1477.17,1593.67 1463.83,1593.67 1450.5,1593C 1428.53,1588.28 1414.7,1575.12 1409,1553.5C 1407.84,1482.2 1407.34,1410.86 1407.5,1339.5C 1407.5,1269.83 1408.17,1200.5 1409.5,1131.5 Z"/></g>
<g><path style="opacity:0.221" fill="#000000" d="M 679.5,1134.5 C 679.5,1188.17 679.5,1241.83 679.5,1295.5C 665.833,1295.5 652.167,1295.5 638.5,1295.5C 651.656,1294.5 664.99,1294.17 678.5,1294.5C 678.168,1241 678.501,1187.66 679.5,1134.5 Z"/></g>
<g><path style="opacity:0.523" fill="#000000" d="M 169.5,1145.5 C 171.943,1150.5 173.61,1155.83 174.5,1161.5C 172.057,1156.5 170.39,1151.17 169.5,1145.5 Z"/></g>
<g><path style="opacity:0.442" fill="#000000" d="M 175.5,1164.5 C 177.072,1167.22 178.072,1170.22 178.5,1173.5C 176.528,1170.92 175.528,1167.92 175.5,1164.5 Z"/></g>
<g><path style="opacity:0.509" fill="#000000" d="M 179.5,1176.5 C 181.935,1180.8 183.602,1185.47 184.5,1190.5C 182.065,1186.2 180.398,1181.53 179.5,1176.5 Z"/></g>
<g><path style="opacity:0.499" fill="#000000" d="M 184.5,1190.5 C 186.267,1192.79 187.267,1195.46 187.5,1198.5C 185.733,1196.21 184.733,1193.54 184.5,1190.5 Z"/></g>
<g><path style="opacity:0.504" fill="#000000" d="M 187.5,1198.5 C 190.737,1204.86 193.403,1211.53 195.5,1218.5C 191.872,1212.3 189.205,1205.63 187.5,1198.5 Z"/></g>
<g><path style="opacity:0.507" fill="#000000" d="M 195.5,1218.5 C 196.931,1219.78 197.598,1221.45 197.5,1223.5C 196.069,1222.22 195.402,1220.55 195.5,1218.5 Z"/></g>
<g><path style="opacity:0.5" fill="#000000" d="M 197.5,1223.5 C 199.293,1225.43 200.293,1227.76 200.5,1230.5C 198.707,1228.57 197.707,1226.24 197.5,1223.5 Z"/></g>
<g><path style="opacity:0.507" fill="#000000" d="M 200.5,1230.5 C 202.625,1233.09 203.958,1236.09 204.5,1239.5C 202.375,1236.91 201.042,1233.91 200.5,1230.5 Z"/></g>
<g><path style="opacity:0.514" fill="#000000" d="M 204.5,1239.5 C 206.957,1242.75 208.624,1246.42 209.5,1250.5C 207.043,1247.25 205.376,1243.58 204.5,1239.5 Z"/></g>
<g><path style="opacity:0.476" fill="#000000" d="M 210.5,1252.5 C 216.675,1263.52 222.341,1274.85 227.5,1286.5C 220.793,1275.75 215.126,1264.42 210.5,1252.5 Z"/></g>
<g><path style="opacity:0.518" fill="#000000" d="M 227.5,1286.5 C 230.258,1289.68 232.258,1293.34 233.5,1297.5C 230.742,1294.32 228.742,1290.66 227.5,1286.5 Z"/></g>
<g><path style="opacity:0.505" fill="#000000" d="M 233.5,1297.5 C 239.002,1305.83 244.002,1314.5 248.5,1323.5C 242.493,1315.5 237.493,1306.83 233.5,1297.5 Z"/></g>
<g><path style="opacity:0.455" fill="#000000" d="M 981.5,1297.5 C 1094.17,1297.5 1206.83,1297.5 1319.5,1297.5C 1319.5,1325.17 1319.5,1352.83 1319.5,1380.5C 1206.83,1380.5 1094.17,1380.5 981.5,1380.5C 981.5,1352.83 981.5,1325.17 981.5,1297.5 Z M 983.5,1298.5 C 983.5,1325.5 983.5,1352.5 983.5,1379.5C 1095.17,1379.5 1206.83,1379.5 1318.5,1379.5C 1318.5,1352.5 1318.5,1325.5 1318.5,1298.5C 1206.83,1298.5 1095.17,1298.5 983.5,1298.5 Z"/></g>
<g><path style="opacity:0.483" fill="#000000" d="M 248.5,1323.5 C 250.95,1325.63 252.617,1328.3 253.5,1331.5C 251.05,1329.37 249.383,1326.7 248.5,1323.5 Z"/></g>
<g><path style="opacity:0.521" fill="#000000" d="M 253.5,1331.5 C 256.579,1334.65 258.913,1338.32 260.5,1342.5C 257.421,1339.35 255.087,1335.68 253.5,1331.5 Z"/></g>
<g><path style="opacity:0.523" fill="#000000" d="M 260.5,1342.5 C 261.906,1342.97 262.573,1343.97 262.5,1345.5C 261.094,1345.03 260.427,1344.03 260.5,1342.5 Z"/></g>
<g><path style="opacity:0.475" fill="#000000" d="M 262.5,1345.5 C 265.66,1349.15 268.327,1353.15 270.5,1357.5C 266.844,1354.2 264.178,1350.2 262.5,1345.5 Z"/></g>
<g><path style="opacity:0.503" fill="#000000" d="M 270.5,1357.5 C 271.906,1357.97 272.573,1358.97 272.5,1360.5C 271.094,1360.03 270.427,1359.03 270.5,1357.5 Z"/></g>
<g><path style="opacity:0.505" fill="#000000" d="M 272.5,1360.5 C 275.605,1363.27 277.938,1366.61 279.5,1370.5C 276.395,1367.73 274.062,1364.39 272.5,1360.5 Z"/></g>
<g><path style="opacity:0.604" fill="#000000" d="M 578.5,1363.5 C 525.417,1415.08 472.75,1467.25 420.5,1520C 425.361,1524.03 430.028,1528.2 434.5,1532.5C 428.775,1528.95 423.441,1524.79 418.5,1520C 471.167,1467.33 523.833,1414.67 576.5,1362C 577.816,1361.47 578.483,1361.97 578.5,1363.5 Z"/></g>
<g><path style="opacity:1" fill="#091357" d="M 578.5,1363.5 C 578.833,1449.5 578.5,1535.5 577.5,1621.5C 576.261,1621.06 575.261,1620.39 574.5,1619.5C 568.151,1615.66 561.484,1612.33 554.5,1609.5C 552.847,1609.34 551.514,1608.67 550.5,1607.5C 546.653,1604.41 542.32,1602.07 537.5,1600.5C 530.996,1595.74 523.996,1591.74 516.5,1588.5C 515.341,1586.75 513.674,1585.75 511.5,1585.5C 510.341,1583.75 508.674,1582.75 506.5,1582.5C 504.371,1580.05 501.704,1578.38 498.5,1577.5C 494.376,1573.72 489.709,1570.72 484.5,1568.5C 484.027,1567.09 483.027,1566.43 481.5,1566.5C 481.027,1565.09 480.027,1564.43 478.5,1564.5C 474.698,1560.76 470.365,1557.76 465.5,1555.5C 463.704,1553.1 461.37,1551.43 458.5,1550.5C 455.399,1547.07 451.732,1544.4 447.5,1542.5C 446.738,1540.74 445.404,1539.74 443.5,1539.5C 441.051,1536.44 438.051,1534.11 434.5,1532.5C 430.028,1528.2 425.361,1524.03 420.5,1520C 472.75,1467.25 525.417,1415.08 578.5,1363.5 Z"/></g>
<g><path style="opacity:0.486" fill="#000000" d="M 279.5,1370.5 C 281.9,1372.3 283.567,1374.63 284.5,1377.5C 282.1,1375.7 280.433,1373.37 279.5,1370.5 Z"/></g>
<g><path style="opacity:0.476" fill="#000000" d="M 284.5,1377.5 C 286.262,1378.26 287.262,1379.6 287.5,1381.5C 285.738,1380.74 284.738,1379.4 284.5,1377.5 Z"/></g>
<g><path style="opacity:0.5" fill="#000000" d="M 287.5,1381.5 C 289.262,1382.26 290.262,1383.6 290.5,1385.5C 288.738,1384.74 287.738,1383.4 287.5,1381.5 Z"/></g>
<g><path style="opacity:0.115" fill="#000000" d="M 638.5,1383.5 C 652.167,1383.5 665.833,1383.5 679.5,1383.5C 679.333,1436.83 679.5,1490.17 680,1543.5C 680.414,1552.88 681.247,1562.21 682.5,1571.5C 680.21,1562.79 679.044,1553.79 679,1544.5C 678.5,1491.17 678.333,1437.83 678.5,1384.5C 664.99,1384.83 651.656,1384.5 638.5,1383.5 Z"/></g>
<g><path style="opacity:0.051" fill="#000003" d="M 1663.5,1383.5 C 1650.34,1384.5 1637.01,1384.83 1623.5,1384.5C 1623.67,1441.17 1623.5,1497.83 1623,1554.5C 1617.6,1600.86 1595.43,1636.7 1556.5,1662C 1537.99,1673.06 1517.99,1679.72 1496.5,1682C 1479,1682.83 1461.66,1682.66 1444.5,1681.5C 1461.5,1681.67 1478.5,1681.5 1495.5,1681C 1502.93,1680.18 1510.26,1678.85 1517.5,1677C 1581.89,1655.76 1616.56,1611.26 1621.5,1543.5C 1622.5,1490.17 1622.83,1436.84 1622.5,1383.5C 1636.17,1383.5 1649.83,1383.5 1663.5,1383.5 Z"/></g>
<g><path style="opacity:0.516" fill="#000000" d="M 290.5,1385.5 C 292.262,1386.26 293.262,1387.6 293.5,1389.5C 291.738,1388.74 290.738,1387.4 290.5,1385.5 Z"/></g>
<g><path style="opacity:0.494" fill="#000000" d="M 434.5,1532.5 C 438.051,1534.11 441.051,1536.44 443.5,1539.5C 439.949,1537.89 436.949,1535.56 434.5,1532.5 Z"/></g>
<g><path style="opacity:0.48" fill="#000000" d="M 443.5,1539.5 C 445.404,1539.74 446.738,1540.74 447.5,1542.5C 445.596,1542.26 444.262,1541.26 443.5,1539.5 Z"/></g>
<g><path style="opacity:0.512" fill="#000000" d="M 447.5,1542.5 C 451.732,1544.4 455.399,1547.07 458.5,1550.5C 454.268,1548.6 450.601,1545.93 447.5,1542.5 Z"/></g>
<g><path style="opacity:0.51" fill="#000000" d="M 458.5,1550.5 C 461.37,1551.43 463.704,1553.1 465.5,1555.5C 462.63,1554.57 460.296,1552.9 458.5,1550.5 Z"/></g>
<g><path style="opacity:0.484" fill="#000000" d="M 1319.5,1550.5 C 1321.2,1567.29 1325.2,1583.63 1331.5,1599.5C 1323.71,1584.22 1319.71,1567.88 1319.5,1550.5 Z"/></g>
<g><path style="opacity:0.51" fill="#000000" d="M 891.5,1553.5 C 891.044,1559.22 889.044,1564.22 885.5,1568.5C 887.52,1563.42 889.52,1558.42 891.5,1553.5 Z"/></g>
<g><path style="opacity:0.509" fill="#000000" d="M 465.5,1555.5 C 470.365,1557.76 474.698,1560.76 478.5,1564.5C 473.635,1562.24 469.302,1559.24 465.5,1555.5 Z"/></g>
<g><path style="opacity:0.401" fill="#000000" d="M 769.5,1542.5 C 771.702,1569.1 785.702,1585.6 811.5,1592C 824.167,1592.67 836.833,1592.67 849.5,1592C 859.079,1590.04 867.746,1586.21 875.5,1580.5C 868.599,1587.28 860.266,1591.45 850.5,1593C 837.167,1593.67 823.833,1593.67 810.5,1593C 788.445,1587.94 774.611,1574.44 769,1552.5C 768.192,1548.97 768.359,1545.64 769.5,1542.5 Z"/></g>
<g><path style="opacity:0.406" fill="#000000" d="M 1529.5,1559.5 C 1527.76,1567.32 1523.76,1573.65 1517.5,1578.5C 1522.25,1572.67 1526.25,1566.33 1529.5,1559.5 Z"/></g>
<g><path style="opacity:0.467" fill="#000000" d="M 478.5,1564.5 C 480.027,1564.43 481.027,1565.09 481.5,1566.5C 479.973,1566.57 478.973,1565.91 478.5,1564.5 Z"/></g>
<g><path style="opacity:0.504" fill="#000000" d="M 481.5,1566.5 C 483.027,1566.43 484.027,1567.09 484.5,1568.5C 482.973,1568.57 481.973,1567.91 481.5,1566.5 Z"/></g>
<g><path style="opacity:0.508" fill="#000000" d="M 484.5,1568.5 C 489.709,1570.72 494.376,1573.72 498.5,1577.5C 493.291,1575.28 488.624,1572.28 484.5,1568.5 Z"/></g>
<g><path style="opacity:0.464" fill="#000000" d="M 885.5,1568.5 C 885.573,1570.03 884.906,1571.03 883.5,1571.5C 883.427,1569.97 884.094,1568.97 885.5,1568.5 Z"/></g>
<g><path style="opacity:0.466" fill="#000000" d="M 682.5,1571.5 C 683.768,1573.91 684.435,1576.57 684.5,1579.5C 682.96,1577.16 682.294,1574.5 682.5,1571.5 Z"/></g>
<g><path style="opacity:0.416" fill="#000000" d="M 883.5,1571.5 C 882.92,1573.75 881.587,1575.42 879.5,1576.5C 880.08,1574.25 881.413,1572.58 883.5,1571.5 Z"/></g>
<g><path style="opacity:0.646" fill="#000000" d="M 879.5,1576.5 C 879.167,1578.83 877.833,1580.17 875.5,1580.5C 876.5,1578.83 877.833,1577.5 879.5,1576.5 Z"/></g>
<g><path style="opacity:0.476" fill="#000000" d="M 498.5,1577.5 C 501.704,1578.38 504.371,1580.05 506.5,1582.5C 503.296,1581.62 500.629,1579.95 498.5,1577.5 Z"/></g>
<g><path style="opacity:0.395" fill="#000000" d="M 1517.5,1578.5 C 1516.09,1580.91 1514.09,1582.58 1511.5,1583.5C 1512.91,1581.09 1514.91,1579.42 1517.5,1578.5 Z"/></g>
<g><path style="opacity:0.515" fill="#000000" d="M 684.5,1579.5 C 687.481,1587.44 690.481,1595.44 693.5,1603.5C 688.942,1596.17 685.942,1588.17 684.5,1579.5 Z"/></g>
<g><path style="opacity:0.506" fill="#000000" d="M 506.5,1582.5 C 508.674,1582.75 510.341,1583.75 511.5,1585.5C 509.326,1585.25 507.659,1584.25 506.5,1582.5 Z"/></g>
<g><path style="opacity:0.416" fill="#000000" d="M 1511.5,1583.5 C 1511.03,1584.91 1510.03,1585.57 1508.5,1585.5C 1508.97,1584.09 1509.97,1583.43 1511.5,1583.5 Z"/></g>
<g><path style="opacity:0.489" fill="#000000" d="M 511.5,1585.5 C 513.674,1585.75 515.341,1586.75 516.5,1588.5C 514.326,1588.25 512.659,1587.25 511.5,1585.5 Z"/></g>
<g><path style="opacity:0.461" fill="#000000" d="M 1508.5,1585.5 C 1504.6,1589.11 1499.94,1591.11 1494.5,1591.5C 1499.1,1589.54 1503.77,1587.54 1508.5,1585.5 Z"/></g>
<g><path style="opacity:0.5" fill="#000000" d="M 516.5,1588.5 C 523.996,1591.74 530.996,1595.74 537.5,1600.5C 530.004,1597.26 523.004,1593.26 516.5,1588.5 Z"/></g>
<g><path style="opacity:0.352" fill="#000002" d="M 1319.5,1550.5 C 1318.5,1523.67 1318.17,1496.67 1318.5,1469.5C 1206.83,1469.5 1095.17,1469.5 983.5,1469.5C 983.908,1499.86 983.408,1530.19 982,1560.5C 971.829,1619.03 938.662,1657.86 882.5,1677C 874.029,1679.69 865.362,1681.19 856.5,1681.5C 876.638,1678.73 895.638,1672.23 913.5,1662C 951.045,1638.45 973.211,1604.62 980,1560.5C 981.418,1529.86 981.918,1499.19 981.5,1468.5C 1094.17,1468.5 1206.83,1468.5 1319.5,1468.5C 1319.5,1495.83 1319.5,1523.17 1319.5,1550.5 Z"/></g>
<g><path style="opacity:0.45" fill="#000000" d="M 1331.5,1599.5 C 1335.16,1606.16 1338.83,1612.83 1342.5,1619.5C 1337.29,1613.76 1333.63,1607.1 1331.5,1599.5 Z"/></g>
<g><path style="opacity:0.486" fill="#000000" d="M 537.5,1600.5 C 542.32,1602.07 546.653,1604.41 550.5,1607.5C 545.68,1605.93 541.347,1603.59 537.5,1600.5 Z"/></g>
<g><path style="opacity:0.534" fill="#000000" d="M 693.5,1603.5 C 696.258,1606.68 698.258,1610.34 699.5,1614.5C 696.742,1611.32 694.742,1607.66 693.5,1603.5 Z"/></g>
<g><path style="opacity:0.406" fill="#000000" d="M 554.5,1609.5 C 561.484,1612.33 568.151,1615.66 574.5,1619.5C 567.248,1617.21 560.581,1613.87 554.5,1609.5 Z"/></g>
<g><path style="opacity:0.478" fill="#000000" d="M 699.5,1614.5 C 702.241,1616.98 704.241,1619.98 705.5,1623.5C 702.723,1621.05 700.723,1618.05 699.5,1614.5 Z"/></g>
<g><path style="opacity:0.466" fill="#000000" d="M 1342.5,1619.5 C 1343.91,1619.97 1344.57,1620.97 1344.5,1622.5C 1343.09,1622.03 1342.43,1621.03 1342.5,1619.5 Z"/></g>
<g><path style="opacity:0.476" fill="#000000" d="M 1344.5,1622.5 C 1349.4,1627.97 1354.07,1633.64 1358.5,1639.5C 1352.64,1634.76 1347.97,1629.1 1344.5,1622.5 Z"/></g>
<g><path style="opacity:0.512" fill="#000000" d="M 705.5,1623.5 C 708.209,1626.21 710.542,1629.21 712.5,1632.5C 709.027,1630.36 706.694,1627.36 705.5,1623.5 Z"/></g>
<g><path style="opacity:0.51" fill="#000000" d="M 712.5,1632.5 C 718.5,1637.83 724.167,1643.5 729.5,1649.5C 722.833,1644.83 717.167,1639.17 712.5,1632.5 Z"/></g>
<g><path style="opacity:0.513" fill="#000000" d="M 1361.5,1642.5 C 1365.1,1644.43 1368.1,1647.1 1370.5,1650.5C 1366.9,1648.57 1363.9,1645.9 1361.5,1642.5 Z"/></g>
<g><path style="opacity:0.507" fill="#000000" d="M 729.5,1649.5 C 731.749,1650.08 733.415,1651.41 734.5,1653.5C 732.251,1652.92 730.585,1651.59 729.5,1649.5 Z"/></g>
<g><path style="opacity:0.453" fill="#000000" d="M 1370.5,1650.5 C 1372.75,1651.08 1374.42,1652.41 1375.5,1654.5C 1373.25,1653.92 1371.58,1652.59 1370.5,1650.5 Z"/></g>
<g><path style="opacity:0.534" fill="#000000" d="M 734.5,1653.5 C 737.37,1654.43 739.704,1656.1 741.5,1658.5C 738.63,1657.57 736.296,1655.9 734.5,1653.5 Z"/></g>
<g><path style="opacity:0.442" fill="#000000" d="M 1375.5,1654.5 C 1379.85,1656.67 1383.85,1659.34 1387.5,1662.5C 1382.8,1660.82 1378.8,1658.16 1375.5,1654.5 Z"/></g>
<g><path style="opacity:0.486" fill="#000000" d="M 741.5,1658.5 C 743.027,1658.43 744.027,1659.09 744.5,1660.5C 742.973,1660.57 741.973,1659.91 741.5,1658.5 Z"/></g>
<g><path style="opacity:0.509" fill="#000000" d="M 744.5,1660.5 C 746.674,1660.75 748.341,1661.75 749.5,1663.5C 747.326,1663.25 745.659,1662.25 744.5,1660.5 Z"/></g>
<g><path style="opacity:0.494" fill="#000000" d="M 1387.5,1662.5 C 1393.82,1664.99 1399.82,1667.99 1405.5,1671.5C 1398.91,1669.54 1392.91,1666.54 1387.5,1662.5 Z"/></g>
<g><path style="opacity:0.465" fill="#000000" d="M 749.5,1663.5 C 755.151,1665.66 760.484,1668.33 765.5,1671.5C 759.581,1669.87 754.247,1667.21 749.5,1663.5 Z"/></g>
<g><path style="opacity:0.501" fill="#000000" d="M 765.5,1671.5 C 768.542,1671.73 771.208,1672.73 773.5,1674.5C 770.458,1674.27 767.792,1673.27 765.5,1671.5 Z"/></g>
<g><path style="opacity:0.474" fill="#000000" d="M 1405.5,1671.5 C 1407.55,1671.4 1409.22,1672.07 1410.5,1673.5C 1408.45,1673.6 1406.78,1672.93 1405.5,1671.5 Z"/></g>
<g><path style="opacity:0.45" fill="#000000" d="M 1413.5,1674.5 C 1415.79,1674.59 1417.79,1675.26 1419.5,1676.5C 1417.1,1676.74 1415.1,1676.07 1413.5,1674.5 Z"/></g>
<g><path style="opacity:0.506" fill="#000000" d="M 776.5,1675.5 C 780.427,1675.93 784.093,1676.93 787.5,1678.5C 783.466,1678.48 779.799,1677.48 776.5,1675.5 Z"/></g>
<g><path style="opacity:0.466" fill="#000000" d="M 1419.5,1676.5 C 1423.76,1676.9 1427.76,1677.9 1431.5,1679.5C 1427.16,1679.42 1423.16,1678.42 1419.5,1676.5 Z"/></g>
<g><path style="opacity:0.514" fill="#000000" d="M 787.5,1678.5 C 791.078,1678.55 794.411,1679.22 797.5,1680.5C 793.878,1680.68 790.544,1680.01 787.5,1678.5 Z"/></g>
<g><path style="opacity:0.458" fill="#000000" d="M 1431.5,1679.5 C 1436.05,1679.62 1440.38,1680.29 1444.5,1681.5C 1439.9,1681.72 1435.57,1681.05 1431.5,1679.5 Z"/></g>
<g><path style="opacity:0.572" fill="#000000" d="M 797.5,1680.5 C 817.15,1681.4 836.817,1681.73 856.5,1681.5C 839.338,1682.66 822.005,1682.83 804.5,1682C 801.964,1681.81 799.631,1681.31 797.5,1680.5 Z"/></g>
</svg>
