<?xml version="1.0" encoding="UTF-8"?>
<!DOCTYPE svg PUBLIC "-//W3C//DTD SVG 1.1//EN" "http://www.w3.org/Graphics/SVG/1.1/DTD/svg11.dtd">
<svg xmlns="http://www.w3.org/2000/svg" version="1.1" width="331px" height="331px" style="shape-rendering:geometricPrecision; text-rendering:geometricPrecision; image-rendering:optimizeQuality; fill-rule:evenodd; clip-rule:evenodd" xmlns:xlink="http://www.w3.org/1999/xlink">
<g><path style="opacity:0.976" fill="#0a1256" d="M 137.5,33.5 C 175.297,31.2838 210.631,39.4504 243.5,58C 246.057,60.8922 248.224,64.0589 250,67.5C 261.006,115.901 265.339,164.901 263,214.5C 261.832,222.003 258.665,228.503 253.5,234C 243.458,239.681 233.791,245.848 224.5,252.5C 236.033,272.205 247.367,292.038 258.5,312C 256.365,313.381 254.032,314.381 251.5,315C 245.833,315.667 240.167,315.667 234.5,315C 233.376,314.751 232.376,314.251 231.5,313.5C 229.694,310.528 227.694,307.695 225.5,305C 182.167,303 138.833,303 95.5,305C 93.3056,307.695 91.3056,310.528 89.5,313.5C 88.624,314.251 87.624,314.751 86.5,315C 80.8333,315.667 75.1667,315.667 69.5,315C 66.9682,314.381 64.6349,313.381 62.5,312C 73.2346,292.111 84.5679,272.611 96.5,253.5C 87.2251,245.854 77.2251,239.188 66.5,233.5C 62.9456,229.058 60.4456,224.058 59,218.5C 55.6584,167.599 59.6584,117.265 71,67.5C 73.1055,61.7284 76.9389,57.5617 82.5,55C 100.272,46.1029 118.606,38.9363 137.5,33.5 Z M 148.5,50.5 C 156.5,50.5 164.5,50.5 172.5,50.5C 172.5,53.1667 172.5,55.8333 172.5,58.5C 164.5,58.5 156.5,58.5 148.5,58.5C 148.5,55.8333 148.5,53.1667 148.5,50.5 Z M 82.5,87.5 C 93.8333,87.5 105.167,87.5 116.5,87.5C 116.5,106.167 116.5,124.833 116.5,143.5C 103.167,143.5 89.8333,143.5 76.5,143.5C 76.5316,124.614 78.5316,105.947 82.5,87.5 Z M 204.5,87.5 C 215.949,86.8278 227.116,88.1611 238,91.5C 242.463,108.535 244.629,125.868 244.5,143.5C 231.167,143.5 217.833,143.5 204.5,143.5C 204.5,124.833 204.5,106.167 204.5,87.5 Z M 99.5,168.5 C 106.138,168.62 108.804,171.787 107.5,178C 99.4987,179.818 96.8321,176.651 99.5,168.5 Z M 79.5,169.5 C 90.4115,168.857 92.2449,172.524 85,180.5C 81.0231,177.88 79.1898,174.213 79.5,169.5 Z M 213.5,169.5 C 216.5,169.5 219.5,169.5 222.5,169.5C 222.322,172.216 221.822,174.883 221,177.5C 217.036,179.969 213.869,178.969 211.5,174.5C 212.456,172.925 213.123,171.258 213.5,169.5 Z M 232.5,169.5 C 235.572,169.183 238.572,169.516 241.5,170.5C 240.867,180.541 237.367,181.875 231,174.5C 231.134,172.811 231.634,171.144 232.5,169.5 Z M 116.5,268.5 C 145.893,268.185 175.227,269.351 204.5,272C 207.049,272.751 208.716,274.418 209.5,277C 176.832,281.667 144.166,281.667 111.5,277C 113.113,274.772 113.78,272.272 113.5,269.5C 114.791,269.737 115.791,269.404 116.5,268.5 Z"/></g>
</svg>
